{
classes = (
{
code = "racute r rcommaaccent uni0213 uni0211 rcaron";
name = "@KERN_LEFT_r";
},
{
code = "ycircumflex y ydieresis yacute ygrave";
name = "@KERN_LEFT_y";
},
{
code = "wgrave wcircumflex wdieresis w wacute";
name = "@KERN_RIGHT_w";
},
{
code = "Oslash Omacron D Otilde O Dcaron Q uni020E uni020C Eth Oacute Odieresis Ohungarumlaut Ograve Ocircumflex Obreve";
name = "@KERN_LEFT_D";
},
{
code = "cdotaccent ograve ocircumflex edieresis uni020F obreve ccedilla edotaccent egrave eogonek otilde ccaron dcaron oslash cacute ecircumflex odieresis ohungarumlaut ebreve omacron uni020D emacron ccircumflex eacute ecaron c e d uni0207 uni0205 o q eth oe oacute";
name = "@KERN_RIGHT_c";
},
{
code = "Y Ydieresis Yacute";
name = "@KERN_RIGHT_Y";
},
{
code = "a aring ae uni0203 aacute uni0201 amacron agrave atilde acircumflex adieresis aogonek abreve";
name = "@KERN_RIGHT_a";
},
{
code = "Oslash Omacron G C Ccaron Otilde Q Gcircumflex O uni020E uni020C Gcommaaccent Oacute Gdotaccent Gbreve Cdotaccent uni01F4 Odieresis Ohungarumlaut Ograve OE Cacute Ccircumflex Obreve Ccedilla Ocircumflex";
name = "@KERN_RIGHT_C";
},
{
code = "";
name = "@KERN_RIGHT__empty_lu.0_st.1_cl.0";
},
{
code = "";
name = "@KERN_LEFT__empty_lu.0_st.1_cl.0";
},
{
code = "Y Ydieresis Yacute";
name = "@KERN_LEFT_Y";
},
{
code = "A Aring Adieresis uni0202 uni0200 Amacron Aacute Agrave Atilde Acircumflex Abreve Aogonek";
name = "@KERN_RIGHT_A";
},
{
code = "uni021A T Tcaron";
name = "@KERN_RIGHT_T";
},
{
code = "A Aring Adieresis Aacute uni0202 Amacron Agrave Atilde Acircumflex uni0200 Aogonek Abreve";
name = "@KERN_LEFT_A";
}
);
copyright = "2011-12 Vernon Adams";
customParameters = (
{
name = openTypeHeadLowestRecPPEM;
value = 8;
},
{
name = openTypeHheaCaretOffset;
value = 0;
},
{
name = openTypeHheaCaretSlopeRise;
value = 1;
},
{
name = openTypeHheaCaretSlopeRun;
value = 0;
},
{
name = openTypeOS2Panose;
value = (
    2,
    0,
    5,
    3,
    0,
    0,
    0,
    0,
    0,
    0
);
},
{

glyphs = (
{
glyphname = A;
lastChange = "2013-01-02 06:18:44 -0800";
layers = (
{
anchors = (
{
name = ogonek;
position = "{845, 10}";
},
{
name = top;
position = "{459, 1760}";
}
);
layerId = "7DA9E391-A28A-4B33-B824-B8724EAC872C";
name = "Regular Condensed";
paths = (
{
closed = 1;
nodes = (
"333 1760 LINE",
"66 0 LINE",
"263 0 LINE",
"460 1434 LINE",
"463 1434 LINE",
"678 0 LINE",
"873 0 LINE",
"582 1760 LINE"
);
},
{
closed = 1;
nodes = (
"268 504 LINE",
"268 336 LINE",
"670 336 LINE",
"670 504 LINE"
);
}
);
width = 939;
}
);
leftKerningGroup = A;
rightKerningGroup = A;
unicode = 0041;
},
{
glyphname = AE;
lastChange = "2013-01-02 06:18:44 -0800";
layers = (
{
anchors = (
{
name = top;
position = "{685, 0}";
}
);
layerId = "7DA9E391-A28A-4B33-B824-B8724EAC872C";
name = "Regular Condensed";
paths = (
{
closed = 1;
nodes = (
"426 1760 LINE",
"73 0 LINE",
"271 0 LINE",
"336 336 LINE",
"603 336 LINE",
"603 0 LINE",
"1116 0 LINE",
"1116 172 LINE",
"810 172 LINE",
"810 812 LINE",
"1095 812 LINE",
"1095 986 LINE",
"810 986 LINE",
"810 1588 LINE",
"1112 1588 LINE",
"1112 1760 LINE"
);
},
{
closed = 1;
nodes = (
"603 497 LINE",
"366 497 LINE",
"577 1589 LINE",
"603 1590 LINE"
);
}
);
width = 1223;
}
);
unicode = 00C6;
},
{
glyphname = B;
lastChange = "2013-01-04 04:08:16 -0800";
layers = (
{
anchors = (
{
name = top;
position = "{462, 1759}";
}
);
layerId = "7DA9E391-A28A-4B33-B824-B8724EAC872C";
name = "Regular Condensed";
paths = (
{
closed = 1;
nodes = (
"160 1760 LINE",
"160 0 LINE",
"504 0 LINE SMOOTH",
"763 0 OFFCURVE",
"847 149 OFFCURVE",
"851 493 CURVE SMOOTH",
"851 530 LINE SMOOTH",
"851 730 OFFCURVE",
"814 902 OFFCURVE",
"689 953 CURVE",
"793 1008 OFFCURVE",
"822 1130 OFFCURVE",
"822 1326 CURVE SMOOTH",
"822 1364 LINE SMOOTH",
"820 1647 OFFCURVE",
"747 1760 OFFCURVE",
"478 1760 CURVE SMOOTH"
);
},
{
closed = 1;
nodes = (
"619 866 OFFCURVE",
"643 777 OFFCURVE",
"643 560 CURVE SMOOTH",
"643 499 LINE SMOOTH",
"643 241 OFFCURVE",
"611 167 OFFCURVE",
"494 167 CURVE SMOOTH",
"367 167 LINE",
"367 866 LINE",
"505 866 LINE SMOOTH"
);
},
{
closed = 1;
nodes = (
"575 1591 OFFCURVE",
"616 1560 OFFCURVE",
"617 1361 CURVE SMOOTH",
"617 1312 LINE SMOOTH",
"617 1057 OFFCURVE",
"596 1025 OFFCURVE",
"484 1025 CURVE SMOOTH",
"367 1025 LINE",
"367 1591 LINE",
"469 1591 LINE SMOOTH"
);
}
);
width = 952;
}
);
leftKerningGroup = B;
rightKerningGroup = B;
unicode = 0042;
},
{
glyphname = C;
lastChange = "2013-01-02 06:18:44 -0800";
layers = (
{
anchors = (
{
name = bottom;
position = "{464, 0}";
},
{
name = top;
position = "{468, 1760}";
}
);
layerId = "7DA9E391-A28A-4B33-B824-B8724EAC872C";
name = "Regular Condensed";
paths = (
{
closed = 1;
nodes = (
"187 1781 OFFCURVE",
"121 1562 OFFCURVE",
"121 1252 CURVE SMOOTH",
"121 519 LINE SMOOTH",
"121 172 OFFCURVE",
"210 -21 OFFCURVE",
"467 -21 CURVE SMOOTH",
"730 -21 OFFCURVE",
"808 165 OFFCURVE",
"808 517 CURVE SMOOTH",
"808 710 LINE",
"603 710 LINE",
"603 515 LINE SMOOTH",
"603 259 OFFCURVE",
"579 155 OFFCURVE",
"468 155 CURVE SMOOTH",
"354 155 OFFCURVE",
"328 257 OFFCURVE",
"328 514 CURVE SMOOTH",
"328 1276 LINE SMOOTH",
"328 1488 OFFCURVE",
"358 1602 OFFCURVE",
"474 1602 CURVE SMOOTH",
"583 1602 OFFCURVE",
"603 1494 OFFCURVE",
"603 1275 CURVE SMOOTH",
"603 1079 LINE",
"806 1079 LINE",
"806 1274 LINE SMOOTH",
"806 1572 OFFCURVE",
"749 1781 OFFCURVE",
"474 1781 CURVE SMOOTH"
);
}
);
width = 915;
}
);
leftKerningGroup = C;
rightKerningGroup = C;
unicode = 0043;
},
{
glyphname = D;
lastChange = "2013-01-04 04:07:51 -0800";
layers = (
{
anchors = (
{
name = center;
position = "{271, 916}";
},
{
name = top;
position = "{465, 1760}";
}
);
layerId = "7DA9E391-A28A-4B33-B824-B8724EAC872C";
name = "Regular Condensed";
paths = (
{
closed = 1;
nodes = (
"143 1760 LINE",
"143 0 LINE",
"467 0 LINE SMOOTH",
"731 0 OFFCURVE",
"829 152 OFFCURVE",
"829 509 CURVE SMOOTH",
"828 1282 LINE SMOOTH",
"828 1579 OFFCURVE",
"750 1760 OFFCURVE",
"474 1760 CURVE SMOOTH"
);
},
{
closed = 1;
nodes = (
"573 1596 OFFCURVE",
"622 1508 OFFCURVE",
"622 1287 CURVE SMOOTH",
"622 477 LINE SMOOTH",
"622 223 OFFCURVE",
"567 167 OFFCURVE",
"455 167 CURVE SMOOTH",
"349 167 LINE",
"349 1596 LINE",
"455 1596 LINE SMOOTH"
);
}
);
width = 945;
}
);
leftKerningGroup = D;
rightKerningGroup = D;
unicode = 0044;
},
{
glyphname = E;
lastChange = "2013-01-02 06:18:44 -0800";
layers = (
{
anchors = (
{
name = bottom;
position = "{458, 4}";
},
{
name = ogonek;
position = "{697, 10}";
},
{
name = top;
position = "{416, 1760}";
}
);
layerId = "7DA9E391-A28A-4B33-B824-B8724EAC872C";
name = "Regular Condensed";
paths = (
{
closed = 1;
nodes = (
"144 1760 LINE",
"144 0 LINE",
"674 0 LINE",
"674 172 LINE",
"351 172 LINE",
"351 814 LINE",
"653 814 LINE",
"653 986 LINE",
"351 986 LINE",
"351 1588 LINE",
"670 1588 LINE",
"670 1760 LINE"
);
}
);
width = 771;
}
);
leftKerningGroup = E;
rightKerningGroup = E;
unicode = 0045;
},
{
glyphname = F;
lastChange = "2013-01-02 06:18:44 -0800";
layers = (
{
anchors = (
{
name = top;
position = "{402, 1759}";
}
);
layerId = "7DA9E391-A28A-4B33-B824-B8724EAC872C";
name = "Regular Condensed";
paths = (
{
closed = 1;
nodes = (
"143 1760 LINE",
"143 0 LINE",
"349 0 LINE",
"349 856 LINE",
"653 856 LINE",
"653 1031 LINE",
"349 1031 LINE",
"349 1587 LINE",
"673 1587 LINE",
"673 1760 LINE"
);
}
);
width = 746;
}
);
leftKerningGroup = F;
rightKerningGroup = F;
unicode = 0046;
},
{
glyphname = G;
lastChange = "2013-01-02 06:18:44 -0800";
layers = (
{
anchors = (
{
name = bottom;
position = "{478, 0}";
},
{
name = top;
position = "{478, 1760}";
}
);
layerId = "7DA9E391-A28A-4B33-B824-B8724EAC872C";
name = "Regular Condensed";
paths = (
{
closed = 1;
nodes = (
"196 1781 OFFCURVE",
"121 1570 OFFCURVE",
"121 1262 CURVE SMOOTH",
"121 524 LINE SMOOTH",
"121 139 OFFCURVE",
"234 -17 OFFCURVE",
"438 -17 CURVE SMOOTH",
"553 -17 OFFCURVE",
"635 37 OFFCURVE",
"673 136 CURVE",
"701 0 LINE",
"810 0 LINE",
"810 924 LINE",
"477 924 LINE",
"477 764 LINE",
"620 764 LINE",
"620 535 LINE SMOOTH",
"620 261 OFFCURVE",
"587 155 OFFCURVE",
"473 155 CURVE SMOOTH",
"353 155 OFFCURVE",
"328 261 OFFCURVE",
"328 531 CURVE SMOOTH",
"328 1271 LINE SMOOTH",
"328 1517 OFFCURVE",
"365 1602 OFFCURVE",
"479 1602 CURVE SMOOTH",
"585 1602 OFFCURVE",
"610 1522 OFFCURVE",
"610 1351 CURVE SMOOTH",
"610 1122 LINE",
"810 1122 LINE",
"810 1258 LINE SMOOTH",
"810 1568 OFFCURVE",
"771 1781 OFFCURVE",
"479 1781 CURVE SMOOTH"
);
}
);
width = 939;
}
);
leftKerningGroup = G;
rightKerningGroup = G;
unicode = 0047;
},
{
glyphname = H;
lastChange = "2013-01-02 06:18:44 -0800";
layers = (
{
anchors = (
{
name = center;
position = "{492, 0}";
},
{
name = top;
position = "{492, 0}";
}
);
layerId = "7DA9E391-A28A-4B33-B824-B8724EAC872C";
name = "Regular Condensed";
paths = (
{
closed = 1;
nodes = (
"633 1760 LINE",
"633 1022 LINE",
"351 1022 LINE",
"351 1760 LINE",
"144 1760 LINE",
"144 0 LINE",
"351 0 LINE",
"351 853 LINE",
"633 853 LINE",
"633 0 LINE",
"840 0 LINE",
"840 1760 LINE"
);
}
);
width = 984;
}
);
leftKerningGroup = H;
rightKerningGroup = H;
unicode = 0048;
},
{
glyphname = Hbar;
lastChange = "2013-01-02 06:18:50 -0800";
layers = (
{
components = (
{
name = H;
transform = "{1, 0, 0, 1, 0, 0}";
}
);
layerId = "7DA9E391-A28A-4B33-B824-B8724EAC872C";
name = "Regular Condensed";
paths = (
{
closed = 1;
nodes = (
"55 1504 LINE",
"55 1398 LINE",
"951 1398 LINE",
"951 1504 LINE"
);
}
);
width = 984;
}
);
unicode = 0126;
},
{
glyphname = I;
lastChange = "2013-01-02 06:18:44 -0800";
layers = (
{
anchors = (
{
name = ogonek;
position = "{435, 10}";
},
{
name = top;
position = "{264, 1760}";
}
);
layerId = "7DA9E391-A28A-4B33-B824-B8724EAC872C";
name = "Regular Condensed";
paths = (
{
closed = 1;
nodes = (
"160 1760 LINE",
"160 0 LINE",
"367 0 LINE",
"367 1760 LINE"
);
}
);
width = 527;
}
);
leftKerningGroup = I;
rightKerningGroup = I;
unicode = 0049;
},
{
glyphname = J;
lastChange = "2013-01-02 06:18:44 -0800";
layers = (
{
anchors = (
{
name = top;
position = "{611, 1760}";
}
);
layerId = "7DA9E391-A28A-4B33-B824-B8724EAC872C";
name = "Regular Condensed";
paths = (
{
closed = 1;
nodes = (
"511 1760 LINE",
"511 418 LINE SMOOTH",
"511 261 OFFCURVE",
"508 155 OFFCURVE",
"398 155 CURVE SMOOTH",
"288 155 OFFCURVE",
"284 268 OFFCURVE",
"284 402 CURVE SMOOTH",
"284 619 LINE",
"82 619 LINE",
"82 389 LINE SMOOTH",
"82 115 OFFCURVE",
"181 -21 OFFCURVE",
"404 -21 CURVE SMOOTH",
"615 -21 OFFCURVE",
"718 130 OFFCURVE",
"718 426 CURVE SMOOTH",
"718 1760 LINE"
);
}
);
width = 858;
}
);
leftKerningGroup = J;
rightKerningGroup = J;
unicode = 004A;
},
{
glyphname = K;
lastChange = "2013-01-02 06:18:44 -0800";
layers = (
{
anchors = (
{
name = bottom;
position = "{453, 0}";
},
{
name = top;
position = "{461, 352}";
}
);
layerId = "7DA9E391-A28A-4B33-B824-B8724EAC872C";
name = "Regular Condensed";
paths = (
{
closed = 1;
nodes = (
"664 1760 LINE",
"351 921 LINE",
"351 1760 LINE",
"144 1760 LINE",
"144 0 LINE",
"353 0 LINE",
"353 842 LINE",
"679 0 LINE",
"895 0 LINE",
"544 891 LINE",
"872 1760 LINE"
);
}
);
width = 894;
}
);
leftKerningGroup = K;
rightKerningGroup = K;
unicode = 004B;
},
{
glyphname = L;
lastChange = "2013-01-02 06:18:44 -0800";
layers = (
{
anchors = (
{
name = bottom;
position = "{403, 0}";
},
{
name = top;
position = "{363, 1760}";
}
);
layerId = "7DA9E391-A28A-4B33-B824-B8724EAC872C";
name = "Regular Condensed";
paths = (
{
closed = 1;
nodes = (
"144 1760 LINE",
"144 0 LINE",
"676 0 LINE",
"676 171 LINE",
"351 171 LINE",
"351 1760 LINE"
);
}
);
width = 712;
}
);
leftKerningGroup = L;
rightKerningGroup = L;
unicode = 004C;
},
{
glyphname = Lcaron;
lastChange = "2013-01-02 06:18:50 -0800";
layers = (
{
components = (
{
name = L;
transform = "{1, 0, 0, 1, 0, 0}";
}
);
layerId = "7DA9E391-A28A-4B33-B824-B8724EAC872C";
name = "Regular Condensed";
paths = (
{
closed = 1;
nodes = (
"625 1753 LINE",
"625 1526 LINE",
"733 1526 LINE",
"684 1238 LINE",
"774 1238 LINE",
"860 1535 LINE",
"860 1753 LINE"
);
}
);
width = 742;
}
);
leftKerningGroup = L;
rightKerningGroup = L;
unicode = 013D;
},
{
glyphname = Lslash;
lastChange = "2013-01-02 06:18:50 -0800";
layers = (
{
components = (
{
name = L;
transform = "{1, 0, 0, 1, 0, 0}";
}
);
layerId = "7DA9E391-A28A-4B33-B824-B8724EAC872C";
name = "Regular Condensed";
paths = (
{
closed = 1;
nodes = (
"-1 916 LINE",
"-1 764 LINE",
"554 987 LINE",
"554 1139 LINE"
);
}
);
width = 748;
}
);
unicode = 0141;
},
{
glyphname = M;
lastChange = "2013-01-02 06:18:44 -0800";
layers = (
{
anchors = (
{
name = top;
position = "{656, 1760}";
}
);
layerId = "7DA9E391-A28A-4B33-B824-B8724EAC872C";
name = "Regular Condensed";
paths = (
{
closed = 1;
nodes = (
"893 1760 LINE",
"654 313 LINE",
"402 1760 LINE",
"144 1760 LINE",
"144 0 LINE",
"327 0 LINE",
"327 706 LINE",
"310 1364 LINE",
"559 3 LINE",
"746 3 LINE",
"985 1364 LINE",
"968 706 LINE",
"968 0 LINE",
"1152 0 LINE",
"1152 1760 LINE"
);
}
);
width = 1296;
}
);
leftKerningGroup = M;
rightKerningGroup = M;
unicode = 004D;
},
{
glyphname = N;
lastChange = "2013-01-02 06:18:44 -0800";
layers = (
{
anchors = (
{
name = bottom;
position = "{507, 0}";
},
{
name = top;
position = "{507, 1760}";
}
);
layerId = "7DA9E391-A28A-4B33-B824-B8724EAC872C";
name = "Regular Condensed";
paths = (
{
closed = 1;
nodes = (
"687 1760 LINE",
"687 1071 LINE",
"708 562 LINE",
"300 1760 LINE",
"144 1760 LINE",
"144 0 LINE",
"335 0 LINE",
"335 764 LINE",
"323 1208 LINE",
"718 0 LINE",
"870 0 LINE",
"870 1760 LINE"
);
}
);
width = 1014;
}
);
leftKerningGroup = N;
rightKerningGroup = N;
unicode = 004E;
},
{
glyphname = O;
lastChange = "2013-01-02 06:18:44 -0800";
layers = (
{
anchors = (
{
name = top;
position = "{469, 1762}";
}
);
layerId = "7DA9E391-A28A-4B33-B824-B8724EAC872C";
name = "Regular Condensed";
paths = (
{
closed = 1;
nodes = (
"194 1782 OFFCURVE",
"121 1585 OFFCURVE",
"121 1282 CURVE SMOOTH",
"121 506 LINE SMOOTH",
"121 153 OFFCURVE",
"207 -20 OFFCURVE",
"471 -20 CURVE SMOOTH",
"735 -20 OFFCURVE",
"817 153 OFFCURVE",
"817 506 CURVE SMOOTH",
"817 1282 LINE SMOOTH",
"817 1585 OFFCURVE",
"758 1782 OFFCURVE",
"476 1782 CURVE SMOOTH"
);
},
{
closed = 1;
nodes = (
"588 1604 OFFCURVE",
"610 1505 OFFCURVE",
"610 1294 CURVE SMOOTH",
"610 504 LINE SMOOTH",
"610 246 OFFCURVE",
"585 158 OFFCURVE",
"471 158 CURVE SMOOTH",
"352 158 OFFCURVE",
"328 244 OFFCURVE",
"328 504 CURVE SMOOTH",
"328 1295 LINE SMOOTH",
"328 1506 OFFCURVE",
"360 1604 OFFCURVE",
"476 1604 CURVE SMOOTH"
);
}
);
width = 938;
}
);
leftKerningGroup = O;
rightKerningGroup = O;
unicode = 004F;
},
{
glyphname = Oslash;
lastChange = "2013-01-02 06:18:50 -0800";
layers = (
{
anchors = (
{
name = top;
position = "{548, 0}";
}
);
components = (
{
name = O;
transform = "{1, 0, 0, 1, 0, 0}";
}
);
layerId = "7DA9E391-A28A-4B33-B824-B8724EAC872C";
name = "Regular Condensed";
paths = (
{
closed = 1;
nodes = (
"75 -166 LINE",
"174 -206 LINE",
"910 1870 LINE",
"803 1906 LINE"
);
}
);
width = 900;
}
);
unicode = 00D8;
},
{
glyphname = OE;
lastChange = "2013-01-02 06:18:44 -0800";
layers = (
{
anchors = (
{
name = top;
position = "{656, 0}";
}
);
layerId = "7DA9E391-A28A-4B33-B824-B8724EAC872C";
name = "Regular Condensed";
paths = (
{
closed = 1;
nodes = (
"477 1760 LINE SMOOTH",
"195 1760 OFFCURVE",
"123 1585 OFFCURVE",
"123 1282 CURVE SMOOTH",
"123 507 LINE SMOOTH",
"123 154 OFFCURVE",
"208 0 OFFCURVE",
"472 0 CURVE SMOOTH",
"1116 0 LINE",
"1116 172 LINE",
"814 172 LINE",
"814 812 LINE",
"1094 812 LINE",
"1094 986 LINE",
"814 986 LINE",
"814 1588 LINE",
"1111 1588 LINE",
"1111 1760 LINE"
);
},
{
closed = 1;
nodes = (
"608 178 LINE",
"472 178 LINE SMOOTH",
"352 179 OFFCURVE",
"330 245 OFFCURVE",
"330 505 CURVE SMOOTH",
"330 1293 LINE SMOOTH",
"330 1504 OFFCURVE",
"361 1581 OFFCURVE",
"477 1581 CURVE SMOOTH",
"608 1581 LINE"
);
}
);
width = 1222;
}
);
unicode = 0152;
},
{
glyphname = P;
lastChange = "2013-01-02 06:18:53 -0800";
layers = (
{
anchors = (
{
name = top;
position = "{459, 1760}";
}
);
layerId = "7DA9E391-A28A-4B33-B824-B8724EAC872C";
name = "Regular Condensed";
paths = (
{
closed = 1;
nodes = (
"144 1760 LINE",
"144 0 LINE",
"351 0 LINE",
"351 691 LINE",
"498 691 LINE SMOOTH",
"763 691 OFFCURVE",
"830 874 OFFCURVE",
"830 1229 CURVE SMOOTH",
"830 1232 OFFCURVE",
"830 1253 OFFCURVE",
"829 1256 CURVE SMOOTH",
"827 1566 OFFCURVE",
"779 1760 OFFCURVE",
"498 1760 CURVE SMOOTH"
);
},
{
closed = 1;
nodes = (
"600 1596 OFFCURVE",
"623 1489 OFFCURVE",
"623 1263 CURVE SMOOTH",
"623 1229 LINE SMOOTH",
"623 955 OFFCURVE",
"598 863 OFFCURVE",
"477 863 CURVE SMOOTH",
"351 863 LINE",
"351 1596 LINE",
"482 1596 LINE SMOOTH"
);
}
);
width = 890;
}
);
leftKerningGroup = P;
rightKerningGroup = P;
unicode = 0050;
},
{
glyphname = Thorn;
lastChange = "2013-01-02 06:18:53 -0800";
layers = (
{
layerId = "7DA9E391-A28A-4B33-B824-B8724EAC872C";
name = "Regular Condensed";
paths = (
{
closed = 1;
nodes = (
"162 1760 LINE",
"162 0 LINE",
"368 0 LINE",
"368 422 LINE",
"515 422 LINE SMOOTH",
"780 422 OFFCURVE",
"847 609 OFFCURVE",
"847 963 CURVE SMOOTH",
"847 987 LINE SMOOTH",
"846 1300 OFFCURVE",
"798 1499 OFFCURVE",
"515 1499 CURVE SMOOTH",
"368 1499 LINE",
"368 1760 LINE"
);
},
{
closed = 1;
nodes = (
"619 1335 OFFCURVE",
"641 1222 OFFCURVE",
"641 994 CURVE SMOOTH",
"641 964 LINE SMOOTH",
"641 689 OFFCURVE",
"616 594 OFFCURVE",
"495 594 CURVE SMOOTH",
"368 594 LINE",
"368 1335 LINE",
"499 1335 LINE SMOOTH"
);
}
);
width = 927;
}
);
unicode = 00DE;
},
{
glyphname = Q;
lastChange = "2013-01-02 06:18:50 -0800";
layers = (
{
components = (
{
name = O;
transform = "{1, 0, 0, 1, 0, 0}";
}
);
layerId = "7DA9E391-A28A-4B33-B824-B8724EAC872C";
name = "Regular Condensed";
paths = (
{
closed = 1;
nodes = (
"430 -11 LINE",
"667 -269 LINE",
"769 -176 LINE",
"569 56 LINE"
);
}
);
width = 942;
}
);
unicode = 0051;
},
{
glyphname = R;
lastChange = "2013-01-02 06:18:53 -0800";
layers = (
{
anchors = (
{
name = bottom;
position = "{482, 0}";
},
{
name = top;
position = "{482, 1760}";
}
);
layerId = "7DA9E391-A28A-4B33-B824-B8724EAC872C";
name = "Regular Condensed";
paths = (
{
closed = 1;
nodes = (
"144 1760 LINE",
"144 0 LINE",
"351 0 LINE",
"351 850 LINE",
"474 843 LINE SMOOTH",
"611 842 OFFCURVE",
"623 793 OFFCURVE",
"623 593 CURVE SMOOTH",
"623 247 OFFCURVE",
"624 30 OFFCURVE",
"639 0 CURVE",
"845 0 LINE",
"829 42 OFFCURVE",
"829 243 OFFCURVE",
"829 301 CURVE SMOOTH",
"829 775 OFFCURVE",
"796 906 OFFCURVE",
"667 928 CURVE",
"793 965 OFFCURVE",
"828 1094 OFFCURVE",
"828 1311 CURVE SMOOTH",
"828 1612 OFFCURVE",
"792 1760 OFFCURVE",
"513 1760 CURVE SMOOTH"
);
},
{
closed = 1;
nodes = (
"602 1596 OFFCURVE",
"623 1553 OFFCURVE",
"623 1329 CURVE SMOOTH",
"623 1317 LINE SMOOTH",
"623 1046 OFFCURVE",
"597 1002 OFFCURVE",
"483 1002 CURVE SMOOTH",
"351 1002 LINE",
"351 1596 LINE",
"481 1596 LINE SMOOTH"
);
}
);
width = 953;
}
);
leftKerningGroup = R;
rightKerningGroup = R;
unicode = 0052;
},
{
glyphname = S;
lastChange = "2013-01-02 06:18:44 -0800";
layers = (
{
anchors = (
{
name = bottom;
position = "{439, 0}";
},
{
name = top;
position = "{446, 1759}";
}
);
layerId = "7DA9E391-A28A-4B33-B824-B8724EAC872C";
name = "Regular Condensed";
paths = (
{
closed = 1;
nodes = (
"172 1782 OFFCURVE",
"105 1614 OFFCURVE",
"105 1349 CURVE SMOOTH",
"105 1151 OFFCURVE",
"214 1025 OFFCURVE",
"314 924 CURVE SMOOTH",
"429 809 LINE SMOOTH",
"533 705 OFFCURVE",
"590 600 OFFCURVE",
"590 443 CURVE SMOOTH",
"590 237 OFFCURVE",
"578 157 OFFCURVE",
"456 157 CURVE SMOOTH",
"339 157 OFFCURVE",
"315 254 OFFCURVE",
"315 501 CURVE SMOOTH",
"315 680 LINE",
"114 680 LINE",
"114 509 LINE SMOOTH",
"114 198 OFFCURVE",
"168 -20 OFFCURVE",
"454 -20 CURVE SMOOTH",
"725 -20 OFFCURVE",
"793 157 OFFCURVE",
"793 449 CURVE SMOOTH",
"793 665 OFFCURVE",
"703 823 OFFCURVE",
"577 955 CURVE SMOOTH",
"457 1082 LINE SMOOTH",
"356 1187 OFFCURVE",
"304 1233 OFFCURVE",
"304 1374 CURVE SMOOTH",
"304 1534 OFFCURVE",
"344 1605 OFFCURVE",
"445 1605 CURVE SMOOTH",
"554 1605 OFFCURVE",
"569 1496 OFFCURVE",
"569 1283 CURVE SMOOTH",
"569 1165 LINE",
"767 1165 LINE",
"767 1269 LINE SMOOTH",
"767 1573 OFFCURVE",
"731 1782 OFFCURVE",
"445 1782 CURVE SMOOTH"
);
}
);
width = 867;
}
);
leftKerningGroup = S;
rightKerningGroup = S;
unicode = 0053;
},
{
glyphname = T;
lastChange = "2013-01-02 06:18:44 -0800";
layers = (
{
anchors = (
{
name = bottom;
position = "{317, 0}";
},
{
name = center;
position = "{317, 901}";
},
{
name = top;
position = "{317, 1760}";
}
);
layerId = "7DA9E391-A28A-4B33-B824-B8724EAC872C";
name = "Regular Condensed";
paths = (
{
closed = 1;
nodes = (
"26 1760 LINE",
"26 1588 LINE",
"220 1588 LINE",
"220 0 LINE",
"426 0 LINE",
"426 1588 LINE",
"607 1588 LINE",
"607 1760 LINE"
);
}
);
width = 633;
}
);
leftKerningGroup = T;
rightKerningGroup = T;
unicode = 0054;
},
{
glyphname = U;
lastChange = "2013-01-02 06:18:44 -0800";
layers = (
{
anchors = (
{
name = ogonek;
position = "{659, 10}";
},
{
name = top;
position = "{482, 1759}";
}
);
layerId = "7DA9E391-A28A-4B33-B824-B8724EAC872C";
name = "Regular Condensed";
paths = (
{
closed = 1;
nodes = (
"623 1760 LINE",
"623 456 LINE SMOOTH",
"623 266 OFFCURVE",
"620 154 OFFCURVE",
"483 154 CURVE SMOOTH",
"347 154 OFFCURVE",
"341 267 OFFCURVE",
"341 457 CURVE SMOOTH",
"341 1760 LINE",
"134 1760 LINE",
"134 452 LINE SMOOTH",
"134 132 OFFCURVE",
"222 -21 OFFCURVE",
"483 -21 CURVE SMOOTH",
"744 -21 OFFCURVE",
"829 132 OFFCURVE",
"829 452 CURVE SMOOTH",
"829 1760 LINE"
);
}
);
width = 963;
}
);
leftKerningGroup = U;
rightKerningGroup = U;
unicode = 0055;
},
{
glyphname = V;
lastChange = "2013-01-02 06:18:44 -0800";
layers = (
{
layerId = "7DA9E391-A28A-4B33-B824-B8724EAC872C";
name = "Regular Condensed";
paths = (
{
closed = 1;
nodes = (
"666 1760 LINE",
"565 1015 LINE",
"478 360 LINE",
"474 360 LINE",
"374 1015 LINE",
"257 1760 LINE",
"60 1760 LINE",
"353 0 LINE",
"594 0 LINE",
"861 1760 LINE"
);
}
);
width = 921;
}
);
unicode = 0056;
},
{
glyphname = W;
lastChange = "2013-01-02 06:18:44 -0800";
layers = (
{
anchors = (
{
name = top;
position = "{687, 1760}";
}
);
layerId = "7DA9E391-A28A-4B33-B824-B8724EAC872C";
name = "Regular Condensed";
paths = (
{
closed = 1;
nodes = (
"1106 1760 LINE",
"979 411 LINE",
"774 1760 LINE",
"605 1760 LINE",
"405 411 LINE",
"255 1760 LINE",
"64 1760 LINE",
"296 0 LINE",
"496 0 LINE",
"695 1299 LINE",
"883 0 LINE",
"1088 0 LINE",
"1296 1760 LINE"
);
}
);
width = 1359;
}
);
leftKerningGroup = W;
rightKerningGroup = W;
unicode = 0057;
},
{
glyphname = X;
lastChange = "2013-01-02 06:18:44 -0800";
layers = (
{
layerId = "7DA9E391-A28A-4B33-B824-B8724EAC872C";
name = "Regular Condensed";
paths = (
{
closed = 1;
nodes = (
"63 1760 LINE",
"581 0 LINE",
"761 0 LINE",
"244 1760 LINE"
);
},
{
closed = 1;
nodes = (
"567 1760 LINE",
"366 978 LINE",
"319 978 LINE",
"55 0 LINE",
"244 0 LINE",
"444 770 LINE",
"487 775 LINE",
"753 1760 LINE"
);
}
);
width = 814;
}
);
unicode = 0058;
},
{
glyphname = Y;
lastChange = "2013-01-02 06:18:44 -0800";
layers = (
{
anchors = (
{
name = top;
position = "{424, 1760}";
}
);
layerId = "7DA9E391-A28A-4B33-B824-B8724EAC872C";
name = "Regular Condensed";
paths = (
{
closed = 1;
nodes = (
"614 1760 LINE",
"433 1040 LINE",
"429 1040 LINE",
"221 1760 LINE",
"20 1760 LINE",
"326 739 LINE",
"326 0 LINE",
"533 0 LINE",
"533 739 LINE",
"817 1760 LINE"
);
}
);
width = 836;
}
);
leftKerningGroup = Y;
rightKerningGroup = Y;
unicode = 0059;
},
{
glyphname = Z;
lastChange = "2013-01-02 06:18:44 -0800";
layers = (
{
anchors = (
{
name = top;
position = "{430, 1760}";
}
);
layerId = "7DA9E391-A28A-4B33-B824-B8724EAC872C";
name = "Regular Condensed";
paths = (
{
closed = 1;
nodes = (
"148 1760 LINE",
"148 1588 LINE",
"478 1588 LINE",
"115 179 LINE",
"115 0 LINE",
"684 0 LINE",
"684 172 LINE",
"329 172 LINE",
"692 1602 LINE",
"692 1760 LINE"
);
}
);
width = 764;
}
);
leftKerningGroup = Z;
rightKerningGroup = Z;
unicode = 005A;
},
{
glyphname = a;
lastChange = "2013-01-02 06:18:44 -0800";
layers = (
{
anchors = (
{
name = ogonek;
position = "{833, 10}";
},
{
name = top;
position = "{482, 1500}";
}
);
layerId = "7DA9E391-A28A-4B33-B824-B8724EAC872C";
name = "Regular Condensed";
paths = (
{
closed = 1;
nodes = (
"189 1518 OFFCURVE",
"145 1322 OFFCURVE",
"145 1066 CURVE SMOOTH",
"145 1023 LINE",
"349 1023 LINE",
"349 1075 LINE SMOOTH",
"349 1267 OFFCURVE",
"364 1347 OFFCURVE",
"471 1347 CURVE SMOOTH",
"579 1347 OFFCURVE",
"586 1267 OFFCURVE",
"586 1076 CURVE SMOOTH",
"586 256 LINE",
"569 211 OFFCURVE",
"513 153 OFFCURVE",
"441 153 CURVE SMOOTH",
"356 153 OFFCURVE",
"333 221 OFFCURVE",
"333 391 CURVE SMOOTH",
"333 530 LINE SMOOTH",
"333 706 OFFCURVE",
"383 736 OFFCURVE",
"605 835 CURVE",
"605 968 LINE",
"329 856 OFFCURVE",
"126 802 OFFCURVE",
"126 531 CURVE SMOOTH",
"126 385 LINE SMOOTH",
"127 136 OFFCURVE",
"201 -13 OFFCURVE",
"383 -13 CURVE SMOOTH",
"500 -13 OFFCURVE",
"569 69 OFFCURVE",
"587 130 CURVE",
"587 0 LINE",
"793 0 LINE",
"793 1021 LINE SMOOTH",
"793 1343 OFFCURVE",
"746 1518 OFFCURVE",
"475 1518 CURVE SMOOTH"
);
}
);
width = 926;
}
);
leftKerningGroup = a;
rightKerningGroup = a;
unicode = 0061;
},
{
glyphname = ae;
lastChange = "2013-01-02 06:18:53 -0800";
layers = (
{
anchors = (
{
name = top;
position = "{773, 368}";
}
);
layerId = "7DA9E391-A28A-4B33-B824-B8724EAC872C";
name = "Regular Condensed";
paths = (
{
closed = 1;
nodes = (
"806 1518 OFFCURVE",
"731 1483 OFFCURVE",
"683 1418 CURVE",
"646 1484 OFFCURVE",
"581 1518 OFFCURVE",
"467 1518 CURVE SMOOTH",
"181 1518 OFFCURVE",
"137 1322 OFFCURVE",
"137 1066 CURVE SMOOTH",
"137 1023 LINE",
"341 1023 LINE",
"341 1077 LINE SMOOTH",
"341 1270 OFFCURVE",
"357 1347 OFFCURVE",
"462 1347 CURVE SMOOTH",
"571 1347 OFFCURVE",
"577 1252 OFFCURVE",
"578 1063 CURVE SMOOTH",
"578 962 LINE",
"311 854 OFFCURVE",
"120 797 OFFCURVE",
"118 537 CURVE SMOOTH",
"118 390 LINE SMOOTH",
"118 135 OFFCURVE",
"209 -13 OFFCURVE",
"396 -13 CURVE SMOOTH",
"504 -13 OFFCURVE",
"616 56 OFFCURVE",
"662 115 CURVE",
"705 32 OFFCURVE",
"786 -18 OFFCURVE",
"917 -18 CURVE SMOOTH",
"1206 -18 OFFCURVE",
"1230 193 OFFCURVE",
"1230 502 CURVE SMOOTH",
"1230 562 LINE",
"1028 562 LINE",
"1028 451 LINE SMOOTH",
"1028 276 OFFCURVE",
"1024 153 OFFCURVE",
"911 153 CURVE SMOOTH",
"799 153 OFFCURVE",
"784 252 OFFCURVE",
"784 457 CURVE SMOOTH",
"784 740 LINE",
"1232 740 LINE",
"1233 750 OFFCURVE",
"1233 1026 OFFCURVE",
"1233 1026 CURVE SMOOTH",
"1233 1315 OFFCURVE",
"1192 1518 OFFCURVE",
"917 1518 CURVE SMOOTH"
);
},
{
closed = 1;
nodes = (
"577 257 LINE",
"561 212 OFFCURVE",
"505 153 OFFCURVE",
"433 153 CURVE SMOOTH",
"348 153 OFFCURVE",
"325 221 OFFCURVE",
"325 391 CURVE SMOOTH",
"325 527 LINE SMOOTH",
"325 698 OFFCURVE",
"370 729 OFFCURVE",
"577 822 CURVE"
);
},
{
closed = 1;
nodes = (
"1022 1349 OFFCURVE",
"1028 1252 OFFCURVE",
"1028 1073 CURVE SMOOTH",
"1028 889 LINE",
"784 889 LINE",
"784 1060 LINE SMOOTH",
"784 1233 OFFCURVE",
"797 1349 OFFCURVE",
"916 1349 CURVE SMOOTH"
);
}
);
width = 1341;
}
);
unicode = 00E6;
},
{
glyphname = b;
lastChange = "2013-01-02 06:18:44 -0800";
layers = (
{
layerId = "7DA9E391-A28A-4B33-B824-B8724EAC872C";
name = "Regular Condensed";
paths = (
{
closed = 1;
nodes = (
"147 1779 LINE",
"147 0 LINE",
"352 0 LINE",
"352 126 LINE",
"394 25 OFFCURVE",
"474 -13 OFFCURVE",
"556 -13 CURVE SMOOTH",
"768 -13 OFFCURVE",
"814 192 OFFCURVE",
"814 463 CURVE SMOOTH",
"814 1040 LINE SMOOTH",
"814 1314 OFFCURVE",
"764 1525 OFFCURVE",
"532 1518 CURVE SMOOTH",
"459 1516 OFFCURVE",
"374 1462 OFFCURVE",
"352 1381 CURVE",
"352 1779 LINE"
);
},
{
closed = 1;
nodes = (
"597 1346 OFFCURVE",
"608 1234 OFFCURVE",
"608 1067 CURVE SMOOTH",
"608 463 LINE SMOOTH",
"608 250 OFFCURVE",
"588 155 OFFCURVE",
"488 154 CURVE SMOOTH",
"374 154 OFFCURVE",
"352 255 OFFCURVE",
"352 458 CURVE SMOOTH",
"352 1066 LINE SMOOTH",
"352 1304 OFFCURVE",
"402 1346 OFFCURVE",
"492 1346 CURVE SMOOTH"
);
}
);
width = 937;
}
);
leftKerningGroup = b;
rightKerningGroup = b;
unicode = 0062;
},
{
glyphname = c;
lastChange = "2013-01-02 06:18:44 -0800";
layers = (
{
anchors = (
{
name = bottom;
position = "{441, 0}";
},
{
name = top;
position = "{466, 1500}";
}
);
layerId = "7DA9E391-A28A-4B33-B824-B8724EAC872C";
name = "Regular Condensed";
paths = (
{
closed = 1;
nodes = (
"176 1518 OFFCURVE",
"124 1308 OFFCURVE",
"124 1008 CURVE SMOOTH",
"124 506 LINE SMOOTH",
"124 190 OFFCURVE",
"169 -18 OFFCURVE",
"459 -18 CURVE SMOOTH",
"734 -18 OFFCURVE",
"775 184 OFFCURVE",
"775 479 CURVE SMOOTH",
"775 576 LINE",
"573 576 LINE",
"573 431 LINE SMOOTH",
"573 260 OFFCURVE",
"564 158 OFFCURVE",
"456 158 CURVE SMOOTH",
"343 158 OFFCURVE",
"330 249 OFFCURVE",
"330 435 CURVE SMOOTH",
"330 1073 LINE SMOOTH",
"330 1239 OFFCURVE",
"348 1342 OFFCURVE",
"462 1342 CURVE SMOOTH",
"570 1342 OFFCURVE",
"573 1250 OFFCURVE",
"573 1079 CURVE SMOOTH",
"573 947 LINE",
"775 947 LINE",
"775 1051 LINE SMOOTH",
"775 1332 OFFCURVE",
"730 1518 OFFCURVE",
"464 1518 CURVE SMOOTH"
);
}
);
width = 880;
}
);
leftKerningGroup = c;
rightKerningGroup = c;
unicode = 0063;
},
{
glyphname = d;
lastChange = "2013-01-02 06:18:44 -0800";
layers = (
{
anchors = (
{
name = center;
position = "{663, 1627}";
}
);
layerId = "7DA9E391-A28A-4B33-B824-B8724EAC872C";
name = "Regular Condensed";
paths = (
{
closed = 1;
nodes = (
"586 1779 LINE",
"586 1400 LINE",
"554 1466 OFFCURVE",
"488 1518 OFFCURVE",
"410 1518 CURVE SMOOTH",
"185 1518 OFFCURVE",
"124 1314 OFFCURVE",
"124 1047 CURVE SMOOTH",
"124 480 LINE SMOOTH",
"124 200 OFFCURVE",
"157 -13 OFFCURVE",
"379 -13 CURVE SMOOTH",
"468 -13 OFFCURVE",
"546 27 OFFCURVE",
"586 126 CURVE",
"586 0 LINE",
"792 0 LINE",
"792 1779 LINE"
);
},
{
closed = 1;
nodes = (
"566 1346 OFFCURVE",
"587 1245 OFFCURVE",
"587 1050 CURVE SMOOTH",
"587 448 LINE SMOOTH",
"587 209 OFFCURVE",
"544 154 OFFCURVE",
"450 154 CURVE SMOOTH",
"347 154 OFFCURVE",
"330 265 OFFCURVE",
"330 439 CURVE SMOOTH",
"330 1045 LINE SMOOTH",
"330 1251 OFFCURVE",
"355 1345 OFFCURVE",
"455 1346 CURVE SMOOTH"
);
}
);
width = 938;
}
);
leftKerningGroup = d;
rightKerningGroup = d;
unicode = 0064;
},
{
glyphname = eth;
lastChange = "2013-01-02 06:18:44 -0800";
layers = (
{
layerId = "7DA9E391-A28A-4B33-B824-B8724EAC872C";
name = "Regular Condensed";
paths = (
{
closed = 1;
nodes = (
"282 1635 LINE",
"354 1626 OFFCURVE",
"442 1595 OFFCURVE",
"507 1520 CURVE",
"299 1399 LINE",
"358 1281 LINE",
"575 1407 LINE",
"598 1351 OFFCURVE",
"612 1041 OFFCURVE",
"612 1025 CURVE",
"572 1073 OFFCURVE",
"506 1099 OFFCURVE",
"438 1101 CURVE SMOOTH",
"187 1109 OFFCURVE",
"104 947 OFFCURVE",
"104 571 CURVE SMOOTH",
"104 462 LINE SMOOTH",
"104 148 OFFCURVE",
"183 -20 OFFCURVE",
"461 -20 CURVE SMOOTH",
"760 -20 OFFCURVE",
"822 194 OFFCURVE",
"822 516 CURVE SMOOTH",
"822 909 LINE SMOOTH",
"822 972 OFFCURVE",
"795 1420 OFFCURVE",
"753 1507 CURVE",
"942 1617 LINE",
"883 1735 LINE",
"683 1620 LINE",
"600 1724 OFFCURVE",
"480 1774 OFFCURVE",
"349 1780 CURVE"
);
},
{
closed = 1;
nodes = (
"539 927 OFFCURVE",
"602 882 OFFCURVE",
"616 854 CURVE",
"616 481 LINE SMOOTH",
"616 255 OFFCURVE",
"585 158 OFFCURVE",
"460 158 CURVE SMOOTH",
"344 158 OFFCURVE",
"311 215 OFFCURVE",
"311 440 CURVE SMOOTH",
"311 578 LINE SMOOTH",
"311 836 OFFCURVE",
"338 927 OFFCURVE",
"454 927 CURVE SMOOTH"
);
}
);
width = 968;
}
);
unicode = 00F0;
},
{
glyphname = e;
lastChange = "2013-01-02 06:18:44 -0800";
layers = (
{
anchors = (
{
name = bottom;
position = "{461, 0}";
},
{
name = ogonek;
position = "{669, 10}";
},
{
name = top;
position = "{457, 1500}";
}
);
layerId = "7DA9E391-A28A-4B33-B824-B8724EAC872C";
name = "Regular Condensed";
paths = (
{
closed = 1;
nodes = (
"190 1518 OFFCURVE",
"124 1317 OFFCURVE",
"124 1035 CURVE SMOOTH",
"124 505 LINE SMOOTH",
"124 192 OFFCURVE",
"167 -18 OFFCURVE",
"454 -18 CURVE SMOOTH",
"747 -18 OFFCURVE",
"774 186 OFFCURVE",
"774 498 CURVE SMOOTH",
"774 562 LINE",
"573 562 LINE",
"573 441 LINE SMOOTH",
"573 265 OFFCURVE",
"569 153 OFFCURVE",
"456 153 CURVE SMOOTH",
"340 153 OFFCURVE",
"330 254 OFFCURVE",
"330 444 CURVE SMOOTH",
"330 743 LINE",
"778 743 LINE",
"778 1026 LINE SMOOTH",
"778 1315 OFFCURVE",
"737 1518 OFFCURVE",
"462 1518 CURVE SMOOTH"
);
},
{
closed = 1;
nodes = (
"567 1349 OFFCURVE",
"573 1252 OFFCURVE",
"573 1073 CURVE SMOOTH",
"573 882 LINE",
"329 882 LINE",
"329 1066 LINE SMOOTH",
"329 1233 OFFCURVE",
"343 1349 OFFCURVE",
"462 1349 CURVE SMOOTH"
);
}
);
width = 893;
}
);
leftKerningGroup = e;
rightKerningGroup = e;
unicode = 0065;
},
{
glyphname = f;
lastChange = "2013-01-02 06:18:44 -0800";
layers = (
{
layerId = "7DA9E391-A28A-4B33-B824-B8724EAC872C";
name = "Regular Condensed";
paths = (
{
closed = 1;
nodes = (
"271 1786 OFFCURVE",
"200 1688 OFFCURVE",
"200 1515 CURVE SMOOTH",
"200 1442 LINE",
"71 1442 LINE",
"71 1291 LINE",
"200 1291 LINE",
"200 0 LINE",
"405 0 LINE",
"405 1291 LINE",
"581 1291 LINE",
"581 1442 LINE",
"405 1442 LINE",
"405 1523 LINE SMOOTH",
"405 1588 OFFCURVE",
"420 1628 OFFCURVE",
"510 1628 CURVE SMOOTH",
"530 1628 OFFCURVE",
"554 1626 OFFCURVE",
"581 1622 CURVE",
"581 1765 LINE",
"575 1767 OFFCURVE",
"511 1786 OFFCURVE",
"432 1786 CURVE SMOOTH"
);
}
);
width = 623;
}
);
leftKerningGroup = f;
rightKerningGroup = f;
unicode = 0066;
},
{
glyphname = g;
lastChange = "2013-01-04 04:09:27 -0800";
layers = (
{
anchors = (
{
name = top;
position = "{486, 1500}";
}
);
layerId = "7DA9E391-A28A-4B33-B824-B8724EAC872C";
name = "Regular Condensed";
paths = (
{
closed = 1;
nodes = (
"193 1521 OFFCURVE",
"122 1312 OFFCURVE",
"122 1038 CURVE SMOOTH",
"122 608 LINE SMOOTH",
"122 340 OFFCURVE",
"176 140 OFFCURVE",
"387 140 CURVE SMOOTH",
"474 140 OFFCURVE",
"544 165 OFFCURVE",
"583 264 CURVE",
"583 121 LINE SMOOTH",
"583 7 OFFCURVE",
"529 -65 OFFCURVE",
"436 -67 CURVE SMOOTH",
"331 -70 OFFCURVE",
"252 -33 OFFCURVE",
"193 7 CURVE",
"119 -133 LINE",
"198 -196 OFFCURVE",
"309 -233 OFFCURVE",
"446 -229 CURVE SMOOTH",
"720 -220 OFFCURVE",
"788 -32 OFFCURVE",
"788 140 CURVE SMOOTH",
"788 1500 LINE",
"583 1500 LINE",
"583 1390 LINE",
"555 1477 OFFCURVE",
"490 1517 OFFCURVE",
"405 1518 CURVE SMOOTH"
);
},
{
closed = 1;
nodes = (
"560 1347 OFFCURVE",
"583 1250 OFFCURVE",
"583 1068 CURVE SMOOTH",
"583 605 LINE SMOOTH",
"583 359 OFFCURVE",
"546 303 OFFCURVE",
"466 303 CURVE SMOOTH",
"354 303 OFFCURVE",
"328 404 OFFCURVE",
"328 603 CURVE SMOOTH",
"328 1070 LINE SMOOTH",
"328 1233 OFFCURVE",
"341 1347 OFFCURVE",
"456 1347 CURVE SMOOTH"
);
}
);
width = 929;
}
);
leftKerningGroup = g;
rightKerningGroup = g;
unicode = 0067;
},
{
glyphname = h;
lastChange = "2013-01-02 06:18:44 -0800";
layers = (
{
anchors = (
{
name = center;
position = "{255, 1619}";
},
{
name = top;
position = "{494, 1760}";
}
);
layerId = "7DA9E391-A28A-4B33-B824-B8724EAC872C";
name = "Regular Condensed";
paths = (
{
closed = 1;
nodes = (
"147 1779 LINE",
"147 0 LINE",
"352 0 LINE",
"352 1154 LINE SMOOTH",
"352 1285 OFFCURVE",
"421 1342 OFFCURVE",
"504 1342 CURVE SMOOTH",
"578 1342 OFFCURVE",
"627 1301 OFFCURVE",
"627 1179 CURVE SMOOTH",
"627 0 LINE",
"832 0 LINE",
"832 1196 LINE SMOOTH",
"832 1413 OFFCURVE",
"741 1519 OFFCURVE",
"591 1519 CURVE SMOOTH",
"471 1519 OFFCURVE",
"378 1434 OFFCURVE",
"352 1341 CURVE",
"352 1779 LINE"
);
}
);
width = 969;
}
);
leftKerningGroup = h;
rightKerningGroup = h;
unicode = 0068;
},
{
glyphname = hbar;
lastChange = "2013-01-02 06:18:50 -0800";
layers = (
{
components = (
{
name = h;
transform = "{1, 0, 0, 1, 0, 0}";
}
);
layerId = "7DA9E391-A28A-4B33-B824-B8724EAC872C";
name = "Regular Condensed";
paths = (
{
closed = 1;
nodes = (
"0 1692 LINE",
"0 1576 LINE",
"561 1576 LINE",
"561 1692 LINE"
);
}
);
width = 969;
}
);
unicode = 0127;
},
{
glyphname = i;
lastChange = "2013-01-02 06:18:44 -0800";
layers = (
{
layerId = "7DA9E391-A28A-4B33-B824-B8724EAC872C";
name = "Regular Condensed";
paths = (
{
closed = 1;
nodes = (
"150 1500 LINE",
"150 0 LINE",
"355 0 LINE",
"355 1500 LINE"
);
},
{
closed = 1;
nodes = (
"150 1800 LINE",
"150 1611 LINE",
"355 1611 LINE",
"355 1800 LINE"
);
}
);
width = 503;
}
);
leftKerningGroup = i;
rightKerningGroup = i;
unicode = 0069;
},
{
glyphname = dotlessi;
lastChange = "2013-01-02 06:18:44 -0800";
layers = (
{
anchors = (
{
name = ogonek;
position = "{431, 10}";
},
{
name = top;
position = "{245, 1500}";
}
);
layerId = "7DA9E391-A28A-4B33-B824-B8724EAC872C";
name = "Regular Condensed";
paths = (
{
closed = 1;
nodes = (
"149 1500 LINE",
"149 0 LINE",
"355 0 LINE",
"355 1500 LINE"
);
}
);
width = 504;
}
);
unicode = 0131;
},
{
glyphname = j;
lastChange = "2013-01-02 06:18:44 -0800";
layers = (
{
layerId = "7DA9E391-A28A-4B33-B824-B8724EAC872C";
name = "Regular Condensed";
paths = (
{
closed = 1;
nodes = (
"182 1500 LINE",
"182 10 LINE SMOOTH",
"182 -27 OFFCURVE",
"171 -53 OFFCURVE",
"132 -57 CURVE SMOOTH",
"109 -59 OFFCURVE",
"76 -56 OFFCURVE",
"74 -56 CURVE",
"74 -200 LINE",
"79 -203 OFFCURVE",
"148 -215 OFFCURVE",
"221 -209 CURVE SMOOTH",
"300 -205 OFFCURVE",
"387 -151 OFFCURVE",
"387 20 CURVE SMOOTH",
"387 1500 LINE"
);
},
{
closed = 1;
nodes = (
"180 1826 LINE",
"180 1618 LINE",
"386 1618 LINE",
"386 1826 LINE"
);
}
);
width = 533;
}
);
leftKerningGroup = j;
rightKerningGroup = j;
unicode = 006A;
},
{
glyphname = uni0237;
lastChange = "2013-01-02 06:18:44 -0800";
layers = (
{
anchors = (
{
name = top;
position = "{299, 1500}";
}
);
layerId = "7DA9E391-A28A-4B33-B824-B8724EAC872C";
name = "Regular Condensed";
paths = (
{
closed = 1;
nodes = (
"188 1500 LINE",
"188 60 LINE SMOOTH",
"188 23 OFFCURVE",
"177 -3 OFFCURVE",
"139 -7 CURVE SMOOTH",
"115 -9 OFFCURVE",
"82 -6 OFFCURVE",
"80 -6 CURVE",
"80 -150 LINE",
"85 -153 OFFCURVE",
"155 -166 OFFCURVE",
"227 -159 CURVE SMOOTH",
"307 -155 OFFCURVE",
"394 -101 OFFCURVE",
"394 70 CURVE SMOOTH",
"394 1500 LINE"
);
}
);
width = 540;
}
);
unicode = 0237;
},
{
glyphname = k;
lastChange = "2013-01-02 06:18:44 -0800";
layers = (
{
anchors = (
{
name = bottom;
position = "{433, 0}";
}
);
layerId = "7DA9E391-A28A-4B33-B824-B8724EAC872C";
name = "Regular Condensed";
paths = (
{
closed = 1;
nodes = (
"647 1500 LINE",
"340 758 LINE",
"660 0 LINE",
"871 0 LINE",
"538 759 LINE",
"854 1500 LINE"
);
},
{
closed = 1;
nodes = (
"147 1779 LINE",
"147 0 LINE",
"352 0 LINE",
"352 1779 LINE"
);
}
);
width = 866;
}
);
leftKerningGroup = k;
rightKerningGroup = k;
unicode = 006B;
},
{
glyphname = kgreenlandic;
lastChange = "2013-01-02 06:18:44 -0800";
layers = (
{
layerId = "7DA9E391-A28A-4B33-B824-B8724EAC872C";
name = "Regular Condensed";
paths = (
{
closed = 1;
nodes = (
"647 1500 LINE",
"340 758 LINE",
"660 0 LINE",
"871 0 LINE",
"538 759 LINE",
"854 1500 LINE"
);
},
{
closed = 1;
nodes = (
"147 1500 LINE",
"147 0 LINE",
"352 0 LINE",
"352 1500 LINE"
);
}
);
width = 866;
}
);
unicode = 0138;
},
{
glyphname = l;
lastChange = "2013-01-02 06:18:44 -0800";
layers = (
{
anchors = (
{
name = bottom;
position = "{250, 0}";
},
{
name = top;
position = "{250, 1760}";
},
{
name = topright;
position = "{486, 1500}";
}
);
layerId = "7DA9E391-A28A-4B33-B824-B8724EAC872C";
name = "Regular Condensed";
paths = (
{
closed = 1;
nodes = (
"148 1779 LINE",
"148 0 LINE",
"353 0 LINE",
"353 1779 LINE"
);
}
);
width = 501;
}
);
leftKerningGroup = l;
rightKerningGroup = l;
unicode = 006C;
},
{
glyphname = lslash;
lastChange = "2013-01-02 06:18:50 -0800";
layers = (
{
components = (
{
name = l;
transform = "{1, 0, 0, 1, 68, 0}";
}
);
layerId = "7DA9E391-A28A-4B33-B824-B8724EAC872C";
name = "Regular Condensed";
paths = (
{
closed = 1;
nodes = (
"75 921 LINE",
"75 754 LINE",
"601 986 LINE",
"601 1153 LINE"
);
}
);
width = 691;
}
);
unicode = 0142;
},
{
glyphname = m;
lastChange = "2013-01-02 06:18:44 -0800";
layers = (
{
anchors = (
{
name = top;
position = "{779, 1500}";
}
);
layerId = "7DA9E391-A28A-4B33-B824-B8724EAC872C";
name = "Regular Condensed";
paths = (
{
closed = 1;
nodes = (
"462 1519 OFFCURVE",
"379 1439 OFFCURVE",
"352 1344 CURVE",
"352 1500 LINE",
"147 1500 LINE",
"147 0 LINE",
"352 0 LINE",
"352 1168 LINE SMOOTH",
"352 1274 OFFCURVE",
"402 1342 OFFCURVE",
"500 1342 CURVE SMOOTH",
"575 1342 OFFCURVE",
"618 1297 OFFCURVE",
"618 1191 CURVE SMOOTH",
"618 0 LINE",
"824 0 LINE",
"824 1184 LINE SMOOTH",
"824 1423 OFFCURVE",
"729 1519 OFFCURVE",
"586 1519 CURVE SMOOTH"
);
},
{
closed = 1;
nodes = (
"930 1519 OFFCURVE",
"838 1452 OFFCURVE",
"791 1354 CURVE SMOOTH",
"823 1179 LINE",
"823 1306 OFFCURVE",
"888 1342 OFFCURVE",
"970 1342 CURVE SMOOTH",
"1042 1342 OFFCURVE",
"1090 1303 OFFCURVE",
"1090 1190 CURVE SMOOTH",
"1090 0 LINE",
"1295 0 LINE",
"1295 1184 LINE SMOOTH",
"1295 1405 OFFCURVE",
"1211 1519 OFFCURVE",
"1052 1519 CURVE SMOOTH"
);
}
);
width = 1432;
}
);
leftKerningGroup = m;
rightKerningGroup = m;
unicode = 006D;
},
{
glyphname = n;
lastChange = "2013-01-02 06:18:44 -0800";
layers = (
{
anchors = (
{
name = bottom;
position = "{485, 0}";
},
{
name = top;
position = "{485, 1500}";
}
);
layerId = "7DA9E391-A28A-4B33-B824-B8724EAC872C";
name = "Regular Condensed";
paths = (
{
closed = 1;
nodes = (
"473 1519 OFFCURVE",
"378 1434 OFFCURVE",
"352 1341 CURVE",
"352 1500 LINE",
"147 1500 LINE",
"147 0 LINE",
"352 0 LINE",
"352 1175 LINE SMOOTH",
"352 1295 OFFCURVE",
"417 1347 OFFCURVE",
"500 1347 CURVE SMOOTH",
"574 1347 OFFCURVE",
"628 1301 OFFCURVE",
"628 1195 CURVE SMOOTH",
"628 0 LINE",
"833 0 LINE",
"833 1196 LINE SMOOTH",
"833 1413 OFFCURVE",
"744 1519 OFFCURVE",
"594 1519 CURVE SMOOTH"
);
}
);
width = 970;
}
);
leftKerningGroup = n;
rightKerningGroup = n;
unicode = 006E;
},
{
glyphname = o;
lastChange = "2013-01-02 06:18:44 -0800";
layers = (
{
anchors = (
{
name = top;
position = "{457, 1500}";
}
);
layerId = "7DA9E391-A28A-4B33-B824-B8724EAC872C";
name = "Regular Condensed";
paths = (
{
closed = 1;
nodes = (
"187 1518 OFFCURVE",
"124 1309 OFFCURVE",
"124 1027 CURVE SMOOTH",
"124 496 LINE SMOOTH",
"124 185 OFFCURVE",
"176 -18 OFFCURVE",
"459 -18 CURVE SMOOTH",
"744 -18 OFFCURVE",
"790 190 OFFCURVE",
"790 496 CURVE SMOOTH",
"790 1027 LINE SMOOTH",
"790 1310 OFFCURVE",
"732 1518 OFFCURVE",
"459 1518 CURVE SMOOTH"
);
},
{
closed = 1;
nodes = (
"565 1347 OFFCURVE",
"584 1235 OFFCURVE",
"584 1068 CURVE SMOOTH",
"584 439 LINE SMOOTH",
"584 268 OFFCURVE",
"566 153 OFFCURVE",
"459 153 CURVE SMOOTH",
"346 153 OFFCURVE",
"330 268 OFFCURVE",
"330 439 CURVE SMOOTH",
"330 1068 LINE SMOOTH",
"330 1235 OFFCURVE",
"346 1347 OFFCURVE",
"459 1347 CURVE SMOOTH"
);
}
);
width = 914;
}
);
leftKerningGroup = o;
rightKerningGroup = o;
unicode = 006F;
},
{
glyphname = oslash;
lastChange = "2013-01-02 06:18:50 -0800";
layers = (
{
anchors = (
{
name = top;
position = "{443, 1500}";
}
);
components = (
{
name = o;
transform = "{1, 0, 0, 1, 0, 0}";
}
);
layerId = "7DA9E391-A28A-4B33-B824-B8724EAC872C";
name = "Regular Condensed";
paths = (
{
closed = 1;
nodes = (
"158 -145 LINE",
"258 -173 LINE",
"768 1644 LINE",
"667 1672 LINE"
);
}
);
width = 879;
}
);
unicode = 00F8;
},
{
glyphname = oe;
lastChange = "2013-01-02 06:18:53 -0800";
layers = (
{
anchors = (
{
name = top;
position = "{757, 0}";
}
);
layerId = "7DA9E391-A28A-4B33-B824-B8724EAC872C";
name = "Regular Condensed";
paths = (
{
closed = 1;
nodes = (
"810 1518 OFFCURVE",
"735 1472 OFFCURVE",
"684 1403 CURVE",
"633 1472 OFFCURVE",
"559 1518 OFFCURVE",
"453 1518 CURVE SMOOTH",
"181 1518 OFFCURVE",
"115 1309 OFFCURVE",
"115 1027 CURVE SMOOTH",
"115 497 LINE SMOOTH",
"115 186 OFFCURVE",
"170 -18 OFFCURVE",
"453 -18 CURVE SMOOTH",
"557 -18 OFFCURVE",
"630 28 OFFCURVE",
"680 96 CURVE",
"729 27 OFFCURVE",
"801 -18 OFFCURVE",
"910 -18 CURVE SMOOTH",
"1202 -18 OFFCURVE",
"1231 190 OFFCURVE",
"1231 502 CURVE SMOOTH",
"1231 562 LINE",
"1028 562 LINE",
"1029 561 OFFCURVE",
"1029 463 OFFCURVE",
"1029 451 CURVE SMOOTH",
"1029 276 OFFCURVE",
"1024 153 OFFCURVE",
"912 153 CURVE SMOOTH",
"795 153 OFFCURVE",
"785 254 OFFCURVE",
"785 444 CURVE SMOOTH",
"785 740 LINE",
"1233 740 LINE",
"1234 750 OFFCURVE",
"1234 1026 OFFCURVE",
"1234 1026 CURVE SMOOTH",
"1234 1315 OFFCURVE",
"1192 1518 OFFCURVE",
"918 1518 CURVE SMOOTH"
);
},
{
closed = 1;
nodes = (
"559 1347 OFFCURVE",
"579 1235 OFFCURVE",
"579 1068 CURVE SMOOTH",
"579 439 LINE SMOOTH",
"579 268 OFFCURVE",
"560 153 OFFCURVE",
"453 153 CURVE SMOOTH",
"340 153 OFFCURVE",
"322 268 OFFCURVE",
"322 439 CURVE SMOOTH",
"322 1068 LINE SMOOTH",
"322 1235 OFFCURVE",
"340 1347 OFFCURVE",
"453 1347 CURVE SMOOTH"
);
},
{
closed = 1;
nodes = (
"1024 1349 OFFCURVE",
"1029 1252 OFFCURVE",
"1029 1073 CURVE SMOOTH",
"1029 889 LINE",
"786 889 LINE",
"786 1061 LINE SMOOTH",
"786 1228 OFFCURVE",
"799 1349 OFFCURVE",
"918 1349 CURVE SMOOTH"
);
}
);
width = 1689;
}
);
unicode = 0153;
},
{
glyphname = p;
lastChange = "2013-01-02 06:18:44 -0800";
layers = (
{
anchors = (
{
name = top;
position = "{477, 1500}";
}
);
layerId = "7DA9E391-A28A-4B33-B824-B8724EAC872C";
name = "Regular Condensed";
paths = (
{
closed = 1;
nodes = (
"479 1513 OFFCURVE",
"392 1473 OFFCURVE",
"352 1375 CURVE",
"352 1500 LINE",
"147 1500 LINE",
"147 -274 LINE",
"352 -274 LINE",
"352 100 LINE",
"384 37 OFFCURVE",
"450 -18 OFFCURVE",
"527 -18 CURVE SMOOTH",
"770 -18 OFFCURVE",
"815 203 OFFCURVE",
"815 487 CURVE SMOOTH",
"815 1030 LINE SMOOTH",
"815 1305 OFFCURVE",
"776 1513 OFFCURVE",
"560 1513 CURVE SMOOTH"
);
},
{
closed = 1;
nodes = (
"598 1346 OFFCURVE",
"609 1231 OFFCURVE",
"609 1066 CURVE SMOOTH",
"609 459 LINE SMOOTH",
"609 250 OFFCURVE",
"586 155 OFFCURVE",
"487 154 CURVE SMOOTH",
"375 154 OFFCURVE",
"352 252 OFFCURVE",
"352 451 CURVE SMOOTH",
"352 1066 LINE SMOOTH",
"352 1306 OFFCURVE",
"405 1346 OFFCURVE",
"491 1346 CURVE SMOOTH"
);
}
);
width = 938;
}
);
leftKerningGroup = p;
rightKerningGroup = p;
unicode = 0070;
},
{
glyphname = thorn;
lastChange = "2013-01-02 06:18:44 -0800";
layers = (
{
layerId = "7DA9E391-A28A-4B33-B824-B8724EAC872C";
name = "Regular Condensed";
paths = (
{
closed = 1;
nodes = (
"147 1779 LINE",
"147 -274 LINE",
"353 -274 LINE",
"353 100 LINE",
"385 37 OFFCURVE",
"450 -18 OFFCURVE",
"526 -18 CURVE SMOOTH",
"769 -18 OFFCURVE",
"814 203 OFFCURVE",
"814 487 CURVE SMOOTH",
"814 1030 LINE SMOOTH",
"814 1305 OFFCURVE",
"776 1513 OFFCURVE",
"559 1513 CURVE SMOOTH",
"478 1513 OFFCURVE",
"393 1473 OFFCURVE",
"353 1375 CURVE",
"353 1779 LINE"
);
},
{
closed = 1;
nodes = (
"598 1345 OFFCURVE",
"608 1230 OFFCURVE",
"608 1065 CURVE SMOOTH",
"608 460 LINE SMOOTH",
"608 250 OFFCURVE",
"587 156 OFFCURVE",
"487 155 CURVE SMOOTH",
"375 155 OFFCURVE",
"353 253 OFFCURVE",
"353 452 CURVE SMOOTH",
"353 1065 LINE SMOOTH",
"353 1305 OFFCURVE",
"405 1345 OFFCURVE",
"492 1345 CURVE SMOOTH"
);
}
);
width = 939;
}
);
unicode = 00FE;
},
{
glyphname = q;
lastChange = "2013-01-02 06:18:44 -0800";
layers = (
{
layerId = "7DA9E391-A28A-4B33-B824-B8724EAC872C";
name = "Regular Condensed";
paths = (
{
closed = 1;
nodes = (
"168 1513 OFFCURVE",
"124 1304 OFFCURVE",
"124 1030 CURVE SMOOTH",
"124 480 LINE SMOOTH",
"124 196 OFFCURVE",
"175 -18 OFFCURVE",
"412 -18 CURVE SMOOTH",
"489 -18 OFFCURVE",
"557 38 OFFCURVE",
"585 104 CURVE",
"585 -274 LINE",
"790 -274 LINE",
"790 1500 LINE",
"585 1500 LINE",
"585 1383 LINE",
"544 1478 OFFCURVE",
"461 1513 OFFCURVE",
"380 1513 CURVE SMOOTH"
);
},
{
closed = 1;
nodes = (
"558 1346 OFFCURVE",
"584 1252 OFFCURVE",
"584 1050 CURVE SMOOTH",
"584 435 LINE SMOOTH",
"584 198 OFFCURVE",
"535 154 OFFCURVE",
"445 154 CURVE SMOOTH",
"338 154 OFFCURVE",
"329 269 OFFCURVE",
"329 437 CURVE SMOOTH",
"329 1044 LINE SMOOTH",
"329 1251 OFFCURVE",
"349 1345 OFFCURVE",
"450 1346 CURVE SMOOTH"
);
}
);
width = 931;
}
);
unicode = 0071;
},
{
glyphname = r;
lastChange = "2013-01-02 06:18:44 -0800";
layers = (
{
anchors = (
{
name = bottom;
position = "{288, 0}";
},
{
name = top;
position = "{362, 1500}";
}
);
layerId = "7DA9E391-A28A-4B33-B824-B8724EAC872C";
name = "Regular Condensed";
paths = (
{
closed = 1;
nodes = (
"475 1518 OFFCURVE",
"387 1449 OFFCURVE",
"353 1333 CURVE",
"353 1500 LINE",
"147 1500 LINE",
"147 0 LINE",
"353 0 LINE",
"353 1219 LINE",
"412 1313 OFFCURVE",
"515 1344 OFFCURVE",
"611 1344 CURVE",
"611 1344 OFFCURVE",
"613 1518 OFFCURVE",
"608 1518 CURVE SMOOTH"
);
}
);
width = 651;
}
);
leftKerningGroup = r;
rightKerningGroup = r;
unicode = 0072;
},
{
glyphname = s;
lastChange = "2013-01-02 06:18:44 -0800";
layers = (
{
anchors = (
{
name = bottom;
position = "{403, 0}";
},
{
name = top;
position = "{424, 1500}";
}
);
layerId = "7DA9E391-A28A-4B33-B824-B8724EAC872C";
name = "Regular Condensed";
paths = (
{
closed = 1;
nodes = (
"209 1518 OFFCURVE",
"88 1407 OFFCURVE",
"88 1165 CURVE SMOOTH",
"88 1012 OFFCURVE",
"156 875 OFFCURVE",
"283 754 CURVE SMOOTH",
"316 722 OFFCURVE",
"375 668 OFFCURVE",
"389 653 CURVE SMOOTH",
"491 553 OFFCURVE",
"539 449 OFFCURVE",
"539 343 CURVE SMOOTH",
"539 202 OFFCURVE",
"501 155 OFFCURVE",
"417 155 CURVE SMOOTH",
"333 155 OFFCURVE",
"299 247 OFFCURVE",
"299 415 CURVE SMOOTH",
"299 527 LINE",
"100 527 LINE",
"100 414 LINE SMOOTH",
"100 103 OFFCURVE",
"213 -20 OFFCURVE",
"426 -20 CURVE SMOOTH",
"645 -20 OFFCURVE",
"745 117 OFFCURVE",
"745 344 CURVE SMOOTH",
"745 509 OFFCURVE",
"671 656 OFFCURVE",
"533 788 CURVE SMOOTH",
"425 889 LINE SMOOTH",
"329 984 OFFCURVE",
"286 1081 OFFCURVE",
"288 1177 CURVE SMOOTH",
"292 1302 OFFCURVE",
"331 1342 OFFCURVE",
"413 1342 CURVE SMOOTH",
"497 1342 OFFCURVE",
"525 1250 OFFCURVE",
"525 1082 CURVE SMOOTH",
"525 978 LINE",
"720 978 LINE",
"720 1050 LINE SMOOTH",
"720 1401 OFFCURVE",
"613 1518 OFFCURVE",
"411 1518 CURVE SMOOTH"
);
}
);
width = 805;
}
);
leftKerningGroup = s;
rightKerningGroup = s;
unicode = 0073;
},
{
glyphname = germandbls;
lastChange = "2013-01-02 06:18:44 -0800";
layers = (
{
layerId = "7DA9E391-A28A-4B33-B824-B8724EAC872C";
name = "Regular Condensed";
paths = (
{
closed = 1;
nodes = (
"191 1781 OFFCURVE",
"144 1660 OFFCURVE",
"144 1417 CURVE SMOOTH",
"144 0 LINE",
"348 0 LINE",
"348 1470 LINE SMOOTH",
"348 1590 OFFCURVE",
"387 1627 OFFCURVE",
"484 1627 CURVE SMOOTH",
"596 1627 OFFCURVE",
"631 1590 OFFCURVE",
"631 1470 CURVE SMOOTH",
"631 1170 LINE SMOOTH",
"631 1058 OFFCURVE",
"589 1019 OFFCURVE",
"459 1019 CURVE",
"459 851 LINE",
"636 851 OFFCURVE",
"689 806 OFFCURVE",
"689 656 CURVE SMOOTH",
"689 395 LINE SMOOTH",
"689 199 OFFCURVE",
"653 168 OFFCURVE",
"450 168 CURVE",
"450 0 LINE",
"554 0 LINE SMOOTH",
"854 0 OFFCURVE",
"891 177 OFFCURVE",
"891 476 CURVE SMOOTH",
"891 553 LINE SMOOTH",
"891 801 OFFCURVE",
"840 904 OFFCURVE",
"668 945 CURVE",
"792 986 OFFCURVE",
"831 1056 OFFCURVE",
"831 1220 CURVE SMOOTH",
"831 1417 LINE SMOOTH",
"831 1694 OFFCURVE",
"740 1781 OFFCURVE",
"474 1781 CURVE SMOOTH"
);
}
);
width = 981;
}
);
unicode = 00DF;
},
{
glyphname = t;
lastChange = "2013-01-02 06:18:44 -0800";
layers = (
{
anchors = (
{
name = bottom;
position = "{385, 0}";
},
{
name = center;
position = "{306, 0}";
},
{
name = top;
position = "{281, 1760}";
}
);
layerId = "7DA9E391-A28A-4B33-B824-B8724EAC872C";
name = "Regular Condensed";
paths = (
{
closed = 1;
nodes = (
"183 1760 LINE",
"183 1488 LINE",
"46 1488 LINE",
"46 1336 LINE",
"183 1336 LINE",
"183 223 LINE SMOOTH",
"183 54 OFFCURVE",
"218 -9 OFFCURVE",
"411 -9 CURVE SMOOTH",
"552 -9 LINE",
"552 154 LINE",
"404 154 OFFCURVE",
"388 165 OFFCURVE",
"388 241 CURVE SMOOTH",
"388 1336 LINE",
"550 1336 LINE",
"550 1488 LINE",
"388 1488 LINE",
"388 1760 LINE"
);
}
);
width = 612;
}
);
leftKerningGroup = t;
rightKerningGroup = t;
unicode = 0074;
},
{
glyphname = u;
lastChange = "2013-01-02 06:18:44 -0800";
layers = (
{
anchors = (
{
name = ogonek;
position = "{871, 10}";
},
{
name = top;
position = "{499, 1500}";
}
);
layerId = "7DA9E391-A28A-4B33-B824-B8724EAC872C";
name = "Regular Condensed";
paths = (
{
closed = 1;
nodes = (
"616 1500 LINE",
"616 340 LINE SMOOTH",
"616 235 OFFCURVE",
"570 158 OFFCURVE",
"471 158 CURVE SMOOTH",
"382 158 OFFCURVE",
"342 219 OFFCURVE",
"342 335 CURVE SMOOTH",
"342 1500 LINE",
"137 1500 LINE",
"137 312 LINE SMOOTH",
"137 73 OFFCURVE",
"254 -20 OFFCURVE",
"388 -20 CURVE SMOOTH",
"510 -20 OFFCURVE",
"586 59 OFFCURVE",
"616 153 CURVE",
"616 0 LINE",
"822 0 LINE",
"822 1500 LINE"
);
}
);
width = 968;
}
);
leftKerningGroup = u;
rightKerningGroup = u;
unicode = 0075;
},
{
glyphname = v;
lastChange = "2013-01-02 06:18:44 -0800";
layers = (
{
layerId = "7DA9E391-A28A-4B33-B824-B8724EAC872C";
name = "Regular Condensed";
paths = (
{
closed = 1;
nodes = (
"521 1500 LINE",
"424 656 LINE",
"395 320 LINE",
"376 320 LINE",
"341 655 LINE",
"233 1500 LINE",
"42 1500 LINE",
"255 0 LINE",
"496 0 LINE",
"711 1500 LINE"
);
}
);
width = 753;
}
);
unicode = 0076;
},
{
glyphname = w;
lastChange = "2013-01-08 06:04:27 -0800";
layers = (
{
anchors = (
{
name = top;
position = "{587, 1500}";
}
);
layerId = "7DA9E391-A28A-4B33-B824-B8724EAC872C";
name = "Regular Condensed";
paths = (
{
closed = 1;
nodes = (
"491 1500 LINE",
"372 666 LINE",
"334 378 LINE",
"325 378 LINE",
"302 665 LINE",
"223 1500 LINE",
"51 1500 LINE",
"226 0 LINE",
"407 0 LINE",
"637 1500 LINE"
);
},
{
closed = 1;
nodes = (
"940 1500 LINE",
"862 689 LINE",
"838 378 LINE",
"830 378 LINE",
"789 688 LINE",
"670 1500 LINE",
"545 1500 LINE",
"738 0 LINE",
"927 0 LINE",
"1108 1500 LINE"
);
}
);
width = 1160;
}
);
leftKerningGroup = w;
rightKerningGroup = w;
unicode = 0077;
},
{
glyphname = x;
lastChange = "2013-01-02 06:18:44 -0800";
layers = (
{
layerId = "7DA9E391-A28A-4B33-B824-B8724EAC872C";
name = "Regular Condensed";
paths = (
{
closed = 1;
nodes = (
"522 1500 LINE",
"313 787 LINE",
"282 787 LINE",
"26 0 LINE",
"212 0 LINE",
"428 731 LINE",
"454 731 LINE",
"708 1500 LINE"
);
},
{
closed = 1;
nodes = (
"43 1500 LINE",
"527 0 LINE",
"718 0 LINE",
"224 1500 LINE"
);
}
);
width = 743;
}
);
unicode = 0078;
},
{
glyphname = y;
lastChange = "2013-01-02 06:18:44 -0800";
layers = (
{
anchors = (
{
name = top;
position = "{403, 1500}";
}
);
layerId = "7DA9E391-A28A-4B33-B824-B8724EAC872C";
name = "Regular Condensed";
paths = (
{
closed = 1;
nodes = (
"558 1500 LINE",
"460 720 LINE",
"421 314 LINE",
"403 314 LINE",
"359 720 LINE",
"251 1500 LINE",
"52 1500 LINE",
"297 53 LINE SMOOTH",
"305 0 OFFCURVE",
"312 -51 OFFCURVE",
"296 -72 CURVE SMOOTH",
"287 -92 OFFCURVE",
"238 -96 OFFCURVE",
"180 -96 CURVE SMOOTH",
"109 -96 LINE",
"109 -251 LINE",
"310 -251 LINE SMOOTH",
"457 -251 OFFCURVE",
"482 -192 OFFCURVE",
"507 -29 CURVE SMOOTH",
"756 1500 LINE"
);
}
);
width = 791;
}
);
leftKerningGroup = y;
rightKerningGroup = y;
unicode = 0079;
},
{
glyphname = z;
lastChange = "2013-01-02 06:18:44 -0800";
layers = (
{
anchors = (
{
name = top;
position = "{387, 1500}";
}
);
layerId = "7DA9E391-A28A-4B33-B824-B8724EAC872C";
name = "Regular Condensed";
paths = (
{
closed = 1;
nodes = (
"101 1500 LINE",
"101 1323 LINE",
"406 1323 LINE",
"76 153 LINE",
"76 0 LINE",
"601 0 LINE",
"601 175 LINE",
"287 175 LINE",
"618 1359 LINE",
"618 1500 LINE"
);
}
);
width = 680;
}
);
leftKerningGroup = z;
rightKerningGroup = z;
unicode = 007A;
},
{
glyphname = uniFB01;
lastChange = "2013-01-02 06:18:44 -0800";
layers = (
{
layerId = "7DA9E391-A28A-4B33-B824-B8724EAC872C";
name = "Regular Condensed";
paths = (
{
closed = 1;
nodes = (
"271 1806 OFFCURVE",
"200 1708 OFFCURVE",
"200 1535 CURVE SMOOTH",
"200 1500 LINE",
"71 1500 LINE",
"71 1349 LINE",
"200 1349 LINE",
"200 0 LINE",
"405 0 LINE",
"405 1349 LINE",
"773 1349 LINE",
"773 0 LINE",
"978 0 LINE",
"978 1500 LINE",
"405 1500 LINE",
"405 1543 LINE SMOOTH",
"405 1608 OFFCURVE",
"420 1648 OFFCURVE",
"510 1648 CURVE SMOOTH",
"530 1648 OFFCURVE",
"554 1646 OFFCURVE",
"581 1642 CURVE",
"581 1785 LINE",
"575 1787 OFFCURVE",
"511 1806 OFFCURVE",
"432 1806 CURVE SMOOTH"
);
},
{
closed = 1;
nodes = (
"773 1800 LINE",
"773 1611 LINE",
"978 1611 LINE",
"978 1800 LINE"
);
}
);
width = 1126;
}
);
unicode = FB01;
},
{
glyphname = uniFB02;
lastChange = "2013-01-02 06:18:44 -0800";
layers = (
{
layerId = "7DA9E391-A28A-4B33-B824-B8724EAC872C";
name = "Regular Condensed";
paths = (
{
closed = 1;
nodes = (
"349 1796 OFFCURVE",
"200 1716 OFFCURVE",
"200 1515 CURVE SMOOTH",
"200 1442 LINE",
"71 1442 LINE",
"71 1291 LINE",
"200 1291 LINE",
"200 0 LINE",
"405 0 LINE",
"405 1291 LINE",
"581 1291 LINE",
"581 1442 LINE",
"405 1442 LINE",
"405 1523 LINE SMOOTH",
"405 1603 OFFCURVE",
"474 1642 OFFCURVE",
"594 1642 CURVE SMOOTH",
"645 1642 OFFCURVE",
"704 1636 OFFCURVE",
"771 1622 CURVE",
"771 0 LINE",
"976 0 LINE",
"976 1725 LINE",
"680 1788 OFFCURVE",
"628 1796 OFFCURVE",
"543 1796 CURVE SMOOTH"
);
}
);
width = 1124;
}
);
unicode = FB02;
},
{
glyphname = uniFB00;
lastChange = "2013-01-02 06:18:44 -0800";
layers = (
{
layerId = "7DA9E391-A28A-4B33-B824-B8724EAC872C";
name = "Regular Condensed";
paths = (
{
closed = 1;
nodes = (
"894 1786 OFFCURVE",
"823 1688 OFFCURVE",
"823 1515 CURVE SMOOTH",
"823 1442 LINE",
"405 1442 LINE",
"405 1523 LINE SMOOTH",
"405 1588 OFFCURVE",
"420 1628 OFFCURVE",
"510 1628 CURVE SMOOTH",
"530 1628 OFFCURVE",
"554 1626 OFFCURVE",
"581 1622 CURVE",
"581 1765 LINE",
"575 1767 OFFCURVE",
"511 1786 OFFCURVE",
"432 1786 CURVE SMOOTH",
"271 1786 OFFCURVE",
"200 1688 OFFCURVE",
"200 1515 CURVE SMOOTH",
"200 1442 LINE",
"71 1442 LINE",
"71 1291 LINE",
"200 1291 LINE",
"200 0 LINE",
"405 0 LINE",
"405 1291 LINE",
"823 1291 LINE",
"823 0 LINE",
"1028 0 LINE",
"1028 1291 LINE",
"1204 1291 LINE",
"1204 1442 LINE",
"1028 1442 LINE",
"1028 1523 LINE SMOOTH",
"1028 1588 OFFCURVE",
"1043 1628 OFFCURVE",
"1133 1628 CURVE SMOOTH",
"1153 1628 OFFCURVE",
"1177 1626 OFFCURVE",
"1204 1622 CURVE",
"1204 1765 LINE",
"1198 1767 OFFCURVE",
"1134 1786 OFFCURVE",
"1055 1786 CURVE SMOOTH"
);
}
);
width = 1246;
}
);
},
{
glyphname = uniFB03;
lastChange = "2013-01-02 06:18:44 -0800";
layers = (
{
layerId = "7DA9E391-A28A-4B33-B824-B8724EAC872C";
name = "Regular Condensed";
paths = (
{
closed = 1;
nodes = (
"894 1818 OFFCURVE",
"823 1720 OFFCURVE",
"823 1547 CURVE SMOOTH",
"823 1500 LINE",
"405 1500 LINE",
"405 1555 LINE SMOOTH",
"405 1620 OFFCURVE",
"420 1660 OFFCURVE",
"510 1660 CURVE SMOOTH",
"530 1660 OFFCURVE",
"554 1658 OFFCURVE",
"581 1654 CURVE",
"581 1797 LINE",
"575 1799 OFFCURVE",
"511 1818 OFFCURVE",
"432 1818 CURVE SMOOTH",
"271 1818 OFFCURVE",
"200 1720 OFFCURVE",
"200 1547 CURVE SMOOTH",
"200 1500 LINE",
"71 1500 LINE",
"71 1349 LINE",
"200 1349 LINE",
"200 0 LINE",
"405 0 LINE",
"405 1349 LINE",
"823 1349 LINE",
"823 0 LINE",
"1028 0 LINE",
"1028 1349 LINE",
"1396 1349 LINE",
"1396 0 LINE",
"1601 0 LINE",
"1601 1500 LINE",
"1028 1500 LINE",
"1028 1555 LINE SMOOTH",
"1028 1620 OFFCURVE",
"1043 1660 OFFCURVE",
"1133 1660 CURVE SMOOTH",
"1153 1660 OFFCURVE",
"1177 1658 OFFCURVE",
"1204 1654 CURVE",
"1204 1797 LINE",
"1198 1799 OFFCURVE",
"1134 1818 OFFCURVE",
"1055 1818 CURVE SMOOTH"
);
},
{
closed = 1;
nodes = (
"1396 1800 LINE",
"1396 1611 LINE",
"1601 1611 LINE",
"1601 1800 LINE"
);
}
);
width = 1749;
}
);
},
{
glyphname = uniFB04;
lastChange = "2013-01-02 06:18:44 -0800";
layers = (
{
layerId = "7DA9E391-A28A-4B33-B824-B8724EAC872C";
name = "Regular Condensed";
paths = (
{
closed = 1;
nodes = (
"972 1796 OFFCURVE",
"823 1716 OFFCURVE",
"823 1515 CURVE SMOOTH",
"823 1442 LINE",
"405 1442 LINE",
"405 1523 LINE SMOOTH",
"405 1588 OFFCURVE",
"420 1628 OFFCURVE",
"510 1628 CURVE SMOOTH",
"530 1628 OFFCURVE",
"554 1626 OFFCURVE",
"581 1622 CURVE",
"581 1765 LINE",
"575 1767 OFFCURVE",
"511 1786 OFFCURVE",
"432 1786 CURVE SMOOTH",
"271 1786 OFFCURVE",
"200 1688 OFFCURVE",
"200 1515 CURVE SMOOTH",
"200 1442 LINE",
"71 1442 LINE",
"71 1291 LINE",
"200 1291 LINE",
"200 0 LINE",
"405 0 LINE",
"405 1291 LINE",
"823 1291 LINE",
"823 0 LINE",
"1028 0 LINE",
"1028 1291 LINE",
"1204 1291 LINE",
"1204 1442 LINE",
"1028 1442 LINE",
"1028 1523 LINE SMOOTH",
"1028 1603 OFFCURVE",
"1097 1642 OFFCURVE",
"1217 1642 CURVE SMOOTH",
"1268 1642 OFFCURVE",
"1327 1636 OFFCURVE",
"1394 1622 CURVE",
"1394 0 LINE",
"1599 0 LINE",
"1599 1725 LINE",
"1303 1788 OFFCURVE",
"1251 1796 OFFCURVE",
"1166 1796 CURVE SMOOTH"
);
}
);
width = 1747;
}
);
},
{
glyphname = Delta;
lastChange = "2013-01-02 06:18:50 -0800";
layers = (
{
layerId = "7DA9E391-A28A-4B33-B824-B8724EAC872C";
name = "Regular Condensed";
paths = (
{
closed = 1;
nodes = (
"333 1760 LINE",
"66 0 LINE",
"873 0 LINE",
"582 1760 LINE"
);
},
{
closed = 1;
nodes = (
"653 168 LINE",
"286 168 LINE",
"460 1434 LINE",
"463 1434 LINE"
);
}
);
width = 939;
}
);
unicode = 0394;
},
{
glyphname = mu;
lastChange = "2013-01-02 06:18:44 -0800";
layers = (
{
layerId = "7DA9E391-A28A-4B33-B824-B8724EAC872C";
name = "Regular Condensed";
paths = (
{
closed = 1;
nodes = (
"616 1500 LINE",
"616 340 LINE SMOOTH",
"616 235 OFFCURVE",
"570 158 OFFCURVE",
"471 158 CURVE SMOOTH",
"382 158 OFFCURVE",
"342 219 OFFCURVE",
"342 335 CURVE SMOOTH",
"342 1500 LINE",
"137 1500 LINE",
"137 -186 LINE",
"338 -186 LINE",
"338 -15 LINE",
"354 -19 OFFCURVE",
"371 -20 OFFCURVE",
"388 -20 CURVE SMOOTH",
"510 -20 OFFCURVE",
"586 59 OFFCURVE",
"616 153 CURVE",
"616 0 LINE",
"822 0 LINE",
"822 1500 LINE"
);
}
);
width = 971;
}
);
unicode = 03BC;
},
{
glyphname = ordfeminine;
lastChange = "2013-01-02 06:18:53 -0800";
layers = (
{
layerId = "7DA9E391-A28A-4B33-B824-B8724EAC872C";
name = "Regular Condensed";
paths = (
{
closed = 1;
nodes = (
"251 1608 OFFCURVE",
"216 1450 OFFCURVE",
"216 1246 CURVE SMOOTH",
"216 1211 LINE",
"379 1211 LINE",
"379 1255 LINE SMOOTH",
"379 1409 OFFCURVE",
"392 1471 OFFCURVE",
"477 1471 CURVE SMOOTH",
"570 1471 OFFCURVE",
"569 1386 OFFCURVE",
"569 1231 CURVE SMOOTH",
"569 1163 LINE",
"354 1076 OFFCURVE",
"201 1030 OFFCURVE",
"201 818 CURVE SMOOTH",
"201 700 LINE SMOOTH",
"202 501 OFFCURVE",
"261 382 OFFCURVE",
"406 382 CURVE SMOOTH",
"500 382 OFFCURVE",
"558 451 OFFCURVE",
"570 493 CURVE",
"570 393 LINE",
"734 393 LINE",
"734 1210 LINE SMOOTH",
"734 1467 OFFCURVE",
"697 1608 OFFCURVE",
"480 1608 CURVE SMOOTH"
);
},
{
closed = 1;
nodes = (
"569 598 LINE",
"555 562 OFFCURVE",
"511 515 OFFCURVE",
"453 515 CURVE SMOOTH",
"385 515 OFFCURVE",
"366 569 OFFCURVE",
"366 706 CURVE SMOOTH",
"366 814 LINE SMOOTH",
"366 952 OFFCURVE",
"403 977 OFFCURVE",
"569 1051 CURVE"
);
}
);
width = 927;
}
);
unicode = 00AA;
},
{
glyphname = ordmasculine;
lastChange = "2013-01-02 06:18:44 -0800";
layers = (
{
layerId = "7DA9E391-A28A-4B33-B824-B8724EAC872C";
name = "Regular Condensed";
paths = (
{
closed = 1;
nodes = (
"249 1607 OFFCURVE",
"200 1438 OFFCURVE",
"200 1213 CURVE SMOOTH",
"200 789 LINE SMOOTH",
"200 540 OFFCURVE",
"244 377 OFFCURVE",
"471 377 CURVE SMOOTH",
"699 377 OFFCURVE",
"737 545 OFFCURVE",
"737 789 CURVE SMOOTH",
"737 1213 LINE SMOOTH",
"737 1440 OFFCURVE",
"695 1607 OFFCURVE",
"471 1607 CURVE SMOOTH"
);
},
{
closed = 1;
nodes = (
"556 1470 OFFCURVE",
"571 1380 OFFCURVE",
"571 1246 CURVE SMOOTH",
"571 743 LINE SMOOTH",
"571 604 OFFCURVE",
"553 513 OFFCURVE",
"471 514 CURVE SMOOTH",
"382 514 OFFCURVE",
"366 605 OFFCURVE",
"366 743 CURVE SMOOTH",
"366 1246 LINE SMOOTH",
"366 1380 OFFCURVE",
"380 1470 OFFCURVE",
"471 1470 CURVE SMOOTH"
);
}
);
width = 908;
}
);
unicode = 00BA;
},
{
glyphname = zero;
lastChange = "2013-01-02 06:18:44 -0800";
layers = (
{
layerId = "7DA9E391-A28A-4B33-B824-B8724EAC872C";
name = "Regular Condensed";
paths = (
{
closed = 1;
nodes = (
"173 1781 OFFCURVE",
"101 1619 OFFCURVE",
"101 1316 CURVE SMOOTH",
"101 475 LINE SMOOTH",
"101 162 OFFCURVE",
"167 -21 OFFCURVE",
"455 -21 CURVE SMOOTH",
"743 -21 OFFCURVE",
"811 162 OFFCURVE",
"811 475 CURVE SMOOTH",
"811 1316 LINE SMOOTH",
"811 1619 OFFCURVE",
"737 1781 OFFCURVE",
"455 1781 CURVE SMOOTH"
);
},
{
closed = 1;
nodes = (
"523 1605 OFFCURVE",
"605 1594 OFFCURVE",
"605 1327 CURVE SMOOTH",
"605 470 LINE SMOOTH",
"605 168 OFFCURVE",
"530 154 OFFCURVE",
"453 154 CURVE SMOOTH",
"371 154 OFFCURVE",
"307 167 OFFCURVE",
"307 470 CURVE SMOOTH",
"307 1328 LINE SMOOTH",
"307 1596 OFFCURVE",
"385 1605 OFFCURVE",
"453 1605 CURVE SMOOTH"
);
}
);
width = 915;
}
);
unicode = 0030;
},
{
glyphname = one;
lastChange = "2013-01-02 06:18:44 -0800";
layers = (
{
layerId = "7DA9E391-A28A-4B33-B824-B8724EAC872C";
name = "Regular Condensed";
paths = (
{
closed = 1;
nodes = (
"325 1761 LINE",
"269 1629 OFFCURVE",
"153 1556 OFFCURVE",
"47 1541 CURVE",
"47 1397 LINE",
"121 1397 OFFCURVE",
"217 1426 OFFCURVE",
"265 1483 CURVE",
"265 0 LINE",
"471 0 LINE",
"471 1761 LINE"
);
}
);
width = 645;
}
);
unicode = 0031;
},
{
glyphname = two;
lastChange = "2013-01-02 06:18:44 -0800";
layers = (
{
layerId = "7DA9E391-A28A-4B33-B824-B8724EAC872C";
name = "Regular Condensed";
paths = (
{
closed = 1;
nodes = (
"190 1780 OFFCURVE",
"162 1553 OFFCURVE",
"162 1173 CURVE SMOOTH",
"162 1065 LINE",
"364 1065 LINE",
"364 1294 LINE SMOOTH",
"364 1562 OFFCURVE",
"418 1604 OFFCURVE",
"482 1604 CURVE SMOOTH",
"544 1604 OFFCURVE",
"590 1554 OFFCURVE",
"590 1310 CURVE SMOOTH",
"590 1188 OFFCURVE",
"560 1035 OFFCURVE",
"516 952 CURVE SMOOTH",
"495 922 OFFCURVE",
"381 696 OFFCURVE",
"374 685 CURVE SMOOTH",
"261 466 OFFCURVE",
"174 249 OFFCURVE",
"174 98 CURVE SMOOTH",
"174 0 LINE",
"759 0 LINE",
"759 155 LINE",
"374 155 LINE",
"446 600 OFFCURVE",
"786 823 OFFCURVE",
"786 1293 CURVE SMOOTH",
"786 1536 OFFCURVE",
"730 1780 OFFCURVE",
"497 1780 CURVE SMOOTH"
);
}
);
width = 892;
}
);
unicode = 0032;
},
{
glyphname = three;
lastChange = "2013-01-02 06:18:44 -0800";
layers = (
{
layerId = "7DA9E391-A28A-4B33-B824-B8724EAC872C";
name = "Regular Condensed";
paths = (
{
closed = 1;
nodes = (
"205 1780 OFFCURVE",
"118 1626 OFFCURVE",
"118 1319 CURVE SMOOTH",
"118 1274 LINE",
"321 1274 LINE",
"321 1316 LINE SMOOTH",
"321 1542 OFFCURVE",
"365 1604 OFFCURVE",
"454 1604 CURVE SMOOTH",
"539 1604 OFFCURVE",
"599 1558 OFFCURVE",
"599 1319 CURVE SMOOTH",
"599 1062 OFFCURVE",
"548 1006 OFFCURVE",
"410 1006 CURVE SMOOTH",
"355 1006 LINE",
"355 841 LINE",
"412 841 LINE SMOOTH",
"553 841 OFFCURVE",
"601 753 OFFCURVE",
"601 487 CURVE SMOOTH",
"601 250 OFFCURVE",
"572 155 OFFCURVE",
"453 155 CURVE SMOOTH",
"331 155 OFFCURVE",
"314 234 OFFCURVE",
"314 471 CURVE SMOOTH",
"314 552 LINE",
"114 552 LINE",
"114 474 LINE SMOOTH",
"114 141 OFFCURVE",
"200 -20 OFFCURVE",
"448 -20 CURVE SMOOTH",
"702 -20 OFFCURVE",
"806 148 OFFCURVE",
"806 485 CURVE SMOOTH",
"806 690 OFFCURVE",
"756 867 OFFCURVE",
"624 927 CURVE",
"751 974 OFFCURVE",
"802 1124 OFFCURVE",
"802 1319 CURVE SMOOTH",
"802 1624 OFFCURVE",
"698 1780 OFFCURVE",
"453 1780 CURVE SMOOTH"
);
}
);
width = 908;
}
);
unicode = 0033;
},
{
glyphname = four;
lastChange = "2013-01-02 06:18:44 -0800";
layers = (
{
layerId = "7DA9E391-A28A-4B33-B824-B8724EAC872C";
name = "Regular Condensed";
paths = (
{
closed = 1;
nodes = (
"487 1761 LINE",
"96 477 LINE",
"96 332 LINE",
"512 332 LINE",
"512 -1 LINE",
"700 -1 LINE",
"700 332 LINE",
"845 332 LINE",
"845 496 LINE",
"700 496 LINE",
"700 1761 LINE"
);
},
{
closed = 1;
nodes = (
"512 496 LINE",
"266 496 LINE",
"512 1412 LINE"
);
}
);
width = 892;
}
);
unicode = 0034;
},
{
glyphname = five;
lastChange = "2013-01-02 06:18:44 -0800";
layers = (
{
layerId = "7DA9E391-A28A-4B33-B824-B8724EAC872C";
name = "Regular Condensed";
paths = (
{
closed = 1;
nodes = (
"146 1760 LINE",
"146 887 LINE",
"324 871 LINE",
"324 999 OFFCURVE",
"370 1058 OFFCURVE",
"437 1058 CURVE SMOOTH",
"520 1058 OFFCURVE",
"542 985 OFFCURVE",
"542 851 CURVE SMOOTH",
"542 326 LINE SMOOTH",
"542 210 OFFCURVE",
"511 154 OFFCURVE",
"435 154 CURVE SMOOTH",
"350 154 OFFCURVE",
"328 223 OFFCURVE",
"328 315 CURVE SMOOTH",
"328 510 LINE",
"128 510 LINE",
"128 316 LINE SMOOTH",
"128 132 OFFCURVE",
"201 -20 OFFCURVE",
"435 -20 CURVE SMOOTH",
"720 -20 OFFCURVE",
"741 168 OFFCURVE",
"741 668 CURVE SMOOTH",
"741 1116 OFFCURVE",
"662 1233 OFFCURVE",
"488 1233 CURVE SMOOTH",
"423 1233 OFFCURVE",
"357 1206 OFFCURVE",
"335 1163 CURVE",
"335 1574 LINE",
"699 1574 LINE",
"699 1760 LINE"
);
}
);
width = 892;
}
);
unicode = 0035;
},
{
glyphname = six;
lastChange = "2013-01-02 06:18:53 -0800";
layers = (
{
layerId = "7DA9E391-A28A-4B33-B824-B8724EAC872C";
name = "Regular Condensed";
paths = (
{
closed = 1;
nodes = (
"202 1780 OFFCURVE",
"107 1635 OFFCURVE",
"107 1257 CURVE SMOOTH",
"107 516 LINE SMOOTH",
"107 198 OFFCURVE",
"171 -20 OFFCURVE",
"470 -20 CURVE SMOOTH",
"748 -20 OFFCURVE",
"821 148 OFFCURVE",
"821 462 CURVE SMOOTH",
"821 569 LINE SMOOTH",
"821 945 OFFCURVE",
"748 1110 OFFCURVE",
"501 1102 CURVE SMOOTH",
"430 1101 OFFCURVE",
"354 1071 OFFCURVE",
"313 1016 CURVE",
"313 1262 LINE SMOOTH",
"313 1527 OFFCURVE",
"337 1603 OFFCURVE",
"455 1603 CURVE SMOOTH",
"569 1603 OFFCURVE",
"577 1528 OFFCURVE",
"578 1282 CURVE SMOOTH",
"578 1249 LINE",
"777 1249 LINE",
"777 1309 LINE SMOOTH",
"775 1641 OFFCURVE",
"707 1780 OFFCURVE",
"464 1780 CURVE SMOOTH"
);
},
{
closed = 1;
nodes = (
"590 926 OFFCURVE",
"618 834 OFFCURVE",
"618 573 CURVE SMOOTH",
"618 440 LINE SMOOTH",
"618 215 OFFCURVE",
"586 158 OFFCURVE",
"470 158 CURVE SMOOTH",
"345 158 OFFCURVE",
"313 256 OFFCURVE",
"313 482 CURVE SMOOTH",
"313 854 LINE",
"327 880 OFFCURVE",
"391 926 OFFCURVE",
"476 926 CURVE SMOOTH"
);
}
);
width = 892;
}
);
unicode = 0036;
},
{
glyphname = seven;
lastChange = "2013-01-02 06:18:53 -0800";
layers = (
{
layerId = "7DA9E391-A28A-4B33-B824-B8724EAC872C";
name = "Regular Condensed";
paths = (
{
closed = 1;
nodes = (
"113 1761 LINE",
"113 1587 LINE",
"614 1587 LINE",
"612 1577 OFFCURVE",
"549 1429 OFFCURVE",
"476 1183 CURVE SMOOTH",
"381 880 OFFCURVE",
"272 481 OFFCURVE",
"236 1 CURVE",
"457 1 LINE",
"484 431 OFFCURVE",
"570 820 OFFCURVE",
"655 1113 CURVE SMOOTH",
"732 1388 OFFCURVE",
"811 1570 OFFCURVE",
"815 1611 CURVE",
"815 1761 LINE"
);
}
);
width = 892;
}
);
unicode = 0037;
},
{
glyphname = eight;
lastChange = "2013-01-02 06:18:53 -0800";
layers = (
{
layerId = "7DA9E391-A28A-4B33-B824-B8724EAC872C";
name = "Regular Condensed";
paths = (
{
closed = 1;
nodes = (
"206 1780 OFFCURVE",
"116 1649 OFFCURVE",
"116 1344 CURVE SMOOTH",
"116 1157 OFFCURVE",
"153 1016 OFFCURVE",
"255 943 CURVE",
"159 878 OFFCURVE",
"103 685 OFFCURVE",
"103 494 CURVE SMOOTH",
"103 481 OFFCURVE",
"103 429 OFFCURVE",
"104 417 CURVE SMOOTH",
"110 114 OFFCURVE",
"216 -20 OFFCURVE",
"451 -20 CURVE SMOOTH",
"687 -20 OFFCURVE",
"784 116 OFFCURVE",
"789 424 CURVE SMOOTH",
"789 494 LINE SMOOTH",
"789 682 OFFCURVE",
"734 879 OFFCURVE",
"643 946 CURVE",
"747 1017 OFFCURVE",
"786 1155 OFFCURVE",
"786 1344 CURVE SMOOTH",
"786 1651 OFFCURVE",
"699 1780 OFFCURVE",
"452 1780 CURVE SMOOTH"
);
},
{
closed = 1;
nodes = (
"532 863 OFFCURVE",
"583 751 OFFCURVE",
"583 507 CURVE SMOOTH",
"583 440 LINE SMOOTH",
"582 227 OFFCURVE",
"568 154 OFFCURVE",
"452 154 CURVE SMOOTH",
"335 154 OFFCURVE",
"311 228 OFFCURVE",
"310 435 CURVE SMOOTH",
"310 504 LINE SMOOTH",
"310 752 OFFCURVE",
"377 863 OFFCURVE",
"452 863 CURVE SMOOTH"
);
},
{
closed = 1;
nodes = (
"537 1614 OFFCURVE",
"580 1589 OFFCURVE",
"580 1336 CURVE SMOOTH",
"580 1068 OFFCURVE",
"524 1007 OFFCURVE",
"450 1007 CURVE SMOOTH",
"372 1007 OFFCURVE",
"322 1067 OFFCURVE",
"322 1332 CURVE SMOOTH",
"322 1577 OFFCURVE",
"366 1614 OFFCURVE",
"450 1614 CURVE SMOOTH"
);
}
);
width = 892;
}
);
unicode = 0038;
},
{
glyphname = nine;
lastChange = "2013-01-02 06:18:53 -0800";
layers = (
{
layerId = "7DA9E391-A28A-4B33-B824-B8724EAC872C";
name = "Regular Condensed";
paths = (
{
closed = 1;
nodes = (
"114 1780 OFFCURVE",
"67 1564 OFFCURVE",
"67 1250 CURVE SMOOTH",
"67 1205 LINE SMOOTH",
"67 854 OFFCURVE",
"132 663 OFFCURVE",
"376 663 CURVE SMOOTH",
"444 663 OFFCURVE",
"502 678 OFFCURVE",
"536 706 CURVE",
"536 511 LINE SMOOTH",
"536 262 OFFCURVE",
"542 155 OFFCURVE",
"427 155 CURVE SMOOTH",
"320 155 OFFCURVE",
"298 211 OFFCURVE",
"297 483 CURVE SMOOTH",
"297 513 LINE",
"101 513 LINE",
"101 449 LINE SMOOTH",
"105 119 OFFCURVE",
"192 -20 OFFCURVE",
"411 -20 CURVE SMOOTH",
"674 -20 OFFCURVE",
"742 158 OFFCURVE",
"742 536 CURVE SMOOTH",
"742 1244 LINE SMOOTH",
"742 1566 OFFCURVE",
"706 1780 OFFCURVE",
"407 1780 CURVE SMOOTH"
);
},
{
closed = 1;
nodes = (
"515 1602 OFFCURVE",
"536 1494 OFFCURVE",
"536 1279 CURVE SMOOTH",
"536 884 LINE",
"521 851 OFFCURVE",
"479 828 OFFCURVE",
"408 828 CURVE SMOOTH",
"292 828 OFFCURVE",
"271 919 OFFCURVE",
"271 1177 CURVE SMOOTH",
"271 1278 LINE SMOOTH",
"271 1492 OFFCURVE",
"290 1602 OFFCURVE",
"406 1602 CURVE SMOOTH"
);
}
);
width = 892;
}
);
unicode = 0039;
},
{
glyphname = fraction;
lastChange = "2013-01-02 06:18:44 -0800";
layers = (
{
layerId = "7DA9E391-A28A-4B33-B824-B8724EAC872C";
name = "Regular Condensed";
paths = (
{
closed = 1;
nodes = (
"531 1768 LINE",
"76 0 LINE",
"253 0 LINE",
"709 1768 LINE"
);
}
);
width = 829;
}
);
unicode = 2044;
},
{
glyphname = onehalf;
lastChange = "2013-01-02 06:18:44 -0800";
layers = (
{
layerId = "7DA9E391-A28A-4B33-B824-B8724EAC872C";
name = "Regular Condensed";
paths = (
{
closed = 1;
nodes = (
"936 1768 LINE",
"457 0 LINE",
"610 0 LINE",
"1089 1768 LINE"
);
},
{
closed = 1;
nodes = (
"297 1728 LINE",
"263 1637 OFFCURVE",
"170 1581 OFFCURVE",
"95 1572 CURVE",
"95 1476 LINE",
"148 1476 OFFCURVE",
"214 1495 OFFCURVE",
"250 1533 CURVE",
"250 482 LINE",
"397 482 LINE",
"397 1728 LINE"
);
},
{
closed = 1;
nodes = (
"1111 1264 OFFCURVE",
"1092 1105 OFFCURVE",
"1092 834 CURVE SMOOTH",
"1092 757 LINE",
"1235 757 LINE",
"1235 920 LINE SMOOTH",
"1235 1109 OFFCURVE",
"1273 1142 OFFCURVE",
"1319 1142 CURVE SMOOTH",
"1365 1142 OFFCURVE",
"1399 1108 OFFCURVE",
"1399 930 CURVE SMOOTH",
"1399 843 OFFCURVE",
"1378 734 OFFCURVE",
"1346 675 CURVE SMOOTH",
"1319 643 OFFCURVE",
"1096 184 OFFCURVE",
"1096 66 CURVE SMOOTH",
"1096 1 LINE",
"1522 1 LINE",
"1522 109 LINE",
"1245 109 LINE",
"1295 416 OFFCURVE",
"1538 585 OFFCURVE",
"1538 919 CURVE SMOOTH",
"1538 1089 OFFCURVE",
"1499 1264 OFFCURVE",
"1332 1264 CURVE SMOOTH"
);
}
);
width = 1620;
}
);
unicode = 00BD;
},
{
glyphname = onequarter;
lastChange = "2013-01-02 06:18:44 -0800";
layers = (
{
layerId = "7DA9E391-A28A-4B33-B824-B8724EAC872C";
name = "Regular Condensed";
paths = (
{
closed = 1;
nodes = (
"936 1768 LINE",
"457 0 LINE",
"610 0 LINE",
"1089 1768 LINE"
);
},
{
closed = 1;
nodes = (
"297 1728 LINE",
"263 1637 OFFCURVE",
"170 1581 OFFCURVE",
"95 1572 CURVE",
"95 1476 LINE",
"148 1476 OFFCURVE",
"214 1495 OFFCURVE",
"250 1533 CURVE",
"250 482 LINE",
"397 482 LINE",
"397 1728 LINE"
);
},
{
closed = 1;
nodes = (
"1160 1147 LINE",
"909 310 LINE",
"909 219 LINE",
"1190 219 LINE",
"1190 0 LINE",
"1316 0 LINE",
"1316 219 LINE",
"1406 219 LINE",
"1406 325 LINE",
"1316 325 LINE",
"1316 1147 LINE"
);
},
{
closed = 1;
nodes = (
"1190 325 LINE",
"1028 325 LINE",
"1190 928 LINE"
);
}
);
width = 1535;
}
);
unicode = 00BC;
},
{
glyphname = threequarters;
lastChange = "2013-01-02 06:18:53 -0800";
layers = (
{
layerId = "7DA9E391-A28A-4B33-B824-B8724EAC872C";
name = "Regular Condensed";
paths = (
{
closed = 1;
nodes = (
"994 1768 LINE",
"515 0 LINE",
"668 0 LINE",
"1148 1768 LINE"
);
},
{
closed = 1;
nodes = (
"183 1747 OFFCURVE",
"123 1647 OFFCURVE",
"123 1446 CURVE SMOOTH",
"123 1419 LINE",
"255 1419 LINE",
"256 1443 LINE SMOOTH",
"256 1595 OFFCURVE",
"285 1635 OFFCURVE",
"343 1635 CURVE SMOOTH",
"399 1635 OFFCURVE",
"440 1605 OFFCURVE",
"440 1446 CURVE SMOOTH",
"440 1275 OFFCURVE",
"401 1248 OFFCURVE",
"311 1247 CURVE SMOOTH",
"285 1247 LINE",
"285 1136 LINE",
"313 1136 LINE SMOOTH",
"408 1136 OFFCURVE",
"442 1076 OFFCURVE",
"442 904 CURVE SMOOTH",
"442 748 OFFCURVE",
"423 686 OFFCURVE",
"344 686 CURVE SMOOTH",
"263 686 OFFCURVE",
"251 737 OFFCURVE",
"251 896 CURVE SMOOTH",
"251 946 LINE",
"119 946 LINE",
"119 896 LINE SMOOTH",
"119 679 OFFCURVE",
"179 574 OFFCURVE",
"340 574 CURVE SMOOTH",
"505 574 OFFCURVE",
"575 683 OFFCURVE",
"575 902 CURVE SMOOTH",
"575 1036 OFFCURVE",
"544 1152 OFFCURVE",
"458 1191 CURVE",
"541 1222 OFFCURVE",
"572 1318 OFFCURVE",
"572 1446 CURVE SMOOTH",
"572 1645 OFFCURVE",
"504 1747 OFFCURVE",
"344 1747 CURVE SMOOTH"
);
},
{
closed = 1;
nodes = (
"1180 1147 LINE",
"929 310 LINE",
"929 219 LINE",
"1210 219 LINE",
"1210 0 LINE",
"1336 0 LINE",
"1336 219 LINE",
"1426 219 LINE",
"1426 325 LINE",
"1336 325 LINE",
"1336 1147 LINE"
);
},
{
closed = 1;
nodes = (
"1210 325 LINE",
"1048 325 LINE",
"1210 928 LINE"
);
}
);
width = 1555;
}
);
unicode = 00BE;
},
{
glyphname = uni00B9;
lastChange = "2013-01-02 06:18:44 -0800";
layers = (
{
layerId = "7DA9E391-A28A-4B33-B824-B8724EAC872C";
name = "Regular Condensed";
paths = (
{
closed = 1;
nodes = (
"302 1759 LINE",
"269 1666 OFFCURVE",
"169 1609 OFFCURVE",
"90 1600 CURVE",
"90 1499 LINE",
"145 1499 OFFCURVE",
"214 1519 OFFCURVE",
"253 1557 CURVE",
"253 487 LINE",
"409 487 LINE",
"409 1759 LINE"
);
}
);
width = 627;
}
);
unicode = 00B9;
},
{
glyphname = uni00B2;
lastChange = "2013-01-02 06:18:44 -0800";
layers = (
{
layerId = "7DA9E391-A28A-4B33-B824-B8724EAC872C";
name = "Regular Condensed";
paths = (
{
closed = 1;
nodes = (
"243 1779 OFFCURVE",
"222 1618 OFFCURVE",
"222 1340 CURVE SMOOTH",
"222 1262 LINE",
"370 1262 LINE",
"370 1428 LINE SMOOTH",
"370 1618 OFFCURVE",
"408 1652 OFFCURVE",
"456 1652 CURVE SMOOTH",
"502 1652 OFFCURVE",
"536 1617 OFFCURVE",
"536 1438 CURVE SMOOTH",
"536 1350 OFFCURVE",
"514 1238 OFFCURVE",
"482 1179 CURVE SMOOTH",
"452 1142 OFFCURVE",
"226 681 OFFCURVE",
"226 557 CURVE SMOOTH",
"226 490 LINE",
"664 490 LINE",
"664 603 LINE",
"381 603 LINE",
"433 915 OFFCURVE",
"680 1087 OFFCURVE",
"680 1427 CURVE SMOOTH",
"680 1602 OFFCURVE",
"638 1779 OFFCURVE",
"468 1779 CURVE SMOOTH"
);
}
);
width = 846;
}
);
unicode = 00B2;
},
{
glyphname = uni00B3;
lastChange = "2013-01-02 06:18:53 -0800";
layers = (
{
layerId = "7DA9E391-A28A-4B33-B824-B8724EAC872C";
name = "Regular Condensed";
paths = (
{
closed = 1;
nodes = (
"264 1777 OFFCURVE",
"201 1674 OFFCURVE",
"201 1467 CURVE SMOOTH",
"201 1439 LINE",
"344 1439 LINE",
"344 1464 LINE SMOOTH",
"344 1617 OFFCURVE",
"374 1658 OFFCURVE",
"435 1658 CURVE SMOOTH",
"492 1658 OFFCURVE",
"535 1627 OFFCURVE",
"535 1467 CURVE SMOOTH",
"535 1294 OFFCURVE",
"497 1262 OFFCURVE",
"401 1261 CURVE SMOOTH",
"373 1261 LINE",
"373 1148 LINE",
"402 1148 LINE SMOOTH",
"502 1148 OFFCURVE",
"536 1086 OFFCURVE",
"536 911 CURVE SMOOTH",
"536 752 OFFCURVE",
"518 689 OFFCURVE",
"435 689 CURVE SMOOTH",
"352 689 OFFCURVE",
"339 742 OFFCURVE",
"339 902 CURVE SMOOTH",
"339 956 LINE",
"197 956 LINE",
"197 902 LINE SMOOTH",
"197 680 OFFCURVE",
"259 571 OFFCURVE",
"431 571 CURVE SMOOTH",
"608 571 OFFCURVE",
"682 684 OFFCURVE",
"682 910 CURVE SMOOTH",
"682 1047 OFFCURVE",
"651 1166 OFFCURVE",
"560 1206 CURVE",
"647 1238 OFFCURVE",
"680 1336 OFFCURVE",
"680 1467 CURVE SMOOTH",
"680 1671 OFFCURVE",
"606 1777 OFFCURVE",
"436 1777 CURVE SMOOTH"
);
}
);
width = 868;
}
);
unicode = 00B3;
},
{
glyphname = uni2074;
lastChange = "2013-01-02 06:18:44 -0800";
layers = (
{
layerId = "7DA9E391-A28A-4B33-B824-B8724EAC872C";
name = "Regular Condensed";
paths = (
{
closed = 1;
nodes = (
"448 1761 LINE",
"188 900 LINE",
"188 803 LINE",
"483 803 LINE",
"483 579 LINE",
"619 579 LINE",
"619 803 LINE",
"711 803 LINE",
"711 915 LINE",
"619 915 LINE",
"619 1761 LINE"
);
},
{
closed = 1;
nodes = (
"483 915 LINE",
"316 915 LINE",
"483 1526 LINE"
);
}
);
width = 855;
}
);
unicode = 2074;
},
{
glyphname = asterisk;
lastChange = "2013-01-02 06:18:44 -0800";
layers = (
{
layerId = "7DA9E391-A28A-4B33-B824-B8724EAC872C";
name = "Regular Condensed";
paths = (
{
closed = 1;
nodes = (
"400 1727 LINE",
"429 1451 LINE",
"198 1619 LINE",
"117 1480 LINE",
"373 1361 LINE",
"123 1235 LINE",
"203 1095 LINE",
"430 1271 LINE",
"400 988 LINE",
"560 988 LINE",
"536 1266 LINE",
"762 1088 LINE",
"843 1228 LINE",
"586 1361 LINE",
"843 1487 LINE",
"762 1626 LINE",
"536 1454 LINE",
"560 1727 LINE"
);
}
);
width = 960;
}
);
unicode = 002A;
},
{
glyphname = backslash;
lastChange = "2013-01-02 06:18:44 -0800";
layers = (
{
layerId = "7DA9E391-A28A-4B33-B824-B8724EAC872C";
name = "Regular Condensed";
paths = (
{
closed = 1;
nodes = (
"115 1761 LINE",
"526 0 LINE",
"707 0 LINE",
"297 1761 LINE"
);
}
);
width = 868;
}
);
unicode = 005C;
},
{
glyphname = bullet;
lastChange = "2013-01-02 06:18:44 -0800";
layers = (
{
layerId = "7DA9E391-A28A-4B33-B824-B8724EAC872C";
name = "Regular Condensed";
paths = (
{
closed = 1;
nodes = (
"278 999 OFFCURVE",
"197 906 OFFCURVE",
"197 741 CURVE SMOOTH",
"197 576 OFFCURVE",
"278 483 OFFCURVE",
"430 483 CURVE SMOOTH",
"583 483 OFFCURVE",
"664 576 OFFCURVE",
"664 741 CURVE SMOOTH",
"664 906 OFFCURVE",
"583 999 OFFCURVE",
"430 999 CURVE SMOOTH"
);
}
);
width = 861;
}
);
unicode = 2022;
},
{
glyphname = colon;
lastChange = "2013-01-02 06:18:44 -0800";
layers = (
{
layerId = "7DA9E391-A28A-4B33-B824-B8724EAC872C";
name = "Regular Condensed";
paths = (
{
closed = 1;
nodes = (
"152 1307 LINE",
"152 1057 LINE",
"403 1057 LINE",
"403 1307 LINE"
);
},
{
closed = 1;
nodes = (
"152 520 LINE",
"152 270 LINE",
"403 270 LINE",
"403 520 LINE"
);
}
);
width = 555;
}
);
unicode = 003A;
},
{
glyphname = comma;
lastChange = "2013-01-02 06:18:44 -0800";
layers = (
{
layerId = "7DA9E391-A28A-4B33-B824-B8724EAC872C";
name = "Regular Condensed";
paths = (
{
closed = 1;
nodes = (
"119 235 LINE",
"119 0 LINE",
"243 0 LINE",
"170 -344 LINE",
"276 -344 LINE",
"377 9 LINE",
"377 235 LINE"
);
}
);
width = 462;
}
);
unicode = 002C;
},
{
glyphname = exclam;
lastChange = "2013-01-02 06:18:44 -0800";
layers = (
{
layerId = "7DA9E391-A28A-4B33-B824-B8724EAC872C";
name = "Regular Condensed";
paths = (
{
closed = 1;
nodes = (
"146 1760 LINE",
"222 395 LINE",
"306 395 LINE",
"381 1760 LINE"
);
},
{
closed = 1;
nodes = (
"151 228 LINE",
"151 0 LINE",
"373 0 LINE",
"373 228 LINE"
);
}
);
width = 528;
}
);
unicode = 0021;
},
{
glyphname = numbersign;
lastChange = "2013-01-02 06:18:44 -0800";
layers = (
{
layerId = "7DA9E391-A28A-4B33-B824-B8724EAC872C";
name = "Regular Condensed";
paths = (
{
closed = 1;
nodes = (
"907 1761 LINE",
"788 1170 LINE",
"586 1170 LINE",
"705 1761 LINE",
"533 1761 LINE",
"416 1170 LINE",
"216 1170 LINE",
"216 1036 LINE",
"389 1036 LINE",
"335 760 LINE",
"161 760 LINE",
"161 626 LINE",
"308 626 LINE",
"185 0 LINE",
"356 0 LINE",
"478 626 LINE",
"681 626 LINE",
"559 0 LINE",
"730 0 LINE",
"854 626 LINE",
"1051 626 LINE",
"1051 760 LINE",
"881 760 LINE",
"935 1036 LINE",
"1106 1036 LINE",
"1106 1170 LINE",
"962 1170 LINE",
"1079 1761 LINE"
);
},
{
closed = 1;
nodes = (
"709 759 LINE",
"504 759 LINE",
"559 1032 LINE",
"763 1032 LINE"
);
}
);
width = 1288;
}
);
unicode = 0023;
},
{
glyphname = period;
lastChange = "2013-01-02 06:18:44 -0800";
layers = (
{
layerId = "7DA9E391-A28A-4B33-B824-B8724EAC872C";
name = "Regular Condensed";
paths = (
{
closed = 1;
nodes = (
"171 198 LINE",
"171 0 LINE",
"346 0 LINE",
"346 198 LINE"
);
}
);
width = 532;
}
);
unicode = 002E;
},
{
glyphname = periodcentered;
lastChange = "2013-01-02 06:18:44 -0800";
layers = (
{
layerId = "7DA9E391-A28A-4B33-B824-B8724EAC872C";
name = "Regular Condensed";
paths = (
{
closed = 1;
nodes = (
"148 977 LINE",
"148 769 LINE",
"348 769 LINE",
"348 977 LINE"
);
}
);
width = 480;
}
);
unicode = 00B7;
},
{
glyphname = question;
lastChange = "2013-01-02 06:18:44 -0800";
layers = (
{
layerId = "7DA9E391-A28A-4B33-B824-B8724EAC872C";
name = "Regular Condensed";
paths = (
{
closed = 1;
nodes = (
"156 1782 OFFCURVE",
"140 1549 OFFCURVE",
"140 1370 CURVE SMOOTH",
"140 1160 LINE",
"343 1160 LINE",
"343 1356 LINE SMOOTH",
"343 1542 OFFCURVE",
"344 1604 OFFCURVE",
"431 1604 CURVE SMOOTH",
"511 1604 OFFCURVE",
"509 1536 OFFCURVE",
"509 1360 CURVE SMOOTH",
"509 1017 OFFCURVE",
"505 892 OFFCURVE",
"239 810 CURVE",
"239 494 LINE",
"418 494 LINE",
"418 718 LINE",
"660 787 OFFCURVE",
"716 953 OFFCURVE",
"716 1299 CURVE SMOOTH",
"716 1596 OFFCURVE",
"698 1782 OFFCURVE",
"427 1782 CURVE SMOOTH"
);
},
{
closed = 1;
nodes = (
"242 299 LINE",
"242 1 LINE",
"419 1 LINE",
"419 299 LINE"
);
}
);
width = 799;
}
);
unicode = 003F;
},
{
glyphname = quotedbl;
lastChange = "2013-01-02 06:18:44 -0800";
layers = (
{
layerId = "7DA9E391-A28A-4B33-B824-B8724EAC872C";
name = "Regular Condensed";
paths = (
{
closed = 1;
nodes = (
"535 1761 LINE",
"599 1125 LINE",
"669 1125 LINE",
"734 1761 LINE"
);
},
{
closed = 1;
nodes = (
"220 1761 LINE",
"284 1125 LINE",
"354 1125 LINE",
"419 1761 LINE"
);
}
);
width = 944;
}
);
unicode = 0022;
},
{
glyphname = quotesingle;
lastChange = "2013-01-02 06:18:44 -0800";
layers = (
{
layerId = "7DA9E391-A28A-4B33-B824-B8724EAC872C";
name = "Regular Condensed";
paths = (
{
closed = 1;
nodes = (
"112 1761 LINE",
"172 1125 LINE",
"244 1125 LINE",
"309 1761 LINE"
);
}
);
width = 413;
}
);
unicode = 0027;
},
{
glyphname = semicolon;
lastChange = "2013-01-02 06:18:44 -0800";
layers = (
{
layerId = "7DA9E391-A28A-4B33-B824-B8724EAC872C";
name = "Regular Condensed";
paths = (
{
closed = 1;
nodes = (
"143 534 LINE",
"143 282 LINE",
"276 282 LINE",
"190 -103 LINE",
"314 -103 LINE",
"428 291 LINE",
"428 534 LINE"
);
},
{
closed = 1;
nodes = (
"133 1234 LINE",
"133 954 LINE",
"414 954 LINE",
"414 1234 LINE"
);
}
);
width = 561;
}
);
unicode = 003B;
},
{
glyphname = slash;
lastChange = "2013-01-02 06:18:44 -0800";
layers = (
{
layerId = "7DA9E391-A28A-4B33-B824-B8724EAC872C";
name = "Regular Condensed";
paths = (
{
closed = 1;
nodes = (
"526 1768 LINE",
"87 0 LINE",
"269 0 LINE",
"709 1768 LINE"
);
}
);
width = 783;
}
);
unicode = 002F;
},
{
glyphname = underscore;
lastChange = "2013-01-02 06:18:44 -0800";
layers = (
{
layerId = "7DA9E391-A28A-4B33-B824-B8724EAC872C";
name = "Regular Condensed";
paths = (
{
closed = 1;
nodes = (
"48 -46 LINE",
"48 -198 LINE",
"699 -198 LINE",
"699 -46 LINE"
);
}
);
width = 748;
}
);
unicode = 005F;
},
{
glyphname = braceleft;
lastChange = "2013-01-02 06:18:44 -0800";
layers = (
{
layerId = "7DA9E391-A28A-4B33-B824-B8724EAC872C";
name = "Regular Condensed";
paths = (
{
closed = 1;
nodes = (
"587 1781 LINE SMOOTH",
"375 1781 OFFCURVE",
"304 1704 OFFCURVE",
"304 1443 CURVE SMOOTH",
"304 1168 LINE SMOOTH",
"304 976 OFFCURVE",
"291 940 OFFCURVE",
"165 940 CURVE",
"165 720 LINE",
"291 720 OFFCURVE",
"304 684 OFFCURVE",
"304 492 CURVE SMOOTH",
"304 217 LINE SMOOTH",
"304 -44 OFFCURVE",
"375 -121 OFFCURVE",
"587 -121 CURVE SMOOTH",
"647 -121 LINE",
"647 46 LINE",
"525 46 OFFCURVE",
"508 71 OFFCURVE",
"508 230 CURVE SMOOTH",
"508 476 LINE SMOOTH",
"508 739 OFFCURVE",
"486 787 OFFCURVE",
"342 830 CURVE",
"486 873 OFFCURVE",
"508 921 OFFCURVE",
"508 1184 CURVE SMOOTH",
"508 1430 LINE SMOOTH",
"508 1589 OFFCURVE",
"525 1614 OFFCURVE",
"647 1614 CURVE",
"647 1781 LINE"
);
}
);
width = 798;
}
);
unicode = 007B;
},
{
glyphname = braceright;
lastChange = "2013-01-02 06:18:44 -0800";
layers = (
{
layerId = "7DA9E391-A28A-4B33-B824-B8724EAC872C";
name = "Regular Condensed";
paths = (
{
closed = 1;
nodes = (
"165 1781 LINE",
"165 1614 LINE",
"287 1614 OFFCURVE",
"304 1589 OFFCURVE",
"304 1430 CURVE SMOOTH",
"304 1184 LINE SMOOTH",
"304 921 OFFCURVE",
"326 873 OFFCURVE",
"470 830 CURVE",
"326 787 OFFCURVE",
"304 739 OFFCURVE",
"304 476 CURVE SMOOTH",
"304 230 LINE SMOOTH",
"304 71 OFFCURVE",
"287 46 OFFCURVE",
"165 46 CURVE",
"165 -121 LINE",
"225 -121 LINE SMOOTH",
"437 -121 OFFCURVE",
"508 -44 OFFCURVE",
"508 217 CURVE SMOOTH",
"508 492 LINE SMOOTH",
"508 684 OFFCURVE",
"521 720 OFFCURVE",
"647 720 CURVE",
"647 940 LINE",
"521 940 OFFCURVE",
"508 976 OFFCURVE",
"508 1168 CURVE SMOOTH",
"508 1443 LINE SMOOTH",
"508 1704 OFFCURVE",
"437 1781 OFFCURVE",
"225 1781 CURVE SMOOTH"
);
}
);
width = 798;
}
);
unicode = 007D;
},
{
glyphname = bracketleft;
lastChange = "2013-01-02 06:18:44 -0800";
layers = (
{
layerId = "7DA9E391-A28A-4B33-B824-B8724EAC872C";
name = "Regular Condensed";
paths = (
{
closed = 1;
nodes = (
"217 1761 LINE",
"217 0 LINE",
"632 0 LINE",
"632 160 LINE",
"423 160 LINE",
"423 1601 LINE",
"632 1601 LINE",
"632 1761 LINE"
);
}
);
width = 764;
}
);
unicode = 005B;
},
{
glyphname = bracketright;
lastChange = "2013-01-02 06:18:44 -0800";
layers = (
{
layerId = "7DA9E391-A28A-4B33-B824-B8724EAC872C";
name = "Regular Condensed";
paths = (
{
closed = 1;
nodes = (
"166 1761 LINE",
"166 1601 LINE",
"376 1601 LINE",
"376 160 LINE",
"166 160 LINE",
"166 0 LINE",
"581 0 LINE",
"581 1761 LINE"
);
}
);
width = 764;
}
);
unicode = 005D;
},
{
glyphname = parenleft;
lastChange = "2013-01-02 06:18:44 -0800";
layers = (
{
layerId = "7DA9E391-A28A-4B33-B824-B8724EAC872C";
name = "Regular Condensed";
paths = (
{
closed = 1;
nodes = (
"208 1811 OFFCURVE",
"131 1744 OFFCURVE",
"131 1381 CURVE SMOOTH",
"131 313 LINE SMOOTH",
"131 -50 OFFCURVE",
"208 -117 OFFCURVE",
"475 -117 CURVE",
"475 38 LINE",
"355 38 OFFCURVE",
"336 57 OFFCURVE",
"336 309 CURVE SMOOTH",
"336 1385 LINE SMOOTH",
"336 1638 OFFCURVE",
"355 1656 OFFCURVE",
"475 1656 CURVE",
"475 1811 LINE"
);
}
);
width = 567;
}
);
unicode = 0028;
},
{
glyphname = parenright;
lastChange = "2013-01-02 06:18:44 -0800";
layers = (
{
layerId = "7DA9E391-A28A-4B33-B824-B8724EAC872C";
name = "Regular Condensed";
paths = (
{
closed = 1;
nodes = (
"92 1656 LINE",
"212 1656 OFFCURVE",
"231 1638 OFFCURVE",
"231 1385 CURVE SMOOTH",
"231 309 LINE SMOOTH",
"231 57 OFFCURVE",
"212 38 OFFCURVE",
"92 38 CURVE",
"92 -117 LINE",
"359 -117 OFFCURVE",
"437 -50 OFFCURVE",
"437 313 CURVE SMOOTH",
"437 1381 LINE SMOOTH",
"437 1744 OFFCURVE",
"359 1811 OFFCURVE",
"92 1811 CURVE"
);
}
);
width = 567;
}
);
unicode = 0029;
},
{
glyphname = emdash;
lastChange = "2013-01-04 04:05:42 -0800";
layers = (
{
layerId = "7DA9E391-A28A-4B33-B824-B8724EAC872C";
name = "Regular Condensed";
paths = (
{
closed = 1;
nodes = (
"60 741 LINE",
"60 570 LINE",
"1092 570 LINE",
"1092 741 LINE"
);
}
);
width = 1153;
}
);
unicode = 2014;
},
{
glyphname = endash;
lastChange = "2013-01-02 06:18:44 -0800";
layers = (
{
layerId = "7DA9E391-A28A-4B33-B824-B8724EAC872C";
name = "Regular Condensed";
paths = (
{
closed = 1;
nodes = (
"120 741 LINE",
"120 509 LINE",
"636 509 LINE",
"636 741 LINE"
);
}
);
width = 756;
}
);
unicode = 2013;
},
{
glyphname = hyphen;
lastChange = "2013-01-02 06:18:44 -0800";
layers = (
{
layerId = "7DA9E391-A28A-4B33-B824-B8724EAC872C";
name = "Regular Condensed";
paths = (
{
closed = 1;
nodes = (
"88 899 LINE",
"88 763 LINE",
"540 763 LINE",
"540 899 LINE"
);
}
);
width = 696;
}
);
unicode = 002D;
},
{
glyphname = uni00AD;
lastChange = "2013-01-02 06:18:44 -0800";
layers = (
{
layerId = "7DA9E391-A28A-4B33-B824-B8724EAC872C";
name = "Regular Condensed";
paths = (
{
closed = 1;
nodes = (
"90 741 LINE",
"90 509 LINE",
"606 509 LINE",
"606 741 LINE"
);
}
);
width = 696;
}
);
unicode = 00AD;
},
{
glyphname = guillemotleft;
lastChange = "2013-01-02 06:18:44 -0800";
layers = (
{
layerId = "7DA9E391-A28A-4B33-B824-B8724EAC872C";
name = "Regular Condensed";
paths = (
{
closed = 1;
nodes = (
"620 839 LINE",
"620 657 LINE",
"1098 372 LINE",
"1098 586 LINE",
"786 749 LINE",
"1098 903 LINE",
"1098 1110 LINE"
);
},
{
closed = 1;
nodes = (
"82 839 LINE",
"82 657 LINE",
"560 372 LINE",
"560 586 LINE",
"248 749 LINE",
"560 903 LINE",
"560 1110 LINE"
);
}
);
width = 1304;
}
);
unicode = 00AB;
},
{
glyphname = guillemotright;
lastChange = "2013-01-02 06:18:44 -0800";
layers = (
{
layerId = "7DA9E391-A28A-4B33-B824-B8724EAC872C";
name = "Regular Condensed";
paths = (
{
closed = 1;
nodes = (
"710 903 LINE",
"1022 749 LINE",
"710 586 LINE",
"710 372 LINE",
"1188 657 LINE",
"1188 839 LINE",
"710 1110 LINE"
);
},
{
closed = 1;
nodes = (
"172 903 LINE",
"484 749 LINE",
"172 586 LINE",
"172 372 LINE",
"650 657 LINE",
"650 839 LINE",
"172 1110 LINE"
);
}
);
width = 1304;
}
);
unicode = 00BB;
},
{
glyphname = guilsinglleft;
lastChange = "2013-01-02 06:18:44 -0800";
layers = (
{
layerId = "7DA9E391-A28A-4B33-B824-B8724EAC872C";
name = "Regular Condensed";
paths = (
{
closed = 1;
nodes = (
"70 839 LINE",
"70 657 LINE",
"548 372 LINE",
"548 586 LINE",
"236 749 LINE",
"548 903 LINE",
"548 1110 LINE"
);
}
);
width = 606;
}
);
unicode = 2039;
},
{
glyphname = guilsinglright;
lastChange = "2013-01-02 06:18:44 -0800";
layers = (
{
layerId = "7DA9E391-A28A-4B33-B824-B8724EAC872C";
name = "Regular Condensed";
paths = (
{
closed = 1;
nodes = (
"153 903 LINE",
"465 749 LINE",
"153 586 LINE",
"153 372 LINE",
"631 657 LINE",
"631 839 LINE",
"153 1110 LINE"
);
}
);
width = 727;
}
);
unicode = 203A;
},
{
glyphname = quotedblbase;
lastChange = "2013-01-02 06:18:44 -0800";
layers = (
{
layerId = "7DA9E391-A28A-4B33-B824-B8724EAC872C";
name = "Regular Condensed";
paths = (
{
closed = 1;
nodes = (
"622 233 LINE",
"622 0 LINE",
"763 0 LINE",
"677 -401 LINE",
"810 -401 LINE",
"924 9 LINE",
"924 233 LINE"
);
},
{
closed = 1;
nodes = (
"166 233 LINE",
"166 0 LINE",
"307 0 LINE",
"221 -401 LINE",
"353 -401 LINE",
"468 9 LINE",
"468 233 LINE"
);
}
);
width = 1016;
}
);
unicode = 201E;
},
{
glyphname = quotedblleft;
lastChange = "2013-01-02 06:18:44 -0800";
layers = (
{
layerId = "7DA9E391-A28A-4B33-B824-B8724EAC872C";
name = "Regular Condensed";
paths = (
{
closed = 1;
nodes = (
"730 1779 LINE",
"615 1369 LINE",
"615 1145 LINE",
"917 1145 LINE",
"917 1378 LINE",
"776 1378 LINE",
"862 1779 LINE"
);
},
{
closed = 1;
nodes = (
"273 1779 LINE",
"159 1369 LINE",
"159 1145 LINE",
"461 1145 LINE",
"461 1378 LINE",
"320 1378 LINE",
"406 1779 LINE"
);
}
);
width = 1030;
}
);
unicode = 201C;
},
{
glyphname = quotedblright;
lastChange = "2013-01-02 06:18:44 -0800";
layers = (
{
layerId = "7DA9E391-A28A-4B33-B824-B8724EAC872C";
name = "Regular Condensed";
paths = (
{
closed = 1;
nodes = (
"630 1779 LINE",
"630 1546 LINE",
"770 1546 LINE",
"684 1145 LINE",
"817 1145 LINE",
"932 1555 LINE",
"932 1779 LINE"
);
},
{
closed = 1;
nodes = (
"173 1779 LINE",
"173 1546 LINE",
"314 1546 LINE",
"228 1145 LINE",
"361 1145 LINE",
"475 1555 LINE",
"475 1779 LINE"
);
}
);
width = 1077;
}
);
unicode = 201D;
},
{
glyphname = quoteleft;
lastChange = "2013-01-02 06:18:44 -0800";
layers = (
{
layerId = "7DA9E391-A28A-4B33-B824-B8724EAC872C";
name = "Regular Condensed";
paths = (
{
closed = 1;
nodes = (
"268 1779 LINE",
"144 1347 LINE",
"144 1116 LINE",
"453 1116 LINE",
"453 1356 LINE",
"305 1356 LINE",
"397 1779 LINE"
);
}
);
width = 591;
}
);
unicode = 2018;
},
{
glyphname = quoteright;
lastChange = "2013-01-02 06:18:44 -0800";
layers = (
{
layerId = "7DA9E391-A28A-4B33-B824-B8724EAC872C";
name = "Regular Condensed";
paths = (
{
closed = 1;
nodes = (
"160 1779 LINE",
"160 1539 LINE",
"307 1539 LINE",
"215 1116 LINE",
"344 1116 LINE",
"469 1548 LINE",
"469 1779 LINE"
);
}
);
width = 591;
}
);
unicode = 2019;
},
{
glyphname = quotesinglbase;
lastChange = "2013-01-02 06:18:44 -0800";
layers = (
{
layerId = "7DA9E391-A28A-4B33-B824-B8724EAC872C";
name = "Regular Condensed";
paths = (
{
closed = 1;
nodes = (
"97 232 LINE",
"97 0 LINE",
"238 0 LINE",
"152 -382 LINE",
"285 -382 LINE",
"399 9 LINE",
"399 232 LINE"
);
}
);
width = 484;
}
);
unicode = 201A;
},
{
glyphname = .notdef;
lastChange = "2013-01-02 06:18:44 -0800";
layers = (
{
layerId = "7DA9E391-A28A-4B33-B824-B8724EAC872C";
name = "Regular Condensed";
paths = (
{
closed = 1;
nodes = (
"102 1092 LINE",
"102 0 LINE",
"922 0 LINE",
"922 1092 LINE"
);
},
{
closed = 1;
nodes = (
"820 102 LINE",
"204 102 LINE",
"204 990 LINE",
"820 990 LINE"
);
}
);
width = 1024;
}
);
},
{
glyphname = florin;
lastChange = "2013-01-02 06:18:44 -0800";
layers = (
{
layerId = "7DA9E391-A28A-4B33-B824-B8724EAC872C";
name = "Regular Condensed";
paths = (
{
closed = 1;
nodes = (
"351 1785 OFFCURVE",
"286 1703 OFFCURVE",
"286 1539 CURVE SMOOTH",
"286 1255 LINE",
"107 1255 LINE",
"107 1102 LINE",
"286 1102 LINE",
"286 305 LINE SMOOTH",
"286 187 OFFCURVE",
"272 154 OFFCURVE",
"167 154 CURVE SMOOTH",
"152 154 OFFCURVE",
"135 156 OFFCURVE",
"115 157 CURVE",
"115 8 LINE",
"169 -7 OFFCURVE",
"220 -15 OFFCURVE",
"270 -15 CURVE SMOOTH",
"415 -15 OFFCURVE",
"480 66 OFFCURVE",
"480 221 CURVE SMOOTH",
"480 1102 LINE",
"662 1102 LINE",
"662 1255 LINE",
"480 1255 LINE",
"480 1503 LINE SMOOTH",
"480 1584 OFFCURVE",
"498 1622 OFFCURVE",
"557 1622 CURVE SMOOTH",
"581 1622 OFFCURVE",
"612 1615 OFFCURVE",
"652 1603 CURVE",
"652 1752 LINE",
"593 1774 OFFCURVE",
"536 1785 OFFCURVE",
"483 1785 CURVE SMOOTH"
);
}
);
width = 767;
}
);
unicode = 0192;
},
{
glyphname = cent;
lastChange = "2013-01-02 06:18:50 -0800";
layers = (
{
components = (
{
name = c;
transform = "{1, 0, 0, 1, 0, 0}";
}
);
layerId = "7DA9E391-A28A-4B33-B824-B8724EAC872C";
name = "Regular Condensed";
paths = (
{
closed = 1;
nodes = (
"374 1767 LINE",
"374 1512 LINE",
"487 1510 LINE",
"487 1767 LINE"
);
},
{
closed = 1;
nodes = (
"374 5 LINE",
"374 -250 LINE",
"487 -250 LINE",
"487 5 LINE"
);
}
);
width = 788;
}
);
unicode = 00A2;
},
{
glyphname = currency;
lastChange = "2013-01-02 06:18:44 -0800";
layers = (
{
layerId = "7DA9E391-A28A-4B33-B824-B8724EAC872C";
name = "Regular Condensed";
paths = (
{
closed = 1;
nodes = (
"797 1331 LINE",
"732 1367 OFFCURVE",
"659 1385 OFFCURVE",
"579 1385 CURVE SMOOTH",
"498 1385 OFFCURVE",
"426 1367 OFFCURVE",
"361 1330 CURVE",
"274 1418 LINE",
"125 1268 LINE",
"215 1178 LINE",
"180 1113 OFFCURVE",
"163 1042 OFFCURVE",
"163 964 CURVE SMOOTH",
"163 887 OFFCURVE",
"181 815 OFFCURVE",
"216 750 CURVE",
"125 659 LINE",
"274 509 LINE",
"363 598 LINE",
"424 563 OFFCURVE",
"496 545 OFFCURVE",
"579 545 CURVE SMOOTH",
"661 545 OFFCURVE",
"733 562 OFFCURVE",
"795 597 CURVE",
"884 509 LINE",
"1034 658 LINE",
"944 748 LINE",
"980 813 OFFCURVE",
"998 885 OFFCURVE",
"998 964 CURVE SMOOTH",
"998 1043 OFFCURVE",
"980 1114 OFFCURVE",
"944 1179 CURVE",
"1034 1269 LINE",
"884 1418 LINE"
);
},
{
closed = 1;
nodes = (
"730 1224 OFFCURVE",
"823 1114 OFFCURVE",
"823 966 CURVE SMOOTH",
"823 822 OFFCURVE",
"727 703 OFFCURVE",
"579 703 CURVE SMOOTH",
"431 703 OFFCURVE",
"336 819 OFFCURVE",
"336 964 CURVE SMOOTH",
"336 1108 OFFCURVE",
"432 1224 OFFCURVE",
"579 1224 CURVE SMOOTH"
);
}
);
width = 1159;
}
);
unicode = 00A4;
},
{
glyphname = dollar;
lastChange = "2013-01-02 06:18:50 -0800";
layers = (
{
components = (
{
name = s;
transform = "{1, 0, 0, 1, 0, 10}";
}
);
layerId = "7DA9E391-A28A-4B33-B824-B8724EAC872C";
name = "Regular Condensed";
paths = (
{
closed = 1;
nodes = (
"401 34 LINE",
"401 -246 LINE",
"526 -246 LINE",
"526 34 LINE"
);
},
{
closed = 1;
nodes = (
"386 1760 LINE",
"386 1485 LINE",
"511 1485 LINE",
"511 1760 LINE"
);
}
);
width = 881;
}
);
unicode = 0024;
},
{
glyphname = sterling;
lastChange = "2013-01-02 06:18:44 -0800";
layers = (
{
layerId = "7DA9E391-A28A-4B33-B824-B8724EAC872C";
name = "Regular Condensed";
paths = (
{
closed = 1;
nodes = (
"304 1781 OFFCURVE",
"173 1665 OFFCURVE",
"173 1383 CURVE SMOOTH",
"173 1269 OFFCURVE",
"194 1127 OFFCURVE",
"241 954 CURVE",
"38 954 LINE",
"38 809 LINE",
"275 809 LINE",
"286 753 OFFCURVE",
"292 689 OFFCURVE",
"292 632 CURVE SMOOTH",
"292 354 OFFCURVE",
"229 215 OFFCURVE",
"65 143 CURVE",
"65 0 LINE",
"842 0 LINE",
"842 164 LINE",
"297 164 LINE",
"435 232 OFFCURVE",
"491 402 OFFCURVE",
"491 634 CURVE SMOOTH",
"491 688 OFFCURVE",
"485 751 OFFCURVE",
"476 809 CURVE",
"787 809 LINE",
"787 954 LINE",
"437 954 LINE",
"384 1146 OFFCURVE",
"363 1286 OFFCURVE",
"363 1386 CURVE SMOOTH",
"363 1573 OFFCURVE",
"436 1625 OFFCURVE",
"520 1625 CURVE SMOOTH",
"635 1625 OFFCURVE",
"655 1526 OFFCURVE",
"655 1393 CURVE SMOOTH",
"655 1246 LINE",
"841 1246 LINE",
"841 1381 LINE SMOOTH",
"841 1652 OFFCURVE",
"739 1781 OFFCURVE",
"520 1781 CURVE SMOOTH"
);
}
);
width = 892;
}
);
unicode = 00A3;
},
{
glyphname = yen;
lastChange = "2013-01-02 06:18:50 -0800";
layers = (
{
components = (
{
name = Y;
transform = "{1, 0, 0, 1, 0, 0}";
}
);
layerId = "7DA9E391-A28A-4B33-B824-B8724EAC872C";
name = "Regular Condensed";
paths = (
{
closed = 1;
nodes = (
"85 798 LINE",
"85 682 LINE",
"377 682 LINE",
"377 507 LINE",
"85 507 LINE",
"85 391 LINE",
"763 391 LINE",
"763 507 LINE",
"506 507 LINE",
"506 682 LINE",
"763 682 LINE",
"763 798 LINE"
);
}
);
width = 843;
}
);
unicode = 00A5;
},
{
glyphname = approxequal;
lastChange = "2013-01-02 06:18:44 -0800";
layers = (
{
layerId = "7DA9E391-A28A-4B33-B824-B8724EAC872C";
name = "Regular Condensed";
paths = (
{
closed = 1;
nodes = (
"814 1101 OFFCURVE",
"777 1066 OFFCURVE",
"743 1062 CURVE SMOOTH",
"679 1062 OFFCURVE",
"453 1150 OFFCURVE",
"349 1150 CURVE SMOOTH",
"247 1150 OFFCURVE",
"170 1071 OFFCURVE",
"119 925 CURVE",
"268 847 LINE",
"295 910 OFFCURVE",
"325 940 OFFCURVE",
"363 940 CURVE SMOOTH",
"469 940 OFFCURVE",
"658 848 OFFCURVE",
"772 848 CURVE SMOOTH",
"881 848 OFFCURVE",
"967 999 OFFCURVE",
"1001 1135 CURVE",
"837 1177 LINE"
);
},
{
closed = 1;
nodes = (
"814 655 OFFCURVE",
"777 620 OFFCURVE",
"743 616 CURVE SMOOTH",
"679 616 OFFCURVE",
"453 704 OFFCURVE",
"349 704 CURVE SMOOTH",
"247 704 OFFCURVE",
"170 624 OFFCURVE",
"119 479 CURVE",
"268 401 LINE",
"295 464 OFFCURVE",
"325 494 OFFCURVE",
"363 494 CURVE SMOOTH",
"469 494 OFFCURVE",
"658 402 OFFCURVE",
"772 402 CURVE SMOOTH",
"881 402 OFFCURVE",
"967 553 OFFCURVE",
"1001 689 CURVE",
"837 731 LINE"
);
}
);
width = 1117;
}
);
unicode = 2248;
},
{
glyphname = asciitilde;
lastChange = "2013-01-02 06:18:44 -0800";
layers = (
{
layerId = "7DA9E391-A28A-4B33-B824-B8724EAC872C";
name = "Regular Condensed";
paths = (
{
closed = 1;
nodes = (
"806 1085 OFFCURVE",
"769 1050 OFFCURVE",
"735 1046 CURVE SMOOTH",
"671 1046 OFFCURVE",
"445 1134 OFFCURVE",
"341 1134 CURVE SMOOTH",
"239 1134 OFFCURVE",
"162 1055 OFFCURVE",
"111 909 CURVE",
"260 831 LINE",
"287 893 OFFCURVE",
"315 924 OFFCURVE",
"355 924 CURVE SMOOTH",
"461 924 OFFCURVE",
"650 832 OFFCURVE",
"764 832 CURVE SMOOTH",
"873 832 OFFCURVE",
"959 983 OFFCURVE",
"993 1119 CURVE",
"829 1161 LINE"
);
}
);
width = 1117;
}
);
unicode = 007E;
},
{
glyphname = divide;
lastChange = "2013-01-02 06:18:44 -0800";
layers = (
{
layerId = "7DA9E391-A28A-4B33-B824-B8724EAC872C";
name = "Regular Condensed";
paths = (
{
closed = 1;
nodes = (
"94 870 LINE",
"94 638 LINE",
"710 638 LINE",
"710 870 LINE"
);
},
{
closed = 1;
nodes = (
"253 535 LINE",
"253 237 LINE",
"551 237 LINE",
"551 535 LINE"
);
},
{
closed = 1;
nodes = (
"253 1274 LINE",
"253 976 LINE",
"551 976 LINE",
"551 1274 LINE"
);
}
);
width = 804;
}
);
unicode = 00F7;
},
{
glyphname = equal;
lastChange = "2013-01-02 06:18:44 -0800";
layers = (
{
layerId = "7DA9E391-A28A-4B33-B824-B8724EAC872C";
name = "Regular Condensed";
paths = (
{
closed = 1;
nodes = (
"84 735 LINE",
"84 576 LINE",
"668 576 LINE",
"668 735 LINE"
);
},
{
closed = 1;
nodes = (
"84 1050 LINE",
"84 892 LINE",
"668 892 LINE",
"668 1050 LINE"
);
}
);
width = 722;
}
);
unicode = 003D;
},
{
glyphname = greater;
lastChange = "2013-01-02 06:18:44 -0800";
layers = (
{
layerId = "7DA9E391-A28A-4B33-B824-B8724EAC872C";
name = "Regular Condensed";
paths = (
{
closed = 1;
nodes = (
"87 1027 LINE",
"520 749 LINE",
"87 484 LINE",
"87 264 LINE",
"663 646 LINE",
"663 857 LINE",
"87 1241 LINE"
);
}
);
width = 730;
}
);
unicode = 003E;
},
{
glyphname = greaterequal;
lastChange = "2013-01-02 06:18:44 -0800";
layers = (
{
layerId = "7DA9E391-A28A-4B33-B824-B8724EAC872C";
name = "Regular Condensed";
paths = (
{
closed = 1;
nodes = (
"103 1039 LINE",
"536 774 LINE",
"103 496 LINE",
"103 282 LINE",
"680 667 LINE",
"680 878 LINE",
"103 1259 LINE"
);
},
{
closed = 1;
nodes = (
"105 144 LINE",
"105 0 LINE",
"645 0 LINE",
"645 144 LINE"
);
}
);
width = 781;
}
);
unicode = 2265;
},
{
glyphname = infinity;
lastChange = "2013-01-02 06:18:44 -0800";
layers = (
{
layerId = "7DA9E391-A28A-4B33-B824-B8724EAC872C";
name = "Regular Condensed";
paths = (
{
closed = 1;
nodes = (
"824 1041 OFFCURVE",
"715 979 OFFCURVE",
"639 885 CURVE",
"562 971 OFFCURVE",
"454 1028 OFFCURVE",
"370 1028 CURVE SMOOTH",
"213 1028 OFFCURVE",
"108 914 OFFCURVE",
"108 744 CURVE SMOOTH",
"108 569 OFFCURVE",
"213 452 OFFCURVE",
"370 452 CURVE SMOOTH",
"460 452 OFFCURVE",
"568 505 OFFCURVE",
"639 585 CURVE",
"708 497 OFFCURVE",
"817 439 OFFCURVE",
"912 439 CURVE SMOOTH",
"1074 439 OFFCURVE",
"1182 561 OFFCURVE",
"1182 744 CURVE SMOOTH",
"1182 922 OFFCURVE",
"1074 1041 OFFCURVE",
"912 1041 CURVE SMOOTH"
);
},
{
closed = 1;
nodes = (
"449 884 OFFCURVE",
"534 826 OFFCURVE",
"588 740 CURVE",
"532 652 OFFCURVE",
"447 594 OFFCURVE",
"374 594 CURVE SMOOTH",
"306 594 OFFCURVE",
"261 652 OFFCURVE",
"261 740 CURVE SMOOTH",
"261 826 OFFCURVE",
"306 884 OFFCURVE",
"374 884 CURVE SMOOTH"
);
},
{
closed = 1;
nodes = (
"983 886 OFFCURVE",
"1031 828 OFFCURVE",
"1031 740 CURVE SMOOTH",
"1031 652 OFFCURVE",
"983 594 OFFCURVE",
"910 594 CURVE SMOOTH",
"830 594 OFFCURVE",
"740 652 OFFCURVE",
"686 740 CURVE",
"744 828 OFFCURVE",
"834 886 OFFCURVE",
"910 886 CURVE SMOOTH"
);
}
);
width = 1300;
}
);
unicode = 221E;
},
{
glyphname = integral;
lastChange = "2013-01-02 06:18:44 -0800";
layers = (
{
layerId = "7DA9E391-A28A-4B33-B824-B8724EAC872C";
name = "Regular Condensed";
paths = (
{
closed = 1;
nodes = (
"351 1785 OFFCURVE",
"286 1703 OFFCURVE",
"286 1539 CURVE SMOOTH",
"286 305 LINE SMOOTH",
"286 187 OFFCURVE",
"272 154 OFFCURVE",
"167 154 CURVE SMOOTH",
"152 154 OFFCURVE",
"135 156 OFFCURVE",
"115 157 CURVE",
"115 8 LINE",
"169 -7 OFFCURVE",
"220 -15 OFFCURVE",
"270 -15 CURVE SMOOTH",
"415 -15 OFFCURVE",
"480 66 OFFCURVE",
"480 221 CURVE SMOOTH",
"480 1503 LINE SMOOTH",
"480 1584 OFFCURVE",
"498 1622 OFFCURVE",
"557 1622 CURVE SMOOTH",
"581 1622 OFFCURVE",
"612 1615 OFFCURVE",
"652 1603 CURVE",
"652 1752 LINE",
"593 1774 OFFCURVE",
"536 1785 OFFCURVE",
"483 1785 CURVE SMOOTH"
);
}
);
width = 767;
}
);
unicode = 222B;
},
{
glyphname = less;
lastChange = "2013-01-02 06:18:44 -0800";
layers = (
{
layerId = "7DA9E391-A28A-4B33-B824-B8724EAC872C";
name = "Regular Condensed";
paths = (
{
closed = 1;
nodes = (
"64 860 LINE",
"64 649 LINE",
"640 264 LINE",
"640 478 LINE",
"207 755 LINE",
"640 1021 LINE",
"640 1241 LINE"
);
}
);
width = 730;
}
);
unicode = 003C;
},
{
glyphname = lessequal;
lastChange = "2013-01-02 06:18:44 -0800";
layers = (
{
layerId = "7DA9E391-A28A-4B33-B824-B8724EAC872C";
name = "Regular Condensed";
paths = (
{
closed = 1;
nodes = (
"70 878 LINE",
"70 667 LINE",
"647 282 LINE",
"647 496 LINE",
"213 774 LINE",
"647 1039 LINE",
"647 1259 LINE"
);
},
{
closed = 1;
nodes = (
"102 144 LINE",
"102 0 LINE",
"642 0 LINE",
"642 144 LINE"
);
}
);
width = 781;
}
);
unicode = 2264;
},
{
glyphname = logicalnot;
lastChange = "2013-01-02 06:18:44 -0800";
layers = (
{
layerId = "7DA9E391-A28A-4B33-B824-B8724EAC872C";
name = "Regular Condensed";
paths = (
{
closed = 1;
nodes = (
"97 979 LINE",
"97 743 LINE",
"602 743 LINE",
"602 439 LINE",
"826 439 LINE",
"826 979 LINE"
);
}
);
width = 947;
}
);
unicode = 00AC;
},
{
glyphname = minus;
lastChange = "2013-01-02 06:18:44 -0800";
layers = (
{
layerId = "7DA9E391-A28A-4B33-B824-B8724EAC872C";
name = "Regular Condensed";
paths = (
{
closed = 1;
nodes = (
"60 741 LINE",
"60 509 LINE",
"576 509 LINE",
"576 741 LINE"
);
}
);
width = 637;
}
);
unicode = 2212;
},
{
glyphname = multiply;
lastChange = "2013-01-02 06:18:44 -0800";
layers = (
{
layerId = "7DA9E391-A28A-4B33-B824-B8724EAC872C";
name = "Regular Condensed";
paths = (
{
closed = 1;
nodes = (
"355 789 LINE",
"208 936 LINE",
"44 772 LINE",
"191 625 LINE",
"44 478 LINE",
"208 314 LINE",
"355 461 LINE",
"502 314 LINE",
"666 478 LINE",
"519 625 LINE",
"666 772 LINE",
"502 936 LINE"
);
}
);
width = 710;
}
);
unicode = 00D7;
},
{
glyphname = partialdiff;
lastChange = "2013-01-02 06:18:44 -0800";
layers = (
{
layerId = "7DA9E391-A28A-4B33-B824-B8724EAC872C";
name = "Regular Condensed";
paths = (
{
closed = 1;
nodes = (
"513 1681 OFFCURVE",
"383 1656 OFFCURVE",
"229 1607 CURVE",
"283 1376 LINE",
"334 1396 OFFCURVE",
"432 1415 OFFCURVE",
"507 1415 CURVE SMOOTH",
"626 1415 OFFCURVE",
"665 1306 OFFCURVE",
"665 1164 CURVE SMOOTH",
"665 1132 OFFCURVE",
"661 1093 OFFCURVE",
"654 1047 CURVE",
"577 1073 OFFCURVE",
"508 1086 OFFCURVE",
"445 1086 CURVE SMOOTH",
"123 1086 OFFCURVE",
"37 735 OFFCURVE",
"37 413 CURVE SMOOTH",
"37 127 OFFCURVE",
"158 -21 OFFCURVE",
"446 -21 CURVE SMOOTH",
"669 -21 OFFCURVE",
"811 54 OFFCURVE",
"890 196 CURVE SMOOTH",
"977 354 OFFCURVE",
"1030 1074 OFFCURVE",
"1030 1159 CURVE SMOOTH",
"1030 1479 OFFCURVE",
"928 1681 OFFCURVE",
"619 1681 CURVE SMOOTH"
);
},
{
closed = 1;
nodes = (
"560 794 OFFCURVE",
"589 782 OFFCURVE",
"622 759 CURVE",
"591 419 LINE SMOOTH",
"585 349 OFFCURVE",
"556 293 OFFCURVE",
"490 293 CURVE SMOOTH",
"432 293 OFFCURVE",
"417 332 OFFCURVE",
"417 391 CURVE SMOOTH",
"417 411 OFFCURVE",
"419 439 OFFCURVE",
"423 475 CURVE SMOOTH",
"440 645 LINE SMOOTH",
"450 744 OFFCURVE",
"481 794 OFFCURVE",
"534 794 CURVE SMOOTH"
);
}
);
width = 1072;
}
);
unicode = 2202;
},
{
glyphname = percent;
lastChange = "2013-01-02 06:18:44 -0800";
layers = (
{
layerId = "7DA9E391-A28A-4B33-B824-B8724EAC872C";
name = "Regular Condensed";
paths = (
{
closed = 1;
nodes = (
"1360 1760 LINE",
"652 0 LINE",
"831 0 LINE",
"1531 1760 LINE"
);
},
{
closed = 1;
nodes = (
"564 1621 OFFCURVE",
"591 1575 OFFCURVE",
"591 1433 CURVE SMOOTH",
"591 937 LINE SMOOTH",
"591 792 OFFCURVE",
"563 742 OFFCURVE",
"466 742 CURVE SMOOTH",
"369 742 OFFCURVE",
"341 792 OFFCURVE",
"341 937 CURVE SMOOTH",
"341 1433 LINE SMOOTH",
"341 1574 OFFCURVE",
"368 1621 OFFCURVE",
"466 1621 CURVE SMOOTH"
);
},
{
closed = 1;
nodes = (
"233 1782 OFFCURVE",
"156 1675 OFFCURVE",
"156 1364 CURVE SMOOTH",
"156 1009 LINE SMOOTH",
"156 692 OFFCURVE",
"236 581 OFFCURVE",
"466 581 CURVE SMOOTH",
"697 581 OFFCURVE",
"777 692 OFFCURVE",
"777 1009 CURVE SMOOTH",
"777 1364 LINE SMOOTH",
"777 1675 OFFCURVE",
"700 1782 OFFCURVE",
"466 1782 CURVE SMOOTH"
);
},
{
closed = 1;
nodes = (
"1478 1181 OFFCURVE",
"1401 1074 OFFCURVE",
"1401 763 CURVE SMOOTH",
"1401 408 LINE SMOOTH",
"1401 91 OFFCURVE",
"1481 -20 OFFCURVE",
"1712 -20 CURVE SMOOTH",
"1942 -20 OFFCURVE",
"2022 91 OFFCURVE",
"2022 408 CURVE SMOOTH",
"2022 763 LINE SMOOTH",
"2022 1074 OFFCURVE",
"1945 1181 OFFCURVE",
"1712 1181 CURVE SMOOTH"
);
},
{
closed = 1;
nodes = (
"1810 1020 OFFCURVE",
"1837 974 OFFCURVE",
"1837 832 CURVE SMOOTH",
"1837 336 LINE SMOOTH",
"1837 191 OFFCURVE",
"1808 141 OFFCURVE",
"1712 141 CURVE SMOOTH",
"1615 141 OFFCURVE",
"1587 191 OFFCURVE",
"1587 336 CURVE SMOOTH",
"1587 832 LINE SMOOTH",
"1587 973 OFFCURVE",
"1614 1020 OFFCURVE",
"1712 1020 CURVE SMOOTH"
);
}
);
width = 2178;
}
);
unicode = 0025;
},
{
glyphname = perthousand;
lastChange = "2013-01-02 06:18:44 -0800";
layers = (
{
layerId = "7DA9E391-A28A-4B33-B824-B8724EAC872C";
name = "Regular Condensed";
paths = (
{
closed = 1;
nodes = (
"1360 1760 LINE",
"652 0 LINE",
"831 0 LINE",
"1531 1760 LINE"
);
},
{
closed = 1;
nodes = (
"564 1621 OFFCURVE",
"591 1575 OFFCURVE",
"591 1433 CURVE SMOOTH",
"591 937 LINE SMOOTH",
"591 792 OFFCURVE",
"563 742 OFFCURVE",
"466 742 CURVE SMOOTH",
"369 742 OFFCURVE",
"341 792 OFFCURVE",
"341 937 CURVE SMOOTH",
"341 1433 LINE SMOOTH",
"341 1574 OFFCURVE",
"368 1621 OFFCURVE",
"466 1621 CURVE SMOOTH"
);
},
{
closed = 1;
nodes = (
"233 1782 OFFCURVE",
"156 1675 OFFCURVE",
"156 1364 CURVE SMOOTH",
"156 1009 LINE SMOOTH",
"156 692 OFFCURVE",
"236 581 OFFCURVE",
"466 581 CURVE SMOOTH",
"697 581 OFFCURVE",
"777 692 OFFCURVE",
"777 1009 CURVE SMOOTH",
"777 1364 LINE SMOOTH",
"777 1675 OFFCURVE",
"700 1782 OFFCURVE",
"466 1782 CURVE SMOOTH"
);
},
{
closed = 1;
nodes = (
"1827 1020 OFFCURVE",
"1854 974 OFFCURVE",
"1854 832 CURVE SMOOTH",
"1854 336 LINE SMOOTH",
"1854 191 OFFCURVE",
"1826 141 OFFCURVE",
"1729 141 CURVE SMOOTH",
"1632 141 OFFCURVE",
"1604 191 OFFCURVE",
"1604 336 CURVE SMOOTH",
"1604 832 LINE SMOOTH",
"1604 973 OFFCURVE",
"1631 1020 OFFCURVE",
"1729 1020 CURVE SMOOTH"
);
},
{
closed = 1;
nodes = (
"1496 1181 OFFCURVE",
"1419 1074 OFFCURVE",
"1419 763 CURVE SMOOTH",
"1419 408 LINE SMOOTH",
"1419 91 OFFCURVE",
"1499 -20 OFFCURVE",
"1729 -20 CURVE SMOOTH",
"1960 -20 OFFCURVE",
"2040 91 OFFCURVE",
"2040 408 CURVE SMOOTH",
"2040 763 LINE SMOOTH",
"2040 1074 OFFCURVE",
"1963 1181 OFFCURVE",
"1729 1181 CURVE SMOOTH"
);
},
{
closed = 1;
nodes = (
"2342 1181 OFFCURVE",
"2265 1074 OFFCURVE",
"2265 763 CURVE SMOOTH",
"2265 408 LINE SMOOTH",
"2265 91 OFFCURVE",
"2345 -20 OFFCURVE",
"2576 -20 CURVE SMOOTH",
"2806 -20 OFFCURVE",
"2886 91 OFFCURVE",
"2886 408 CURVE SMOOTH",
"2886 763 LINE SMOOTH",
"2886 1074 OFFCURVE",
"2809 1181 OFFCURVE",
"2576 1181 CURVE SMOOTH"
);
},
{
closed = 1;
nodes = (
"2674 1020 OFFCURVE",
"2701 974 OFFCURVE",
"2701 832 CURVE SMOOTH",
"2701 336 LINE SMOOTH",
"2701 191 OFFCURVE",
"2673 141 OFFCURVE",
"2576 141 CURVE SMOOTH",
"2479 141 OFFCURVE",
"2451 191 OFFCURVE",
"2451 336 CURVE SMOOTH",
"2451 832 LINE SMOOTH",
"2451 973 OFFCURVE",
"2478 1020 OFFCURVE",
"2576 1020 CURVE SMOOTH"
);
}
);
width = 3206;
}
);
unicode = 2030;
},
{
glyphname = plus;
lastChange = "2013-01-02 06:18:44 -0800";
layers = (
{
layerId = "7DA9E391-A28A-4B33-B824-B8724EAC872C";
name = "Regular Condensed";
paths = (
{
closed = 1;
nodes = (
"327 1137 LINE",
"327 891 LINE",
"103 891 LINE",
"103 751 LINE",
"327 751 LINE",
"327 501 LINE",
"476 501 LINE",
"476 751 LINE",
"703 751 LINE",
"703 891 LINE",
"476 891 LINE",
"476 1137 LINE"
);
}
);
width = 808;
}
);
unicode = 002B;
},
{
glyphname = plusminus;
lastChange = "2013-01-02 06:18:44 -0800";
layers = (
{
layerId = "7DA9E391-A28A-4B33-B824-B8724EAC872C";
name = "Regular Condensed";
paths = (
{
closed = 1;
nodes = (
"353 1152 LINE",
"353 906 LINE",
"129 906 LINE",
"129 766 LINE",
"353 766 LINE",
"353 516 LINE",
"501 516 LINE",
"501 766 LINE",
"729 766 LINE",
"729 906 LINE",
"501 906 LINE",
"501 1152 LINE"
);
},
{
closed = 1;
nodes = (
"165 337 LINE",
"165 188 LINE",
"681 188 LINE",
"681 337 LINE"
);
}
);
width = 854;
}
);
unicode = 00B1;
},
{
glyphname = product;
lastChange = "2013-01-02 06:18:44 -0800";
layers = (
{
layerId = "7DA9E391-A28A-4B33-B824-B8724EAC872C";
name = "Regular Condensed";
paths = (
{
closed = 1;
nodes = (
"146 1760 LINE",
"146 0 LINE",
"350 0 LINE",
"350 1598 LINE",
"631 1598 LINE",
"631 0 LINE",
"835 0 LINE",
"835 1760 LINE"
);
}
);
width = 981;
}
);
unicode = 220F;
},
{
glyphname = radical;
lastChange = "2013-01-02 06:21:08 -0800";
layers = (
{
layerId = "7DA9E391-A28A-4B33-B824-B8724EAC872C";
name = "Regular Condensed";
paths = (
{
closed = 1;
nodes = (
"679 1500 LINE",
"478 258 LINE",
"328 741 LINE",
"99 741 LINE",
"363 0 LINE",
"617 0 LINE",
"878 1359 LINE",
"1442 1359 LINE",
"1442 1500 LINE"
);
}
);
width = 1537;
}
);
unicode = 221A;
},
{
glyphname = summation;
lastChange = "2013-01-02 06:23:16 -0800";
layers = (
{
layerId = "7DA9E391-A28A-4B33-B824-B8724EAC872C";
name = "Regular Condensed";
paths = (
{
closed = 1;
nodes = (
"116 1761 LINE",
"116 1585 LINE",
"361 881 LINE",
"116 181 LINE",
"116 0 LINE",
"663 0 LINE",
"663 185 LINE",
"350 185 LINE",
"588 880 LINE",
"350 1581 LINE",
"663 1581 LINE",
"663 1761 LINE"
);
}
);
width = 716;
}
);
unicode = 2211;
},
{
glyphname = ampersand;
lastChange = "2013-01-02 06:18:44 -0800";
layers = (
{
layerId = "7DA9E391-A28A-4B33-B824-B8724EAC872C";
name = "Regular Condensed";
paths = (
{
closed = 1;
nodes = (
"303 1782 OFFCURVE",
"191 1664 OFFCURVE",
"191 1437 CURVE SMOOTH",
"191 1180 OFFCURVE",
"678 235 OFFCURVE",
"775 0 CURVE",
"959 0 LINE",
"822 317 OFFCURVE",
"385 1216 OFFCURVE",
"385 1441 CURVE SMOOTH",
"385 1515 OFFCURVE",
"384 1633 OFFCURVE",
"510 1633 CURVE SMOOTH",
"608 1633 OFFCURVE",
"627 1572 OFFCURVE",
"627 1445 CURVE SMOOTH",
"627 1057 OFFCURVE",
"66 848 OFFCURVE",
"66 365 CURVE SMOOTH",
"66 108 OFFCURVE",
"193 -20 OFFCURVE",
"379 -20 CURVE SMOOTH",
"746 -20 OFFCURVE",
"741 403 OFFCURVE",
"982 690 CURVE",
"894 834 LINE",
"626 516 OFFCURVE",
"591 155 OFFCURVE",
"409 155 CURVE SMOOTH",
"290 155 OFFCURVE",
"247 247 OFFCURVE",
"255 388 CURVE SMOOTH",
"277 766 OFFCURVE",
"788 1025 OFFCURVE",
"788 1434 CURVE SMOOTH",
"788 1655 OFFCURVE",
"716 1782 OFFCURVE",
"495 1782 CURVE SMOOTH"
);
}
);
width = 981;
}
);
unicode = 0026;
},
{
glyphname = asciicircum;
lastChange = "2013-01-02 06:18:44 -0800";
layers = (
{
layerId = "7DA9E391-A28A-4B33-B824-B8724EAC872C";
name = "Regular Condensed";
paths = (
{
closed = 1;
nodes = (
"384 1500 LINE",
"143 577 LINE",
"345 577 LINE",
"515 1340 LINE",
"685 577 LINE",
"886 577 LINE",
"645 1500 LINE"
);
}
);
width = 1030;
}
);
unicode = 005E;
},
{
glyphname = at;
lastChange = "2013-01-02 06:18:44 -0800";
layers = (
{
layerId = "7DA9E391-A28A-4B33-B824-B8724EAC872C";
name = "Regular Condensed";
paths = (
{
closed = 1;
nodes = (
"281 1781 OFFCURVE",
"94 1400 OFFCURVE",
"94 836 CURVE SMOOTH",
"94 237 OFFCURVE",
"304 -56 OFFCURVE",
"690 -56 CURVE SMOOTH",
"760 -56 OFFCURVE",
"818 -46 OFFCURVE",
"911 -27 CURVE",
"889 112 LINE",
"819 91 OFFCURVE",
"749 84 OFFCURVE",
"694 84 CURVE SMOOTH",
"401 84 OFFCURVE",
"254 291 OFFCURVE",
"254 833 CURVE SMOOTH",
"254 1315 OFFCURVE",
"385 1636 OFFCURVE",
"751 1636 CURVE SMOOTH",
"1117 1636 OFFCURVE",
"1173 1286 OFFCURVE",
"1173 942 CURVE SMOOTH",
"1173 634 OFFCURVE",
"1148 518 OFFCURVE",
"1077 518 CURVE SMOOTH",
"1022 518 OFFCURVE",
"1005 587 OFFCURVE",
"1005 713 CURVE SMOOTH",
"1005 1270 LINE",
"905 1270 LINE",
"875 1148 LINE",
"840 1209 OFFCURVE",
"772 1283 OFFCURVE",
"669 1283 CURVE SMOOTH",
"501 1283 OFFCURVE",
"409 1093 OFFCURVE",
"409 804 CURVE SMOOTH",
"409 477 OFFCURVE",
"548 361 OFFCURVE",
"692 361 CURVE SMOOTH",
"790 361 OFFCURVE",
"870 452 OFFCURVE",
"894 591 CURVE",
"917 477 OFFCURVE",
"989 378 OFFCURVE",
"1070 378 CURVE SMOOTH",
"1245 378 OFFCURVE",
"1316 604 OFFCURVE",
"1316 910 CURVE SMOOTH",
"1316 1440 OFFCURVE",
"1151 1781 OFFCURVE",
"764 1781 CURVE SMOOTH"
);
},
{
closed = 1;
nodes = (
"867 759 LINE SMOOTH",
"867 609 OFFCURVE",
"795 509 OFFCURVE",
"706 509 CURVE SMOOTH",
"608 509 OFFCURVE",
"548 584 OFFCURVE",
"548 810 CURVE SMOOTH",
"548 1133 OFFCURVE",
"656 1205 OFFCURVE",
"867 1062 CURVE"
);
}
);
width = 1406;
}
);
unicode = 0040;
},
{
glyphname = bar;
lastChange = "2013-01-02 06:18:44 -0800";
layers = (
{
layerId = "7DA9E391-A28A-4B33-B824-B8724EAC872C";
name = "Regular Condensed";
paths = (
{
closed = 1;
nodes = (
"175 1683 LINE",
"175 -84 LINE",
"372 -84 LINE",
"372 1683 LINE"
);
}
);
width = 537;
}
);
unicode = 007C;
},
{
glyphname = brokenbar;
lastChange = "2013-01-02 06:18:44 -0800";
layers = (
{
layerId = "7DA9E391-A28A-4B33-B824-B8724EAC872C";
name = "Regular Condensed";
paths = (
{
closed = 1;
nodes = (
"122 1727 LINE",
"122 897 LINE",
"319 897 LINE",
"319 1727 LINE"
);
},
{
closed = 1;
nodes = (
"122 690 LINE",
"122 -118 LINE",
"319 -118 LINE",
"319 690 LINE"
);
}
);
width = 530;
}
);
unicode = 00A6;
},
{
glyphname = copyright;
lastChange = "2013-01-02 06:18:44 -0800";
layers = (
{
layerId = "7DA9E391-A28A-4B33-B824-B8724EAC872C";
name = "Regular Condensed";
paths = (
{
closed = 1;
nodes = (
"360 1519 OFFCURVE",
"76 1235 OFFCURVE",
"76 862 CURVE SMOOTH",
"76 489 OFFCURVE",
"360 205 OFFCURVE",
"733 205 CURVE SMOOTH",
"1106 205 OFFCURVE",
"1390 489 OFFCURVE",
"1390 862 CURVE SMOOTH",
"1390 1235 OFFCURVE",
"1106 1519 OFFCURVE",
"733 1519 CURVE SMOOTH"
);
},
{
closed = 1;
nodes = (
"571 1305 OFFCURVE",
"497 1217 OFFCURVE",
"497 1049 CURVE SMOOTH",
"497 648 LINE SMOOTH",
"497 507 OFFCURVE",
"593 424 OFFCURVE",
"732 424 CURVE SMOOTH",
"894 424 OFFCURVE",
"951 497 OFFCURVE",
"951 643 CURVE SMOOTH",
"951 806 LINE",
"782 806 LINE",
"782 657 LINE SMOOTH",
"782 614 OFFCURVE",
"767 592 OFFCURVE",
"736 592 CURVE SMOOTH",
"708 592 OFFCURVE",
"692 627 OFFCURVE",
"692 657 CURVE SMOOTH",
"692 1066 LINE SMOOTH",
"692 1104 OFFCURVE",
"699 1130 OFFCURVE",
"736 1130 CURVE SMOOTH",
"767 1130 OFFCURVE",
"782 1104 OFFCURVE",
"782 1053 CURVE SMOOTH",
"782 952 LINE",
"947 952 LINE",
"947 1105 LINE SMOOTH",
"947 1239 OFFCURVE",
"870 1305 OFFCURVE",
"736 1305 CURVE SMOOTH"
);
},
{
closed = 1;
nodes = (
"1022 1390 OFFCURVE",
"1231 1153 OFFCURVE",
"1231 862 CURVE SMOOTH",
"1231 571 OFFCURVE",
"1022 334 OFFCURVE",
"733 334 CURVE SMOOTH",
"444 334 OFFCURVE",
"235 571 OFFCURVE",
"235 862 CURVE SMOOTH",
"235 1153 OFFCURVE",
"444 1390 OFFCURVE",
"733 1390 CURVE SMOOTH"
);
}
);
width = 1466;
}
);
unicode = 00A9;
},
{
glyphname = dagger;
lastChange = "2013-01-02 06:18:44 -0800";
layers = (
{
layerId = "7DA9E391-A28A-4B33-B824-B8724EAC872C";
name = "Regular Condensed";
paths = (
{
closed = 1;
nodes = (
"352 1592 LINE",
"352 1182 LINE",
"91 1182 LINE",
"91 1017 LINE",
"352 1017 LINE",
"352 0 LINE",
"560 0 LINE",
"560 1017 LINE",
"818 1017 LINE",
"818 1182 LINE",
"560 1182 LINE",
"560 1592 LINE"
);
}
);
width = 909;
}
);
unicode = 2020;
},
{
glyphname = daggerdbl;
lastChange = "2013-01-02 06:18:44 -0800";
layers = (
{
layerId = "7DA9E391-A28A-4B33-B824-B8724EAC872C";
name = "Regular Condensed";
paths = (
{
closed = 1;
nodes = (
"352 1592 LINE",
"352 1182 LINE",
"91 1182 LINE",
"91 1017 LINE",
"352 1017 LINE",
"352 668 LINE",
"91 668 LINE",
"91 503 LINE",
"352 503 LINE",
"352 0 LINE",
"560 0 LINE",
"560 503 LINE",
"818 503 LINE",
"818 668 LINE",
"560 668 LINE",
"560 1017 LINE",
"818 1017 LINE",
"818 1182 LINE",
"560 1182 LINE",
"560 1592 LINE"
);
}
);
width = 927;
}
);
unicode = 2021;
},
{
glyphname = degree;
lastChange = "2013-01-02 06:18:44 -0800";
layers = (
{
layerId = "7DA9E391-A28A-4B33-B824-B8724EAC872C";
name = "Regular Condensed";
paths = (
{
closed = 1;
nodes = (
"243 1607 OFFCURVE",
"104 1480 OFFCURVE",
"104 1269 CURVE SMOOTH",
"104 1057 OFFCURVE",
"243 931 OFFCURVE",
"457 931 CURVE SMOOTH",
"671 931 OFFCURVE",
"811 1058 OFFCURVE",
"811 1269 CURVE SMOOTH",
"811 1480 OFFCURVE",
"671 1607 OFFCURVE",
"457 1607 CURVE SMOOTH"
);
},
{
closed = 1;
nodes = (
"547 1426 OFFCURVE",
"600 1356 OFFCURVE",
"600 1269 CURVE SMOOTH",
"600 1182 OFFCURVE",
"547 1112 OFFCURVE",
"458 1112 CURVE SMOOTH",
"369 1112 OFFCURVE",
"316 1182 OFFCURVE",
"316 1269 CURVE SMOOTH",
"316 1356 OFFCURVE",
"369 1426 OFFCURVE",
"458 1426 CURVE SMOOTH"
);
}
);
width = 915;
}
);
unicode = 00B0;
},
{
glyphname = paragraph;
lastChange = "2013-01-02 06:18:44 -0800";
layers = (
{
layerId = "7DA9E391-A28A-4B33-B824-B8724EAC872C";
name = "Regular Condensed";
paths = (
{
closed = 1;
nodes = (
"654 1761 LINE SMOOTH",
"277 1761 OFFCURVE",
"135 1698 OFFCURVE",
"135 1456 CURVE SMOOTH",
"135 1263 OFFCURVE",
"244 1159 OFFCURVE",
"458 1135 CURVE",
"458 0 LINE",
"636 0 LINE",
"636 1575 LINE",
"779 1575 LINE",
"779 0 LINE",
"957 0 LINE",
"957 1761 LINE"
);
}
);
width = 1119;
}
);
unicode = 00B6;
},
{
glyphname = registered;
lastChange = "2013-01-02 06:18:44 -0800";
layers = (
{
layerId = "7DA9E391-A28A-4B33-B824-B8724EAC872C";
name = "Regular Condensed";
paths = (
{
closed = 1;
nodes = (
"378 1519 OFFCURVE",
"94 1235 OFFCURVE",
"94 862 CURVE SMOOTH",
"94 489 OFFCURVE",
"378 205 OFFCURVE",
"751 205 CURVE SMOOTH",
"1124 205 OFFCURVE",
"1408 489 OFFCURVE",
"1408 862 CURVE SMOOTH",
"1408 1235 OFFCURVE",
"1124 1519 OFFCURVE",
"751 1519 CURVE SMOOTH"
);
},
{
closed = 1;
nodes = (
"1040 1390 OFFCURVE",
"1249 1153 OFFCURVE",
"1249 862 CURVE SMOOTH",
"1249 571 OFFCURVE",
"1040 334 OFFCURVE",
"751 334 CURVE SMOOTH",
"462 334 OFFCURVE",
"253 571 OFFCURVE",
"253 862 CURVE SMOOTH",
"253 1153 OFFCURVE",
"462 1390 OFFCURVE",
"751 1390 CURVE SMOOTH"
);
},
{
closed = 1;
nodes = (
"529 1282 LINE",
"529 430 LINE",
"719 430 LINE",
"719 818 LINE",
"769 818 OFFCURVE",
"791 812 OFFCURVE",
"791 762 CURVE SMOOTH",
"791 430 LINE",
"975 430 LINE",
"975 751 LINE SMOOTH",
"975 822 OFFCURVE",
"949 863 OFFCURVE",
"896 873 CURVE",
"968 896 OFFCURVE",
"989 951 OFFCURVE",
"989 1043 CURVE SMOOTH",
"989 1187 OFFCURVE",
"963 1282 OFFCURVE",
"818 1282 CURVE SMOOTH"
);
},
{
closed = 1;
nodes = (
"790 1124 OFFCURVE",
"805 1114 OFFCURVE",
"805 1043 CURVE SMOOTH",
"805 991 OFFCURVE",
"793 965 OFFCURVE",
"768 965 CURVE SMOOTH",
"720 965 LINE",
"720 1124 LINE"
);
}
);
width = 1502;
}
);
unicode = 00AE;
},
{
glyphname = section;
lastChange = "2013-01-02 06:18:44 -0800";
layers = (
{
layerId = "7DA9E391-A28A-4B33-B824-B8724EAC872C";
name = "Regular Condensed";
paths = (
{
closed = 1;
nodes = (
"217 1782 OFFCURVE",
"88 1664 OFFCURVE",
"88 1487 CURVE SMOOTH",
"88 1381 OFFCURVE",
"150 1255 OFFCURVE",
"242 1172 CURVE",
"141 1129 OFFCURVE",
"87 1050 OFFCURVE",
"87 953 CURVE SMOOTH",
"87 636 OFFCURVE",
"559 623 OFFCURVE",
"559 281 CURVE SMOOTH",
"559 187 OFFCURVE",
"519 125 OFFCURVE",
"437 125 CURVE SMOOTH",
"317 125 OFFCURVE",
"299 212 OFFCURVE",
"299 342 CURVE SMOOTH",
"299 434 LINE",
"100 434 LINE",
"100 340 LINE SMOOTH",
"100 100 OFFCURVE",
"230 -20 OFFCURVE",
"426 -20 CURVE SMOOTH",
"617 -20 OFFCURVE",
"745 100 OFFCURVE",
"745 281 CURVE SMOOTH",
"745 367 OFFCURVE",
"717 485 OFFCURVE",
"586 596 CURVE",
"657 640 OFFCURVE",
"745 692 OFFCURVE",
"745 800 CURVE SMOOTH",
"745 915 OFFCURVE",
"672 1055 OFFCURVE",
"425 1249 CURVE SMOOTH",
"342 1317 OFFCURVE",
"268 1414 OFFCURVE",
"268 1493 CURVE SMOOTH",
"268 1571 OFFCURVE",
"310 1637 OFFCURVE",
"391 1637 CURVE SMOOTH",
"453 1637 OFFCURVE",
"525 1586 OFFCURVE",
"525 1418 CURVE SMOOTH",
"525 1332 LINE",
"719 1332 LINE",
"719 1393 LINE SMOOTH",
"719 1626 OFFCURVE",
"596 1782 OFFCURVE",
"411 1782 CURVE SMOOTH"
);
},
{
closed = 1;
nodes = (
"339 1074 LINE",
"523 943 OFFCURVE",
"588 867 OFFCURVE",
"588 794 CURVE SMOOTH",
"588 742 OFFCURVE",
"557 702 OFFCURVE",
"514 673 CURVE",
"325 821 OFFCURVE",
"257 881 OFFCURVE",
"257 948 CURVE SMOOTH",
"257 998 OFFCURVE",
"286 1045 OFFCURVE",
"338 1075 CURVE"
);
}
);
width = 805;
}
);
unicode = 00A7;
},
{
glyphname = Euro;
lastChange = "2013-01-02 06:18:50 -0800";
layers = (
{
components = (
{
name = C;
transform = "{1, 0, 0, 1, 0, 0}";
}
);
layerId = "7DA9E391-A28A-4B33-B824-B8724EAC872C";
name = "Regular Condensed";
paths = (
{
closed = 1;
nodes = (
"23 1106 LINE",
"23 966 LINE",
"164 966 LINE",
"164 869 LINE",
"23 869 LINE",
"23 721 LINE",
"518 721 LINE",
"518 869 LINE",
"254 869 LINE",
"254 966 LINE",
"518 966 LINE",
"518 1106 LINE"
);
}
);
width = 1076;
}
);
unicode = 20AC;
},
{
glyphname = uni2215;
lastChange = "2013-01-02 06:18:44 -0800";
layers = (
{
layerId = "7DA9E391-A28A-4B33-B824-B8724EAC872C";
name = "Regular Condensed";
paths = (
{
closed = 1;
nodes = (
"531 1768 LINE",
"76 0 LINE",
"253 0 LINE",
"709 1768 LINE"
);
}
);
width = 829;
}
);
unicode = 2215;
},
{
glyphname = trademark;
lastChange = "2013-01-02 06:18:44 -0800";
layers = (
{
layerId = "7DA9E391-A28A-4B33-B824-B8724EAC872C";
name = "Regular Condensed";
paths = (
{
closed = 1;
nodes = (
"1206 1761 LINE",
"1040 717 LINE",
"868 1761 LINE",
"661 1761 LINE",
"661 476 LINE",
"801 476 LINE",
"801 1001 LINE",
"789 1498 LINE",
"966 476 LINE",
"1115 476 LINE",
"1285 1498 LINE",
"1273 1001 LINE",
"1273 476 LINE",
"1413 476 LINE",
"1413 1761 LINE"
);
},
{
closed = 1;
nodes = (
"103 1761 LINE",
"103 1635 LINE",
"246 1635 LINE",
"246 476 LINE",
"398 476 LINE",
"398 1635 LINE",
"531 1635 LINE",
"531 1761 LINE"
);
}
);
width = 1537;
}
);
unicode = 2122;
},
{
glyphname = lozenge;
lastChange = "2013-01-02 06:24:19 -0800";
layers = (
{
layerId = "7DA9E391-A28A-4B33-B824-B8724EAC872C";
name = "Regular Condensed";
paths = (
{
closed = 1;
nodes = (
"297 1626 LINE",
"74 863 LINE",
"297 110 LINE",
"618 110 LINE",
"847 863 LINE",
"618 1626 LINE"
);
},
{
closed = 1;
nodes = (
"629 863 LINE",
"475 289 LINE",
"443 289 LINE",
"289 863 LINE",
"443 1437 LINE",
"475 1437 LINE"
);
}
);
width = 921;
}
);
unicode = 25CA;
},
{
glyphname = commaaccentcomb;
lastChange = "2013-01-02 06:18:44 -0800";
layers = (
{
anchors = (
{
name = _bottom;
position = "{281, 283}";
}
);
layerId = "7DA9E391-A28A-4B33-B824-B8724EAC872C";
name = "Regular Condensed";
paths = (
{
closed = 1;
nodes = (
"145 128 LINE",
"145 -99 LINE",
"253 -99 LINE",
"204 -387 LINE",
"294 -387 LINE",
"379 -90 LINE",
"379 128 LINE"
);
}
);
width = 528;
}
);
unicode = 0326;
},
{
glyphname = dblgravecmb;
lastChange = "2013-01-02 06:18:44 -0800";
layers = (
{
anchors = (
{
name = _top;
position = "{412, 1500}";
}
);
layerId = "7DA9E391-A28A-4B33-B824-B8724EAC872C";
name = "Regular Condensed";
paths = (
{
closed = 1;
nodes = (
"6 1957 LINE",
"271 1640 LINE",
"365 1690 LINE",
"168 2057 LINE"
);
},
{
closed = 1;
nodes = (
"339 1957 LINE",
"563 1640 LINE",
"657 1690 LINE",
"497 2057 LINE"
);
}
);
width = 825;
}
);
unicode = 030F;
},
{
glyphname = uni0307;
lastChange = "2013-01-02 06:18:44 -0800";
layers = (
{
anchors = (
{
name = _top;
position = "{286, 300}";
}
);
layerId = "7DA9E391-A28A-4B33-B824-B8724EAC872C";
name = "Regular Condensed";
paths = (
{
closed = 1;
nodes = (
"107 756 LINE",
"107 458 LINE",
"465 458 LINE",
"465 756 LINE"
);
}
);
width = 572;
}
);
unicode = 0307;
},
{
glyphname = uni0311;
lastChange = "2013-01-02 06:18:44 -0800";
layers = (
{
anchors = (
{
name = _top;
position = "{509, 1500}";
}
);
layerId = "7DA9E391-A28A-4B33-B824-B8724EAC872C";
name = "Regular Condensed";
paths = (
{
closed = 1;
nodes = (
"342 1860 OFFCURVE",
"268 1775 OFFCURVE",
"270 1632 CURVE SMOOTH",
"270 1619 LINE",
"376 1621 LINE",
"375 1724 OFFCURVE",
"438 1744 OFFCURVE",
"502 1745 CURVE SMOOTH",
"569 1746 OFFCURVE",
"633 1727 OFFCURVE",
"634 1626 CURVE",
"740 1628 LINE",
"740 1643 LINE",
"738 1786 OFFCURVE",
"656 1866 OFFCURVE",
"502 1863 CURVE SMOOTH"
);
}
);
width = 1016;
}
);
unicode = 0311;
},
{
glyphname = uni02C9;
lastChange = "2013-01-02 06:18:44 -0800";
layers = (
{
layerId = "7DA9E391-A28A-4B33-B824-B8724EAC872C";
name = "Regular Condensed";
paths = (
{
closed = 1;
nodes = (
"90 741 LINE",
"90 509 LINE",
"606 509 LINE",
"606 741 LINE"
);
}
);
width = 696;
}
);
unicode = 02C9;
},
{
glyphname = acute;
lastChange = "2013-01-02 06:18:44 -0800";
layers = (
{
anchors = (
{
name = _top;
position = "{290, 1708}";
}
);
layerId = "7DA9E391-A28A-4B33-B824-B8724EAC872C";
name = "Regular Condensed";
paths = (
{
closed = 1;
nodes = (
"100 1955 LINE",
"100 1844 LINE",
"519 1930 LINE",
"519 2129 LINE"
);
}
);
width = 650;
}
);
unicode = 00B4;
},
{
glyphname = breve;
lastChange = "2013-01-02 06:18:44 -0800";
layers = (
{
anchors = (
{
name = _top;
position = "{508, 1500}";
}
);
layerId = "7DA9E391-A28A-4B33-B824-B8724EAC872C";
name = "Regular Condensed";
paths = (
{
closed = 1;
nodes = (
"635 1856 LINE",
"635 1753 OFFCURVE",
"572 1735 OFFCURVE",
"507 1735 CURVE SMOOTH",
"440 1735 OFFCURVE",
"377 1756 OFFCURVE",
"377 1856 CURVE",
"271 1856 LINE",
"271 1841 LINE SMOOTH",
"271 1698 OFFCURVE",
"351 1617 OFFCURVE",
"505 1617 CURVE SMOOTH",
"665 1617 OFFCURVE",
"741 1700 OFFCURVE",
"741 1843 CURVE SMOOTH",
"741 1856 LINE"
);
}
);
width = 1016;
}
);
unicode = 02D8;
},
{
glyphname = caron;
lastChange = "2013-01-02 06:18:44 -0800";
layers = (
{
anchors = (
{
name = _top;
position = "{485, 1500}";
}
);
layerId = "7DA9E391-A28A-4B33-B824-B8724EAC872C";
name = "Regular Condensed";
paths = (
{
closed = 1;
nodes = (
"571 1886 LINE",
"485 1681 LINE",
"399 1886 LINE",
"215 1886 LINE",
"369 1592 LINE",
"601 1592 LINE",
"754 1886 LINE"
);
}
);
width = 970;
}
);
unicode = 02C7;
},
{
glyphname = cedilla;
lastChange = "2013-01-02 06:18:44 -0800";
layers = (
{
anchors = (
{
name = _bottom;
position = "{515, 0}";
}
);
layerId = "7DA9E391-A28A-4B33-B824-B8724EAC872C";
name = "Regular Condensed";
paths = (
{
closed = 1;
nodes = (
"462 0 LINE",
"422 -196 LINE",
"504 -214 OFFCURVE",
"582 -269 OFFCURVE",
"582 -359 CURVE SMOOTH",
"582 -434 OFFCURVE",
"540 -501 OFFCURVE",
"351 -501 CURVE",
"351 -599 LINE",
"391 -611 OFFCURVE",
"430 -617 OFFCURVE",
"468 -617 CURVE SMOOTH",
"637 -617 OFFCURVE",
"746 -507 OFFCURVE",
"746 -385 CURVE SMOOTH",
"746 -294 OFFCURVE",
"682 -202 OFFCURVE",
"543 -144 CURVE",
"531 0 LINE"
);
}
);
width = 1015;
}
);
unicode = 00B8;
},
{
glyphname = circumflex;
lastChange = "2013-01-02 06:18:44 -0800";
layers = (
{
anchors = (
{
name = _top;
position = "{485, 1500}";
}
);
layerId = "7DA9E391-A28A-4B33-B824-B8724EAC872C";
name = "Regular Condensed";
paths = (
{
closed = 1;
nodes = (
"369 1886 LINE",
"215 1592 LINE",
"399 1592 LINE",
"485 1797 LINE",
"571 1592 LINE",
"754 1592 LINE",
"601 1886 LINE"
);
}
);
width = 970;
}
);
unicode = 02C6;
},
{
glyphname = dieresis;
lastChange = "2013-01-02 06:18:44 -0800";
layers = (
{
anchors = (
{
name = _top;
position = "{488, 300}";
}
);
layerId = "7DA9E391-A28A-4B33-B824-B8724EAC872C";
name = "Regular Condensed";
paths = (
{
closed = 1;
nodes = (
"615 596 LINE",
"615 418 LINE",
"845 418 LINE",
"845 596 LINE"
);
},
{
closed = 1;
nodes = (
"131 596 LINE",
"131 418 LINE",
"361 418 LINE",
"361 596 LINE"
);
}
);
width = 976;
}
);
unicode = 00A8;
},
{
glyphname = dotaccent;
lastChange = "2013-01-02 06:18:44 -0800";
layers = (
{
anchors = (
{
name = _top;
position = "{286, 300}";
}
);
layerId = "7DA9E391-A28A-4B33-B824-B8724EAC872C";
name = "Regular Condensed";
paths = (
{
closed = 1;
nodes = (
"184 583 LINE",
"184 405 LINE",
"397 405 LINE",
"397 583 LINE"
);
}
);
width = 572;
}
);
unicode = 02D9;
},
{
glyphname = grave;
lastChange = "2013-01-02 06:18:44 -0800";
layers = (
{
anchors = (
{
name = _top;
position = "{303, 300}";
}
);
layerId = "7DA9E391-A28A-4B33-B824-B8724EAC872C";
name = "Regular Condensed";
paths = (
{
closed = 1;
nodes = (
"121 492 LINE",
"492 398 LINE",
"492 509 LINE",
"121 703 LINE"
);
}
);
width = 650;
}
);
unicode = 0060;
},
{
glyphname = hungarumlaut;
lastChange = "2013-01-02 06:18:44 -0800";
layers = (
{
anchors = (
{
name = _top;
position = "{661, 300}";
}
);
layerId = "7DA9E391-A28A-4B33-B824-B8724EAC872C";
name = "Regular Condensed";
paths = (
{
closed = 1;
nodes = (
"688 505 LINE",
"777 459 LINE",
"1061 825 LINE",
"873 920 LINE"
);
},
{
closed = 1;
nodes = (
"396 505 LINE",
"486 467 LINE",
"709 833 LINE",
"524 920 LINE"
);
}
);
width = 1300;
}
);
unicode = 02DD;
},
{
glyphname = macron;
lastChange = "2013-01-02 06:18:44 -0800";
layers = (
{
anchors = (
{
name = _center;
position = "{338, 483}";
},
{
name = _top;
position = "{348, 300}";
}
);
layerId = "7DA9E391-A28A-4B33-B824-B8724EAC872C";
name = "Regular Condensed";
paths = (
{
closed = 1;
nodes = (
"90 544 LINE",
"90 412 LINE",
"591 412 LINE",
"591 544 LINE"
);
}
);
width = 696;
}
);
unicode = 00AF;
},
{
glyphname = ogonek;
lastChange = "2013-01-02 06:18:44 -0800";
layers = (
{
anchors = (
{
name = _ogonek;
position = "{830, 3}";
}
);
layerId = "7DA9E391-A28A-4B33-B824-B8724EAC872C";
name = "Regular Condensed";
paths = (
{
closed = 1;
nodes = (
"646 0 LINE",
"469 -100 OFFCURVE",
"373 -262 OFFCURVE",
"373 -396 CURVE SMOOTH",
"373 -529 OFFCURVE",
"461 -626 OFFCURVE",
"643 -626 CURVE SMOOTH",
"711 -626 OFFCURVE",
"789 -604 OFFCURVE",
"812 -591 CURVE",
"812 -476 LINE",
"806 -478 OFFCURVE",
"749 -496 OFFCURVE",
"680 -496 CURVE SMOOTH",
"582 -496 OFFCURVE",
"531 -447 OFFCURVE",
"531 -365 CURVE SMOOTH",
"531 -259 OFFCURVE",
"612 -117 OFFCURVE",
"731 0 CURVE"
);
}
);
width = 1015;
}
);
unicode = 02DB;
},
{
glyphname = ring;
lastChange = "2013-01-02 06:18:44 -0800";
layers = (
{
anchors = (
{
name = _top;
position = "{462, 300}";
}
);
layerId = "7DA9E391-A28A-4B33-B824-B8724EAC872C";
name = "Regular Condensed";
paths = (
{
closed = 1;
nodes = (
"332 771 OFFCURVE",
"261 683 OFFCURVE",
"261 584 CURVE SMOOTH",
"261 484 OFFCURVE",
"332 396 OFFCURVE",
"461 396 CURVE SMOOTH",
"591 396 OFFCURVE",
"661 484 OFFCURVE",
"661 584 CURVE SMOOTH",
"661 683 OFFCURVE",
"591 771 OFFCURVE",
"461 771 CURVE SMOOTH"
);
},
{
closed = 1;
nodes = (
"534 700 OFFCURVE",
"571 642 OFFCURVE",
"571 584 CURVE SMOOTH",
"571 526 OFFCURVE",
"534 468 OFFCURVE",
"461 468 CURVE SMOOTH",
"390 468 OFFCURVE",
"354 526 OFFCURVE",
"354 584 CURVE SMOOTH",
"354 642 OFFCURVE",
"390 700 OFFCURVE",
"461 700 CURVE SMOOTH"
);
}
);
width = 923;
}
);
unicode = 02DA;
},
